<svg width="25" height="32" viewBox="0 0 25 32" fill="none" xmlns="http://www.w3.org/2000/svg">
<path d="M24.6819 6.47912L12.6155 0.0705121C12.4365 -0.0247149 12.2219 -0.0233785 12.0443 0.0738533L0.311758 6.48246C0.11934 6.58771 0 6.78886 0 7.00772V15.379C0.00703973 22.2604 4.09744 28.4859 10.4231 31.2428L12.0516 31.9502C12.2038 32.0163 12.3771 32.0167 12.5297 31.9508L14.3647 31.161C20.8077 28.4639 24.9993 22.1782 25 15.2129V7.00772C25 6.78652 24.8776 6.58304 24.6819 6.47912ZM23.7986 15.2129C23.7972 21.6981 19.8935 27.5497 13.8944 30.0593L13.8903 30.0613L12.2923 30.749L10.9038 30.1452C5.01562 27.5791 1.20781 21.7846 1.20111 15.379V7.36223L12.3369 1.27906L23.7986 7.36657V15.2129Z" fill="#EFBD17"/>
<path d="M7.90548 14.9911C7.68993 14.7395 7.31079 14.7098 7.05836 14.9247C6.80594 15.1392 6.77611 15.5174 6.99166 15.7687L10.1649 19.4725C10.3767 19.7197 10.7478 19.7535 11.0006 19.5483L18.3909 13.5554C18.6484 13.3469 18.6873 12.9697 18.4778 12.713C18.2686 12.4568 17.8901 12.4177 17.6327 12.6265L10.6976 18.2499L7.90548 14.9911Z" fill="#EFBD17"/>
</svg>
