<svg width="60" height="60" viewBox="0 0 60 60" fill="none" xmlns="http://www.w3.org/2000/svg">
<circle cx="30" cy="30" r="30" fill="#25D366"/>
<path d="M12.749 47.2C12.5513 47.2 12.359 47.1219 12.2164 46.9776C12.0284 46.7875 11.9559 46.5114 12.0266 46.2533L14.3149 37.897C12.8902 35.3208 12.1391 32.4064 12.1402 29.448C12.1442 19.827 19.9736 12 29.5938 12C34.2599 12.0019 38.6444 13.8195 41.9398 17.1173C45.2347 20.4154 47.0485 24.7996 47.0472 29.462C47.0429 39.0832 39.2134 46.9108 29.5938 46.9108C29.5938 46.9108 29.5866 46.9108 29.5863 46.9108C26.7764 46.9097 23.9907 46.2249 21.5103 44.9278L12.9388 47.1756C12.876 47.1919 12.8121 47.2 12.749 47.2Z" fill="white"/>
<path d="M12.75 46.451L15.1197 37.7974C13.658 35.2646 12.8891 32.3916 12.8902 29.4483C12.8939 20.2404 20.3872 12.749 29.5948 12.749C34.063 12.7509 38.2571 14.4901 41.411 17.6467C44.5646 20.8032 46.3008 24.9991 46.2992 29.4617C46.2952 38.6694 38.8009 46.1618 29.5948 46.1618C29.5943 46.1618 29.5951 46.1618 29.5948 46.1618H29.5876C26.7919 46.1607 24.0451 45.4595 21.6053 44.1288L12.75 46.451ZM22.0154 41.1057L22.5227 41.4062C24.654 42.6711 27.0975 43.3401 29.5895 43.3414H29.5948C37.247 43.3414 43.4753 37.1142 43.4786 29.4606C43.4799 25.7516 42.0372 22.2639 39.4159 19.6404C36.7942 17.0169 33.3087 15.5713 29.5999 15.5697C21.9416 15.5697 15.7135 21.7961 15.7105 29.4494C15.7095 32.0721 16.4432 34.626 17.8332 36.8362L18.1635 37.3615L16.7606 42.4834L22.0154 41.1057Z" fill="white"/>
<path d="M13.3281 45.8674L15.6159 37.513C14.2044 35.068 13.4624 32.2941 13.4632 29.4531C13.4667 20.5639 20.7008 13.332 29.5891 13.332C33.9032 13.3339 37.9522 15.0129 40.9962 18.0602C44.0411 21.1075 45.7169 25.1581 45.7153 29.4657C45.7115 38.3552 38.4772 45.5879 29.5899 45.5879C29.5891 45.5879 29.5902 45.5879 29.5899 45.5879H29.5827C26.884 45.5868 24.232 44.9095 21.8768 43.6258L13.3281 45.8674Z" fill="#25D366"/>
<path d="M12.75 46.451L15.1197 37.7974C13.658 35.2646 12.8891 32.3916 12.8902 29.4483C12.8939 20.2404 20.3872 12.749 29.5948 12.749C34.063 12.7509 38.2571 14.4901 41.411 17.6467C44.5646 20.8032 46.3008 24.9991 46.2992 29.4617C46.2952 38.6694 38.8009 46.1618 29.5948 46.1618C29.5943 46.1618 29.5951 46.1618 29.5948 46.1618H29.5876C26.7919 46.1607 24.0451 45.4595 21.6053 44.1288L12.75 46.451ZM22.0154 41.1057L22.5227 41.4062C24.654 42.6711 27.0975 43.3401 29.5895 43.3414H29.5948C37.247 43.3414 43.4753 37.1142 43.4786 29.4606C43.4799 25.7516 42.0372 22.2639 39.4159 19.6404C36.7942 17.0169 33.3087 15.5713 29.5999 15.5697C21.9416 15.5697 15.7135 21.7961 15.7105 29.4494C15.7095 32.0721 16.4432 34.626 17.8332 36.8362L18.1635 37.3615L16.7606 42.4834L22.0154 41.1057Z" fill="white"/>
<path fill-rule="evenodd" clip-rule="evenodd" d="M25.4187 22.4673C25.1061 21.7723 24.7769 21.7584 24.4793 21.7463C24.236 21.7358 23.9575 21.7363 23.6796 21.7363C23.4013 21.7363 22.9491 21.8411 22.5667 22.2587C22.184 22.6763 21.1055 23.686 21.1055 25.7397C21.1055 27.7936 22.6013 29.7779 22.81 30.0567C23.0187 30.3352 25.6975 34.6842 29.9398 36.3573C33.4657 37.7478 34.183 37.4712 34.9484 37.4017C35.7138 37.3321 37.4177 36.3919 37.7655 35.4173C38.1136 34.4427 38.1136 33.6075 38.0091 33.4327C37.9046 33.2589 37.6264 33.1545 37.2091 32.9458C36.7917 32.7371 34.7397 31.7271 34.357 31.588C33.9743 31.4486 33.6961 31.3793 33.4179 31.7972C33.1394 32.2145 32.3402 33.1545 32.0966 33.4327C31.853 33.7117 31.6094 33.7466 31.1921 33.5377C30.7748 33.3285 29.4304 32.8881 27.8357 31.4661C26.595 30.3599 25.7571 28.9935 25.5135 28.5756C25.2702 28.1583 25.5095 27.952 25.6969 27.724C26.0345 27.3134 26.6009 26.5752 26.74 26.2969C26.8791 26.0182 26.8096 25.7746 26.7054 25.5657C26.6009 25.357 25.7896 23.2929 25.4187 22.4673Z" fill="white"/>
</svg>
