<svg width="80" height="80" viewBox="0 0 80 80" fill="none" xmlns="http://www.w3.org/2000/svg">
<g clip-path="url(#clip0_170_354)">
<rect width="80" height="80" rx="40" fill="url(#paint0_linear_170_354)"/>
<path fill-rule="evenodd" clip-rule="evenodd" d="M27.0294 40.0589V27.8824C27.0294 27.2002 27.5824 26.6471 28.2647 26.6471H51.7353C52.4176 26.6471 52.9706 27.2002 52.9706 27.8824V40.3413L46.9001 46.4118H33.7L27.0294 40.0589ZM32.1765 24.7942L39.2588 19.4824C39.4727 19.322 39.7328 19.2354 40 19.2354C40.2673 19.2354 40.5274 19.322 40.7412 19.4824L47.8236 24.7942H32.1765ZM24.5588 30.5074V37.8707L20.3512 33.6631L24.5588 30.5074ZM55.4412 37.8707V30.5074L59.6488 33.6632L55.4412 37.8707ZM59.0492 58.7647H20.9508L33.0292 48.8823H46.9709L59.0492 58.7647ZM19 57.1686V35.8058L30.7496 47.5554L19 57.1686ZM61 35.8058V57.1686L49.2504 47.5554L61 35.8058ZM35.4956 34.2398L34.6221 35.1132C34.5063 35.2291 34.4412 35.3862 34.4412 35.55C34.4412 35.7138 34.5063 35.8709 34.6221 35.9867L38.5089 39.8735C38.9913 40.3559 39.7735 40.3559 40.2559 39.8735L46.6132 33.5161C46.729 33.4002 46.7941 33.2431 46.7941 33.0793C46.7941 32.9155 46.729 32.7584 46.6132 32.6426L45.7397 31.7691C45.6239 31.6533 45.4668 31.5883 45.303 31.5883C45.1392 31.5883 44.9821 31.6533 44.8663 31.7691L39.3824 37.253L36.3691 34.2398C36.2532 34.1239 36.0961 34.0589 35.9323 34.0589C35.7685 34.0589 35.6114 34.1239 35.4956 34.2398Z" fill="url(#paint1_linear_170_354)"/>
</g>
<defs>
<linearGradient id="paint0_linear_170_354" x1="40" y1="0" x2="40" y2="80" gradientUnits="userSpaceOnUse">
<stop stop-color="#DFEAFF"/>
<stop offset="1" stop-color="#F8F8F8"/>
</linearGradient>
<linearGradient id="paint1_linear_170_354" x1="40" y1="19.2354" x2="40" y2="58.7647" gradientUnits="userSpaceOnUse">
<stop stop-color="#449DEE"/>
<stop offset="1" stop-color="#3875EC"/>
</linearGradient>
<clipPath id="clip0_170_354">
<rect width="80" height="80" fill="white"/>
</clipPath>
</defs>
</svg>
