<svg width="25" height="25" viewBox="0 0 25 25" fill="none" xmlns="http://www.w3.org/2000/svg">
<path d="M18.2327 0H6.76726C3.03573 0 0 3.03573 0 6.76726V18.2329C0 21.9642 3.03573 24.9999 6.76726 24.9999H18.2329C21.9642 24.9999 24.9999 21.9642 24.9999 18.2329V6.76726C24.9999 3.03573 21.9642 0 18.2327 0V0ZM23.5343 18.2329C23.5343 21.1561 21.1561 23.5343 18.2327 23.5343H6.76726C3.84387 23.5343 1.4656 21.1561 1.4656 18.2329V6.76726C1.4656 3.84387 3.84387 1.4656 6.76726 1.4656H18.2329C21.1561 1.4656 23.5343 3.84387 23.5343 6.76726V18.2329Z" fill="#AD6F42"/>
<path d="M12.4998 5.66406C8.7305 5.66406 5.66406 8.7305 5.66406 12.4998C5.66406 16.2691 8.7305 19.3355 12.4998 19.3355C16.2691 19.3355 19.3355 16.2691 19.3355 12.4998C19.3355 8.7305 16.2691 5.66406 12.4998 5.66406ZM12.4998 17.8699C9.53883 17.8699 7.12967 15.4609 7.12967 12.4998C7.12967 9.53883 9.53883 7.12967 12.4998 7.12967C15.4609 7.12967 17.8699 9.53883 17.8699 12.4998C17.8699 15.4609 15.4609 17.8699 12.4998 17.8699Z" fill="#AD6F42"/>
<path d="M19.4994 3.23633C18.3855 3.23633 17.4795 4.14251 17.4795 5.2562C17.4795 6.37009 18.3855 7.27627 19.4994 7.27627C20.6133 7.27627 21.5194 6.37009 21.5194 5.2562C21.5194 4.14232 20.6133 3.23633 19.4994 3.23633ZM19.4994 5.81048C19.1938 5.81048 18.9451 5.56176 18.9451 5.2562C18.9451 4.95046 19.1938 4.70193 19.4994 4.70193C19.8051 4.70193 20.0538 4.95046 20.0538 5.2562C20.0538 5.56176 19.8051 5.81048 19.4994 5.81048Z" fill="#AD6F42"/>
</svg>
