<svg width="25" height="25" viewBox="0 0 25 25" fill="none" xmlns="http://www.w3.org/2000/svg">
<g clip-path="url(#clip0)">
<path d="M18.5157 14.0594C17.5773 14.999 16.1115 16.4663 14.8841 17.7023C13.4252 16.7473 12.1064 15.6935 11.046 14.633C9.73638 13.3234 8.09873 11.4588 7.21372 10.1379C8.33734 9.02233 9.80676 7.55482 10.885 6.47755L4.40744 0L1.17543 3.17383L1.17067 3.1786C0.266201 4.08306 -0.116794 5.31769 0.0323606 6.84814C0.509388 11.742 6.49389 18.8307 11.7841 22.381C14.8469 24.4366 19.2493 26.3393 21.8532 23.7352C23.7438 21.8449 24.4664 21.0747 24.4964 21.0428L24.9812 20.5252L18.5157 14.0594ZM20.8167 22.6988C18.8455 24.6698 14.9362 22.731 12.6008 21.1637C7.6917 17.869 1.92178 11.1212 1.49129 6.70586C1.38677 5.63431 1.6269 4.79698 2.20483 4.21753L4.39809 2.06375L8.81112 6.47697C6.57304 8.71162 5.89879 9.37767 5.36264 9.90849L5.64702 10.3987C6.51067 11.8864 8.51377 14.1739 10.0095 15.6696C11.6502 17.3103 13.3344 18.4687 15.0955 19.5709L15.508 19.1545C16.4132 18.2411 17.7287 16.9222 18.5163 16.1333L22.9354 20.5524C22.5261 20.9749 21.8423 21.673 20.8167 22.6988Z" fill="#AD6F42"/>
<mask id="path-2-inside-1" fill="white">
<path d="M24.5717 11.4539C25.0704 9.91918 25.1349 8.27646 24.7582 6.70735C24.3815 5.13824 23.5782 3.70387 22.4372 2.56282C21.2961 1.42176 19.8618 0.618473 18.2926 0.241763C16.7235 -0.134947 15.0808 -0.0704039 13.5461 0.428255L14.0869 2.0926C15.3147 1.69368 16.6288 1.64204 17.8841 1.94341C19.1394 2.24478 20.2869 2.88741 21.1997 3.80025C22.1126 4.7131 22.7552 5.8606 23.0566 7.11588C23.358 8.37117 23.3063 9.68535 22.9074 10.9131L24.5717 11.4539Z"/>
</mask>
<path d="M24.5717 11.4539C25.0704 9.91918 25.1349 8.27646 24.7582 6.70735C24.3815 5.13824 23.5782 3.70387 22.4372 2.56282C21.2961 1.42176 19.8618 0.618473 18.2926 0.241763C16.7235 -0.134947 15.0808 -0.0704039 13.5461 0.428255L14.0869 2.0926C15.3147 1.69368 16.6288 1.64204 17.8841 1.94341C19.1394 2.24478 20.2869 2.88741 21.1997 3.80025C22.1126 4.7131 22.7552 5.8606 23.0566 7.11588C23.358 8.37117 23.3063 9.68535 22.9074 10.9131L24.5717 11.4539Z" stroke="#AD6F42" stroke-width="4" mask="url(#path-2-inside-1)"/>
<mask id="path-3-inside-2" fill="white">
<path d="M20.5271 12.348C20.8833 11.2518 20.9294 10.0784 20.6603 8.95759C20.3912 7.8368 19.8175 6.81225 19.0024 5.99721C18.1874 5.18217 17.1628 4.60839 16.042 4.33931C14.9212 4.07024 13.7479 4.11634 12.6517 4.47252L13.2311 6.25575C13.9984 6.00642 14.8198 5.97415 15.6043 6.16251C16.3889 6.35086 17.1061 6.75251 17.6766 7.32303C18.2471 7.89356 18.6488 8.61075 18.8371 9.3953C19.0255 10.1799 18.9932 11.0012 18.7439 11.7686L20.5271 12.348Z"/>
</mask>
<path d="M20.5271 12.348C20.8833 11.2518 20.9294 10.0784 20.6603 8.95759C20.3912 7.8368 19.8175 6.81225 19.0024 5.99721C18.1874 5.18217 17.1628 4.60839 16.042 4.33931C14.9212 4.07024 13.7479 4.11634 12.6517 4.47252L13.2311 6.25575C13.9984 6.00642 14.8198 5.97415 15.6043 6.16251C16.3889 6.35086 17.1061 6.75251 17.6766 7.32303C18.2471 7.89356 18.6488 8.61075 18.8371 9.3953C19.0255 10.1799 18.9932 11.0012 18.7439 11.7686L20.5271 12.348Z" stroke="#AD6F42" stroke-width="4" mask="url(#path-3-inside-2)"/>
</g>
<defs>
<clipPath id="clip0">
<rect width="25" height="25" fill="white"/>
</clipPath>
</defs>
</svg>
