<svg width="21" height="31" viewBox="0 0 21 31" fill="none" xmlns="http://www.w3.org/2000/svg">
<path d="M10.4256 0.959814L10.3909 0.959595C4.76779 0.959595 0.192871 5.76064 0.192871 11.662C0.192871 14.8976 1.76883 17.4209 3.52476 19.9339L10.3775 29.7412L17.2598 19.9339C19.0157 17.4211 20.5917 14.8976 20.5917 11.6622C20.5917 5.77249 16.0345 0.978479 10.4256 0.959814ZM15.9638 18.9367C15.9638 18.9367 10.6408 26.5755 10.3993 26.9202L4.82073 18.9367C3.16797 16.5713 1.80001 14.3915 1.80001 11.662C1.80001 6.70178 5.63644 2.66425 10.3589 2.64602H10.3922C15.1301 2.64624 18.9845 6.6908 18.9845 11.6622C18.9845 14.3915 17.6166 16.5715 15.9638 18.9367Z" fill="#AD6F42"/>
<path d="M10.3924 5.17542C6.98389 5.17542 4.21094 8.08516 4.21094 11.662C4.21094 15.2386 6.98389 18.1484 10.3924 18.1484C13.8011 18.1484 16.574 15.2386 16.574 11.662C16.574 8.08516 13.8011 5.17542 10.3924 5.17542ZM10.3924 16.4619C7.87012 16.4619 5.81787 14.3087 5.81787 11.6618C5.81787 9.01511 7.87012 6.86162 10.3924 6.86162C12.9148 6.86162 14.9669 9.01511 14.9669 11.662C14.9669 14.3087 12.9148 16.4619 10.3924 16.4619Z" fill="#AD6F42"/>
</svg>
