<svg width="162" height="65" viewBox="0 0 162 65" fill="none" xmlns="http://www.w3.org/2000/svg">
<rect width="162" height="65" fill="#EEEEEE"/>
<path d="M86.6784 22.6733H75.3213V42.3283H86.6784V22.6733Z" fill="#FF5F00"/>
<path d="M76.0432 32.4995C76.0414 30.6066 76.4868 28.7381 77.3457 27.0355C78.2046 25.3328 79.4544 23.8407 81.0006 22.672C79.0859 21.2226 76.7863 20.3212 74.3647 20.0709C71.9432 19.8206 69.4974 20.2315 67.3068 21.2566C65.1163 22.2816 63.2694 23.8796 61.9773 25.8677C60.6852 27.8559 60 30.154 60 32.4995C60 34.845 60.6852 37.1431 61.9773 39.1313C63.2694 41.1194 65.1163 42.7174 67.3068 43.7425C69.4974 44.7676 71.9432 45.1784 74.3647 44.9281C76.7863 44.6778 79.0859 43.7764 81.0006 42.327C79.4544 41.1583 78.2046 39.6662 77.3457 37.9636C76.4868 36.2609 76.0414 34.3924 76.0432 32.4995Z" fill="#EB001B"/>
<path d="M102 32.4995C102 34.8449 101.315 37.1431 100.023 39.1312C98.7309 41.1194 96.8841 42.7173 94.6936 43.7424C92.5031 44.7675 90.0573 45.1784 87.6358 44.9281C85.2142 44.6778 82.9147 43.7764 81 42.327C82.5448 41.1572 83.7937 39.6648 84.6525 37.9624C85.5112 36.26 85.9574 34.3921 85.9574 32.4995C85.9574 30.6069 85.5112 28.739 84.6525 27.0366C83.7937 25.3342 82.5448 23.8419 81 22.672C82.9147 21.2226 85.2142 20.3212 87.6358 20.0709C90.0573 19.8206 92.5031 20.2315 94.6936 21.2566C96.8841 22.2817 98.7309 23.8796 100.023 25.8678C101.315 27.8559 102 30.1541 102 32.4995Z" fill="#F79E1B"/>
<path d="M100.762 40.2474V39.845H100.93V39.763H100.501V39.845H100.67V40.2474H100.762ZM101.595 40.2474V39.7622H101.463L101.312 40.0959L101.16 39.7622H101.029V40.2474H101.122V39.8814L101.264 40.1969H101.36L101.502 39.8806V40.2474H101.595Z" fill="#F79E1B"/>
</svg>
