<svg width="162" height="65" viewBox="0 0 162 65" fill="none" xmlns="http://www.w3.org/2000/svg">
<rect width="162" height="65" fill="#0F754E"/>
<path fill-rule="evenodd" clip-rule="evenodd" d="M43.5075 20.0043C44.3294 19.9994 46.7721 19.7802 47.8068 23.259C48.5038 25.6023 49.614 29.4408 51.1375 34.7745H51.758C53.3918 29.1514 54.5141 25.3129 55.125 23.259C56.1704 19.744 58.7841 20.0043 59.8295 20.0043L67.8955 20.0043V44.9999H59.6744V30.2696H59.1232L54.5404 44.9999H48.3551L43.7723 30.2587H43.221V44.9999H35V20.0043L43.5075 20.0043ZM79.7007 20.0043V34.7456H80.3565L85.9311 22.624C87.0132 20.2117 89.3195 20.0043 89.3195 20.0043H97.275V45H88.8823V30.2587H88.2265L82.7612 42.3804C81.6791 44.7817 79.2634 45 79.2634 45H71.308V20.0043H79.7007ZM126.284 31.8824C125.113 35.1873 121.437 37.5542 117.366 37.5542H108.565V45H100.584V31.8824H126.284Z" fill="white"/>
<path fill-rule="evenodd" clip-rule="evenodd" d="M117.751 20.0049H100.166C100.584 25.5698 105.395 30.3337 110.375 30.3337H126.838C127.789 25.7086 124.518 20.0049 117.751 20.0049Z" fill="url(#paint0_linear_354_2554)"/>
<defs>
<linearGradient id="paint0_linear_354_2554" x1="127" y1="26.5021" x2="100.166" y2="26.5021" gradientUnits="userSpaceOnUse">
<stop stop-color="#1F5CD7"/>
<stop offset="1" stop-color="#02AEFF"/>
</linearGradient>
</defs>
</svg>
