<svg width="162" height="65" viewBox="0 0 162 65" fill="none" xmlns="http://www.w3.org/2000/svg">
<rect width="162" height="65" fill="#2566AF"/>
<path d="M75.8137 44.5833H69.4491L73.4269 20.4316H79.7922L75.8137 44.5833ZM64.0948 20.4316L58.027 37.0433L57.309 33.4662L57.3097 33.4674L55.1681 22.6061C55.1681 22.6061 54.9091 20.4316 52.1489 20.4316H42.1177L42 20.8405C42 20.8405 45.0676 21.471 48.6576 23.6011L54.1872 44.5839H60.8186L70.9446 20.4316H64.0948ZM114.156 44.5833H120L114.905 20.4309H109.788C107.426 20.4309 106.85 22.2308 106.85 22.2308L97.3579 44.5833H103.993L105.319 40.9958H113.41L114.156 44.5833ZM107.152 36.04L110.497 27.0018L112.378 36.04H107.152ZM97.8555 26.2395L98.7638 21.0531C98.7638 21.0531 95.9611 20 93.0394 20C89.8809 20 82.3804 21.3638 82.3804 27.9955C82.3804 34.235 91.1836 34.3125 91.1836 37.5899C91.1836 40.8672 83.2874 40.28 80.6815 38.2133L79.7353 43.6362C79.7353 43.6362 82.5773 45 86.9193 45C91.2627 45 97.815 42.7782 97.815 36.7313C97.815 30.4517 88.9328 29.867 88.9328 27.1369C88.9334 24.406 95.1319 24.7568 97.8555 26.2395Z" fill="white"/>
<path d="M57.5026 33.4917L55.3784 22.3712C55.3784 22.3712 55.1216 20.1448 52.3838 20.1448H42.4341L42.3174 20.5635C42.3174 20.5635 47.0996 21.5742 51.6865 25.361C56.0724 28.9805 57.5026 33.4917 57.5026 33.4917Z" fill="#E6A540"/>
</svg>
