<svg width="29" height="29" viewBox="0 0 29 29" fill="none" xmlns="http://www.w3.org/2000/svg">
<g clip-path="url(#clip0)">
<path d="M13.5938 19.1445L13.5938 25.2617C13.5938 27.323 11.9168 29 9.85547 29H3.73828C1.67696 29 0 27.323 0 25.2617L0 19.1445C0 17.0832 1.67696 15.4062 3.73828 15.4062L9.85547 15.4063C11.9168 15.4063 13.5938 17.0832 13.5938 19.1445ZM1.8125 25.2617C1.8125 26.3236 2.67638 27.1875 3.73828 27.1875H9.85547C10.9174 27.1875 11.7812 26.3236 11.7812 25.2617L11.7813 19.1445C11.7813 18.0826 10.9174 17.2188 9.85547 17.2188H3.73828C2.67638 17.2188 1.8125 18.0826 1.8125 19.1445L1.8125 25.2617Z" fill="#444444"/>
<path d="M13.5938 3.73828L13.5938 9.85547C13.5938 11.9168 11.9168 13.5938 9.85547 13.5938L3.73828 13.5938C1.67696 13.5938 0 11.9168 0 9.85547L0 3.73828C0 1.67696 1.67696 0 3.73828 0L9.85547 0C11.9168 0 13.5938 1.67696 13.5938 3.73828ZM1.8125 9.85547C1.8125 10.9174 2.67638 11.7812 3.73828 11.7812L9.85547 11.7813C10.9174 11.7813 11.7812 10.9174 11.7812 9.85547L11.7813 3.73828C11.7813 2.67638 10.9174 1.8125 9.85547 1.8125L3.73828 1.8125C2.67638 1.8125 1.8125 2.67638 1.8125 3.73828L1.8125 9.85547Z" fill="#444444"/>
<path d="M29 6.79688C29 10.5447 25.9509 13.5938 22.2031 13.5938C18.4553 13.5938 15.4062 10.5447 15.4063 6.79688C15.4063 3.04908 18.4553 0 22.2031 0C25.9509 0 29 3.04908 29 6.79688ZM17.2188 6.79688C17.2188 9.54525 19.4548 11.7812 22.2031 11.7812C24.9515 11.7813 27.1875 9.54525 27.1875 6.79688C27.1875 4.0485 24.9515 1.8125 22.2031 1.8125C19.4548 1.8125 17.2188 4.0485 17.2188 6.79688Z" fill="#444444"/>
<path d="M29 19.1445V25.2617C29 27.323 27.323 29 25.2617 29H19.1445C17.0832 29 15.4062 27.323 15.4062 25.2617L15.4063 19.1445C15.4063 17.0832 17.0832 15.4062 19.1445 15.4062L25.2617 15.4063C27.323 15.4063 29 17.0832 29 19.1445ZM17.2188 25.2617C17.2188 26.3236 18.0826 27.1875 19.1445 27.1875H25.2617C26.3236 27.1875 27.1875 26.3236 27.1875 25.2617V19.1445C27.1875 18.0826 26.3236 17.2188 25.2617 17.2188H19.1445C18.0826 17.2188 17.2188 18.0826 17.2188 19.1445V25.2617Z" fill="#444444"/>
</g>
<defs>
<clipPath id="clip0">
<rect width="29" height="29" fill="white" transform="translate(0 29) rotate(-90)"/>
</clipPath>
</defs>
</svg>
