<svg width="60" height="60" viewBox="0 0 60 60" fill="none" xmlns="http://www.w3.org/2000/svg">
<circle cx="30" cy="30" r="30" fill="white"/>
<g clip-path="url(#clip0)">
<path d="M28.5938 34.1445V40.2617C28.5938 42.323 26.9168 44 24.8555 44H18.7383C16.677 44 15 42.323 15 40.2617L15 34.1445C15 32.0832 16.677 30.4062 18.7383 30.4062H24.8555C26.9168 30.4062 28.5938 32.0832 28.5938 34.1445ZM16.8125 40.2617C16.8125 41.3236 17.6764 42.1875 18.7383 42.1875H24.8555C25.9174 42.1875 26.7812 41.3236 26.7812 40.2617V34.1445C26.7812 33.0826 25.9174 32.2188 24.8555 32.2188H18.7383C17.6764 32.2188 16.8125 33.0826 16.8125 34.1445V40.2617Z" fill="black"/>
<path d="M28.5938 18.7383V24.8555C28.5938 26.9168 26.9168 28.5938 24.8555 28.5938H18.7383C16.677 28.5938 15 26.9168 15 24.8555L15 18.7383C15 16.677 16.677 15 18.7383 15L24.8555 15C26.9168 15 28.5938 16.677 28.5938 18.7383ZM16.8125 24.8555C16.8125 25.9174 17.6764 26.7812 18.7383 26.7812H24.8555C25.9174 26.7812 26.7812 25.9174 26.7812 24.8555V18.7383C26.7812 17.6764 25.9174 16.8125 24.8555 16.8125H18.7383C17.6764 16.8125 16.8125 17.6764 16.8125 18.7383V24.8555Z" fill="black"/>
<path d="M44 21.7969C44 25.5447 40.9509 28.5938 37.2031 28.5938C33.4553 28.5938 30.4062 25.5447 30.4062 21.7969C30.4062 18.0491 33.4553 15 37.2031 15C40.9509 15 44 18.0491 44 21.7969ZM32.2188 21.7969C32.2188 24.5452 34.4548 26.7812 37.2031 26.7812C39.9515 26.7812 42.1875 24.5452 42.1875 21.7969C42.1875 19.0485 39.9515 16.8125 37.2031 16.8125C34.4548 16.8125 32.2188 19.0485 32.2188 21.7969Z" fill="black"/>
<path d="M44 34.1445V40.2617C44 42.323 42.323 44 40.2617 44H34.1445C32.0832 44 30.4062 42.323 30.4062 40.2617V34.1445C30.4062 32.0832 32.0832 30.4062 34.1445 30.4062H40.2617C42.323 30.4062 44 32.0832 44 34.1445ZM32.2188 40.2617C32.2188 41.3236 33.0826 42.1875 34.1445 42.1875H40.2617C41.3236 42.1875 42.1875 41.3236 42.1875 40.2617V34.1445C42.1875 33.0826 41.3236 32.2188 40.2617 32.2188H34.1445C33.0826 32.2188 32.2188 33.0826 32.2188 34.1445V40.2617Z" fill="black"/>
</g>
<defs>
<clipPath id="clip0">
<rect width="29" height="29" fill="white" transform="translate(15 44) rotate(-90)"/>
</clipPath>
</defs>
</svg>
