<svg width="40" height="34" viewBox="0 0 40 34" fill="none" xmlns="http://www.w3.org/2000/svg">
<path d="M35.002 7.52918L19.8201 2.30745L4.57495 7.53283L19.7568 12.7546L35.002 7.52918Z" fill="#CCCCCC"/>
<path d="M39.5769 13.5163C39.5771 13.0373 39.2732 12.6109 38.8201 12.4551L33.1937 10.5199L38.819 8.59179C39.2721 8.43647 39.5765 8.01049 39.5769 7.53143C39.577 7.05246 39.2731 6.62611 38.82 6.47032L20.1853 0.0610279C19.9494 -0.0200929 19.6928 -0.0204669 19.4568 0.0606539L0.757751 6.47013C0.304577 6.62545 0.000187259 7.05143 3.44261e-07 7.53049C-0.000373484 8.00946 0.303736 8.43581 0.756723 8.59161L6.38322 10.5268L0.757844 12.4548C0.304577 12.6102 0.000187259 13.0361 3.44261e-07 13.5151C-0.000373484 13.9942 0.303736 14.4205 0.756723 14.5763L6.38322 16.5115L0.757751 18.4396C0.304671 18.5949 0.000187259 19.0208 3.44261e-07 19.4997C-0.000373484 19.9788 0.303736 20.4051 0.756723 20.5609L6.38322 22.4962L0.757844 24.4243C0.304577 24.5796 0.000187259 25.0056 3.44261e-07 25.4845C-0.000373484 25.9636 0.303736 26.39 0.756723 26.5457L19.3913 32.9549C19.5096 32.9956 19.6328 33.0159 19.7562 33.0159C19.879 33.0159 20.0019 32.9957 20.1198 32.9553L38.8191 26.546C39.2722 26.3907 39.5766 25.9647 39.5769 25.4858C39.5771 25.0067 39.2732 24.5803 38.8201 24.4246L33.1937 22.4894L38.819 20.5613C39.2721 20.406 39.5765 19.98 39.5769 19.5009C39.577 19.022 39.2731 18.5956 38.82 18.4398L33.1936 16.5046L38.8189 14.5765C39.2721 14.4213 39.5766 13.9953 39.5769 13.5163ZM4.57482 7.53283L19.82 2.30746L35.0018 7.52918L19.7567 12.7546L4.57482 7.53283ZM35.0018 25.4833L19.7567 30.7087L4.57501 25.487L9.83599 23.6837L19.3912 26.9702C19.5096 27.0109 19.6327 27.0312 19.7561 27.0312C19.8789 27.0312 20.0018 27.011 20.1197 26.9706L29.7396 23.6733L35.0018 25.4833ZM35.0018 19.4986L19.7567 24.724L4.57482 19.5023L9.83599 17.699L19.3912 20.9855C19.5096 21.0262 19.6327 21.0464 19.7561 21.0464C19.8789 21.0464 20.0018 21.0263 20.1197 20.9859L29.7395 17.6887L35.0018 19.4986ZM19.7567 18.7393L4.57501 13.5175L9.83599 11.7143L19.3912 15.0008C19.5096 15.0414 19.6327 15.0617 19.7561 15.0617C19.8789 15.0617 20.0018 15.0415 20.1197 15.0012L29.7396 11.7039L35.0019 13.5139L19.7567 18.7393Z" fill="#444444"/>
</svg>
