<svg width="50" height="30" viewBox="0 0 50 30" fill="none" xmlns="http://www.w3.org/2000/svg">
<path d="M37.1928 19.1889C36.5461 18.3839 36.7311 18.0257 37.1928 17.3061C37.2012 17.2979 42.5397 10.0266 43.0897 7.56071L43.093 7.55907C43.3664 6.66043 43.093 6 41.7713 6H37.3978C36.2845 6 35.7711 6.56679 35.4961 7.20093C35.4961 7.20093 33.2693 12.4548 30.1192 15.8604C29.1025 16.8445 28.6325 17.1599 28.0775 17.1599C27.8042 17.1599 27.3791 16.8445 27.3791 15.9459V7.55907C27.3791 6.48136 27.0675 6 26.1458 6H19.2689C18.5705 6 18.1555 6.50271 18.1555 6.97093C18.1555 7.99279 19.7305 8.22771 19.8939 11.1027V17.3406C19.8939 18.7075 19.6422 18.9589 19.0839 18.9589C17.5971 18.9589 13.9887 13.6836 11.8503 7.64614C11.4186 6.47479 10.9969 6.00164 9.8752 6.00164H5.50005C4.25168 6.00164 4 6.56843 4 7.20257C4 8.323 5.48672 13.8939 10.9136 21.2539C14.5304 26.2778 19.6239 29 24.2574 29C27.0425 29 27.3825 28.3954 27.3825 27.3555C27.3825 22.5551 27.1308 22.1016 28.5259 22.1016C29.1725 22.1016 30.2859 22.4171 32.886 24.8403C35.8578 27.7136 36.3461 29 38.0095 29H42.383C43.6297 29 44.2614 28.3954 43.898 27.2027C43.0664 24.6941 37.4462 19.5339 37.1928 19.1889Z" fill="#444444"/>
</svg>
