<?xml version="1.0" encoding="iso-8859-1"?>
<!-- Generator: Adobe Illustrator 16.0.0, SVG Export Plug-In . SVG Version: 6.00 Build 0)  -->
<!DOCTYPE svg PUBLIC "-//W3C//DTD SVG 1.1//EN" "http://www.w3.org/Graphics/SVG/1.1/DTD/svg11.dtd">
<svg version="1.1" id="Capa_1" xmlns="http://www.w3.org/2000/svg" xmlns:xlink="http://www.w3.org/1999/xlink" x="0px" y="0px"
	 width="380.309px" height="380.309px" viewBox="0 0 380.309 380.309" style="enable-background:new 0 0 380.309 380.309;"
	 xml:space="preserve">
<g>
	<g>
		<path d="M132.369,91.718c0-32.972,26.83-59.802,59.801-59.802c32.978,0,59.802,26.83,59.802,59.802
			c0,32.974-26.824,59.802-59.802,59.802C159.199,151.52,132.369,124.684,132.369,91.718z"/>
		<path d="M380.309,316.141c0,17.796-14.467,32.252-32.251,32.252H217.336c25.606-10.498,43.79-35.35,44.61-64.504h86.116
			C365.842,283.889,380.309,298.354,380.309,316.141z"/>
		<path d="M190.155,348.393c-35.998,0-65.336-28.767-66.418-64.504H256.57C255.49,319.626,226.155,348.393,190.155,348.393z"/>
		<path d="M88.694,190.055c0-17.788,14.465-32.252,32.252-32.252h138.416c17.786,0,32.254,14.465,32.254,32.252v88.452h-29.565
			v-66.516c0-1.47-1.208-2.688-2.688-2.688s-2.688,1.218-2.688,2.688v66.522H123.634v-66.522c0-1.47-1.205-2.688-2.688-2.688
			s-2.688,1.218-2.688,2.688v66.522H88.694V190.055z"/>
		<path d="M32.252,283.889h86.109c0.812,29.154,19.008,54.006,44.61,64.504H32.252C14.465,348.393,0,333.937,0,316.141
			C0,298.354,14.465,283.889,32.252,283.889z"/>
	</g>
</g>
<g>
</g>
<g>
</g>
<g>
</g>
<g>
</g>
<g>
</g>
<g>
</g>
<g>
</g>
<g>
</g>
<g>
</g>
<g>
</g>
<g>
</g>
<g>
</g>
<g>
</g>
<g>
</g>
<g>
</g>
</svg>
