<svg width="60" height="80" viewBox="0 0 60 80" fill="none" xmlns="http://www.w3.org/2000/svg">
<g clip-path="url(#clip0_102_22)">
<rect y="10" width="60" height="60" rx="7" fill="white"/>
<g filter="url(#filter0_d_102_22)">
<path d="M49.8474 23.0111C49.7451 22.818 49.5967 22.6574 49.4173 22.5456C49.238 22.4339 49.0341 22.375 48.8265 22.375H33.4541L36.0313 1.32101C36.059 1.03924 35.9971 0.755715 35.8558 0.516087C35.7144 0.276459 35.5017 0.0946738 35.2519 0C29.7722 0.046151 29.4999 0.0440979 29.2489 0.134996C28.9979 0.225894 28.7829 0.404454 28.6383 0.641926L15.1738 35.519C15.0645 35.7091 15.0046 35.927 15.0003 36.1501C14.9959 36.3732 15.0473 36.5935 15.1492 36.7883C15.251 36.9831 15.3996 37.1453 15.5796 37.2583C15.7597 37.3712 15.9646 37.4308 16.1733 37.4308H31.316L24.1414 58.6808C24.1213 58.9616 24.1897 59.2416 24.3355 59.476C24.4814 59.7105 24.6964 59.8861 24.9464 59.9749C25.1964 60.0636 30.5992 59.896 30.8473 59.8014C31.0954 59.7068 31.3067 59.5262 31.4478 59.2884L49.8334 24.2742C49.94 24.0838 49.9974 23.8666 49.9999 23.6447C50.0024 23.4228 49.9498 23.2042 49.8474 23.0111Z" fill="#F1C116"/>
</g>
</g>
<path d="M49.8474 23.0111C49.7451 22.818 49.5967 22.6574 49.4173 22.5456C49.238 22.4339 49.0341 22.375 48.8265 22.375H33.4541L36.0313 1.32101C36.059 1.03924 35.9971 0.755715 35.8558 0.516087C35.7144 0.276459 35.5017 0.0946738 35.2519 0C29.7722 0.046151 29.4999 0.0440979 29.2489 0.134996C28.9979 0.225894 28.7829 0.404454 28.6383 0.641926L15.1738 35.519C15.0645 35.7091 15.0046 35.927 15.0003 36.1501C14.9959 36.3732 15.0473 36.5935 15.1492 36.7883C15.251 36.9831 15.3996 37.1453 15.5796 37.2583C15.7597 37.3712 15.9646 37.4308 16.1733 37.4308H31.316L24.1414 58.6808C24.1213 58.9616 24.1897 59.2416 24.3355 59.476C24.4814 59.7105 24.6964 59.8861 24.9464 59.9749C25.1964 60.0636 30.5992 59.896 30.8473 59.8014C31.0954 59.7068 31.3067 59.5262 31.4478 59.2884L49.8334 24.2742C49.94 24.0838 49.9974 23.8666 49.9999 23.6447C50.0024 23.4228 49.9498 23.2042 49.8474 23.0111Z" fill="#E2A404"/>
<path d="M44.8474 23.1039C44.7451 22.9106 44.5967 22.7499 44.4173 22.638C44.238 22.5262 44.0341 22.4673 43.8265 22.4672H28.4541L31.0313 1.39477C31.059 1.11275 30.9971 0.828978 30.8558 0.589139C30.7144 0.349301 30.5017 0.167356 30.2519 0.072599C30.0022 -0.022158 29.7299 -0.0242129 29.4789 0.066765C29.2279 0.157743 29.0129 0.33646 28.8683 0.57414L10.1738 35.6228C10.0645 35.8131 10.0046 36.0311 10.0003 36.2545C9.99592 36.4778 10.0473 36.6983 10.1492 36.8932C10.251 37.0882 10.3996 37.2506 10.5796 37.3636C10.7597 37.4766 10.9646 37.5363 11.1733 37.5363H26.316L24.2736 58.6405C24.2535 58.9215 24.3219 59.2017 24.4678 59.4364C24.6136 59.671 24.8287 59.8468 25.0787 59.9356C25.3286 60.0245 25.5992 60.0213 25.8473 59.9266C26.0954 59.8319 26.3067 59.6511 26.4478 59.4131L44.8334 24.3681C44.94 24.1776 44.9974 23.9602 44.9999 23.7381C45.0024 23.516 44.9498 23.2971 44.8474 23.1039Z" fill="#FFC83A"/>
<defs>
<filter id="filter0_d_102_22" x="5" y="-10" width="65" height="90" filterUnits="userSpaceOnUse" color-interpolation-filters="sRGB">
<feFlood flood-opacity="0" result="BackgroundImageFix"/>
<feColorMatrix in="SourceAlpha" type="matrix" values="0 0 0 0 0 0 0 0 0 0 0 0 0 0 0 0 0 0 127 0" result="hardAlpha"/>
<feOffset dx="5" dy="5"/>
<feGaussianBlur stdDeviation="7.5"/>
<feComposite in2="hardAlpha" operator="out"/>
<feColorMatrix type="matrix" values="0 0 0 0 0 0 0 0 0 0 0 0 0 0 0 0 0 0 0.15 0"/>
<feBlend mode="normal" in2="BackgroundImageFix" result="effect1_dropShadow_102_22"/>
<feBlend mode="normal" in="SourceGraphic" in2="effect1_dropShadow_102_22" result="shape"/>
</filter>
<clipPath id="clip0_102_22">
<rect width="60" height="60" fill="white" transform="translate(0 10)"/>
</clipPath>
</defs>
</svg>
