<svg width="100" height="100" viewBox="0 0 100 100" fill="none" xmlns="http://www.w3.org/2000/svg">
<circle cx="50" cy="50" r="50" fill="url(#paint0_linear_170_474)"/>
<path d="M66.842 57.92C66.7436 57.842 59.6 52.6928 57.6392 53.0624C56.7032 53.228 56.168 53.8664 55.094 55.1444C54.9212 55.3508 54.506 55.8452 54.1832 56.1968C53.5045 55.9754 52.8424 55.7059 52.202 55.3904C48.8966 53.7812 46.226 51.1106 44.6168 47.8052C44.301 47.1649 44.0315 46.5028 43.8104 45.824C44.1632 45.5 44.6576 45.0848 44.8688 44.9072C46.1408 43.8392 46.7804 43.304 46.946 42.3656C47.2856 40.4216 42.14 33.2288 42.086 33.164C41.8525 32.8305 41.5479 32.553 41.194 32.3517C40.8402 32.1504 40.446 32.0303 40.04 32C37.9544 32 32 39.7244 32 41.0252C32 41.1008 32.1092 48.7856 41.5856 58.4252C51.2156 67.8908 58.8992 68 58.9748 68C60.2768 68 68 62.0456 68 59.96C67.9701 59.5554 67.8506 59.1626 67.6504 58.8098C67.4501 58.457 67.174 58.1531 66.842 57.92Z" fill="white"/>
<defs>
<linearGradient id="paint0_linear_170_474" x1="50" y1="0" x2="50" y2="100" gradientUnits="userSpaceOnUse">
<stop stop-color="#449DEE"/>
<stop offset="1" stop-color="#3875EC"/>
</linearGradient>
</defs>
</svg>
