<svg width="90" height="90" viewBox="0 0 90 90" fill="none" xmlns="http://www.w3.org/2000/svg">
<g filter="url(#filter0_d)">
<circle cx="45" cy="45" r="35" fill="#F9F9FD"/>
</g>
<path d="M31.3111 29.8298L26.9111 30.3191L23.4583 35.8L23 36.6809L24.9556 40.5957V49.4043L23 53.3191L26.9111 59.6809L31.3111 60.1702L38.6444 64.5745L41.0889 68H48.9111L51.3556 64.5745L58.6889 60.1702L63.0889 59.6809L67 53.3191L65.0444 49.4043V40.5957L67 36.6809L63.0889 30.3191L58.6889 29.8298L51.3556 25.4255L48.9111 22H41.0889L38.1556 25.9149L31.3111 29.8298Z" fill="#C7C7FF"/>
<path d="M28.5 59.7202L24.8333 53.7402L26.6667 50.5202V40.8602L23.4583 36.7202" stroke="#F9F9FD" stroke-width="2" stroke-linejoin="round"/>
<path d="M23.4583 35.8L23 36.6809L24.9556 40.5957V49.4043L23 53.3191L26.9111 59.6809L31.3111 60.1702L38.6444 64.5745L41.0889 68H48.9111L51.3556 64.5745L58.6889 60.1702L63.0889 59.6809L67 53.3191L65.0444 49.4043V40.5957L67 36.6809L63.0889 30.3191L58.6889 29.8298L51.3556 25.4255L48.9111 22H41.0889L38.1556 25.9149L31.3111 29.8298L26.9111 30.3191L26.2083 31.2" stroke="#3D44E7" stroke-width="2" stroke-linecap="round" stroke-linejoin="round"/>
<ellipse cx="44.9999" cy="44.9998" rx="14.6667" ry="14.72" fill="#F9F9FD"/>
<path d="M44.9999 30.2798C46.926 30.2798 48.8332 30.6606 50.6126 31.4003C52.3921 32.1401 54.0089 33.2244 55.3708 34.5912C56.7327 35.9581 57.8131 37.5808 58.5502 39.3667C59.2872 41.1527 59.6666 43.0668 59.6666 44.9998C59.6666 46.9329 59.2872 48.847 58.5501 50.6329C57.8131 52.4189 56.7327 54.0416 55.3708 55.4085C54.0089 56.7753 52.392 57.8596 50.6126 58.5994C48.8332 59.3391 46.926 59.7198 44.9999 59.7198L44.9999 44.9998V30.2798Z" fill="#ECECFF"/>
<path d="M58.6666 44.9998C58.6666 52.5806 52.5444 58.7198 44.9999 58.7198C37.4554 58.7198 31.3333 52.5806 31.3333 44.9998C31.3333 37.4191 37.4554 31.2798 44.9999 31.2798C52.5444 31.2798 58.6666 37.4191 58.6666 44.9998Z" stroke="#3D44E7" stroke-width="2"/>
<path d="M38.5833 46.7692L41.4351 49.5999L51.4166 40.3999" stroke="#3D44E7" stroke-width="2" stroke-linecap="round" stroke-linejoin="round"/>
<defs>
<filter id="filter0_d" x="0" y="0" width="90" height="90" filterUnits="userSpaceOnUse" color-interpolation-filters="sRGB">
<feFlood flood-opacity="0" result="BackgroundImageFix"/>
<feColorMatrix in="SourceAlpha" type="matrix" values="0 0 0 0 0 0 0 0 0 0 0 0 0 0 0 0 0 0 127 0"/>
<feOffset/>
<feGaussianBlur stdDeviation="5"/>
<feColorMatrix type="matrix" values="0 0 0 0 0.852535 0 0 0 0 0.852535 0 0 0 0 0.895833 0 0 0 1 0"/>
<feBlend mode="normal" in2="BackgroundImageFix" result="effect1_dropShadow"/>
<feBlend mode="normal" in="SourceGraphic" in2="effect1_dropShadow" result="shape"/>
</filter>
</defs>
</svg>
