<svg width="90" height="90" viewBox="0 0 90 90" fill="none" xmlns="http://www.w3.org/2000/svg">
<g filter="url(#filter0_d)">
<circle cx="45" cy="45" r="35" fill="#F9F9FD"/>
</g>
<path d="M45 23C47.8891 23 50.7499 23.569 53.419 24.6747C56.0882 25.7803 58.5135 27.4008 60.5564 29.4437C62.5992 31.4865 64.2197 33.9118 65.3254 36.581C66.431 39.2501 67 42.1109 67 45C67 47.8891 66.431 50.7499 65.3253 53.419C64.2197 56.0882 62.5992 58.5135 60.5563 60.5564C58.5135 62.5992 56.0882 64.2197 53.419 65.3254C50.7499 66.431 47.8891 67 45 67L45 45V23Z" fill="#C7C7FF"/>
<path d="M45 23C42.1109 23 39.2501 23.569 36.581 24.6747C33.9118 25.7803 31.4865 27.4008 29.4436 29.4437C27.4008 31.4865 25.7803 33.9118 24.6746 36.581C23.569 39.2501 23 42.1109 23 45C23 47.8891 23.569 50.7499 24.6747 53.419C25.7803 56.0882 27.4008 58.5135 29.4437 60.5564C31.4865 62.5992 33.9118 64.2197 36.581 65.3254C39.2501 66.431 42.1109 67 45 67L45 45V23Z" fill="#F9F9FD"/>
<path d="M45 29.16V32.68" stroke="#3D44E7" stroke-width="2" stroke-linecap="round"/>
<path d="M45 57.32V60.84" stroke="#3D44E7" stroke-width="2" stroke-linecap="round"/>
<path d="M32.6802 45H29.1602" stroke="#3D44E7" stroke-width="2" stroke-linecap="round"/>
<path d="M60.8398 45H57.3198" stroke="#3D44E7" stroke-width="2" stroke-linecap="round"/>
<path d="M66 45C66 56.598 56.598 66 45 66C33.402 66 24 56.598 24 45C24 33.402 33.402 24 45 24C56.598 24 66 33.402 66 45Z" stroke="#3D44E7" stroke-width="2"/>
<path d="M45 36.64V45L52.92 52.92" stroke="#3D44E7" stroke-width="2" stroke-linecap="round"/>
<circle cx="34.0002" cy="34" r="1.32" fill="#3D44E7"/>
<circle cx="56.0002" cy="34" r="1.32" fill="#3D44E7"/>
<circle cx="56.0002" cy="56" r="1.32" fill="#3D44E7"/>
<circle cx="34.0002" cy="56" r="1.32" fill="#3D44E7"/>
<defs>
<filter id="filter0_d" x="0" y="0" width="90" height="90" filterUnits="userSpaceOnUse" color-interpolation-filters="sRGB">
<feFlood flood-opacity="0" result="BackgroundImageFix"/>
<feColorMatrix in="SourceAlpha" type="matrix" values="0 0 0 0 0 0 0 0 0 0 0 0 0 0 0 0 0 0 127 0"/>
<feOffset/>
<feGaussianBlur stdDeviation="5"/>
<feColorMatrix type="matrix" values="0 0 0 0 0.852535 0 0 0 0 0.852535 0 0 0 0 0.895833 0 0 0 1 0"/>
<feBlend mode="normal" in2="BackgroundImageFix" result="effect1_dropShadow"/>
<feBlend mode="normal" in="SourceGraphic" in2="effect1_dropShadow" result="shape"/>
</filter>
</defs>
</svg>
