<svg width="45" height="53" viewBox="0 0 45 53" fill="none" xmlns="http://www.w3.org/2000/svg">
<path d="M3 37.6935V26.7467C3.79706 26.0643 5.79921 25.2302 6.70066 24.8985C8.97798 24.2161 11.9195 24.5194 13.1056 24.7563C15.7246 25.0975 19.9851 27.4575 21.7879 28.5948C24.8623 30.642 28.1929 32.5755 29.4739 33.2863C35.7366 36.812 40.2438 37.7882 41.7146 37.8356L34.3132 42.2428C33.63 42.2428 30.0433 41.8637 28.3353 41.6741C25.147 41.3329 20.7442 38.8782 18.9413 37.6935C16.3224 36.2149 12.9159 35.8453 11.54 35.8453C7.55465 35.7316 4.18611 37.03 3 37.6935Z" fill="#EDBA8D" stroke="#EDBA8D"/>
<path d="M3.14307 26.4622V15.2311C5.87586 14.2075 7.98239 13.8568 8.69405 13.8094C11.6546 13.2408 15.9056 13.762 17.661 14.0937C22.2157 15.2311 25.6317 18.5009 25.9163 18.6431C26.1441 18.7568 29.9017 21.7233 31.752 23.1924C37.7869 27.8554 41.0985 29.6498 42 29.9642V37.6933C41.6584 37.6933 39.9599 37.3142 39.1533 37.1247C32.8907 35.1912 27.7192 32.1489 25.9163 30.8694C21.2478 28.026 19.0369 26.7465 18.515 26.4622C16.9494 25.6566 13.021 24.0738 9.83271 24.1875C6.64446 24.3013 4.04451 25.7514 3.14307 26.4622Z" fill="#EB5F2E" stroke="#EB5F2E"/>
<path d="M1.5 37.6934V38.5581L2.24836 38.9915L21.8903 50.3648L22.6475 50.8032L23.4018 50.36L42.7591 38.9867L43.4992 38.5518V37.6934V15.089V14.2196L42.7448 13.7874L23.3876 2.69844L22.6474 2.27441L21.9045 2.69379L2.26257 13.7827L1.5 14.2133V15.089V37.6934Z" stroke="black" stroke-width="3"/>
<path d="M31.609 12.53C28.5262 9.45077 21.1238 7.3646 17.8027 6.84332L22.6421 4L41.857 15.089V21.7708C41.2877 21.6286 35.5944 16.5106 31.609 12.53Z" fill="#861044" stroke="#861044"/>
<path d="M24.7769 17.3636C16.5786 11.1083 6.46344 13.5251 3.28467 15.0889L17.6603 6.98547C21.8734 7.7816 23.7806 8.31236 24.2076 8.5493C27.1681 9.2317 29.7112 11.0135 30.6126 11.8191C31.8651 13.1839 38.6307 19.2118 41.8569 22.0551V29.7321C40.035 28.8222 38.1562 27.5522 37.4446 27.0309C34.9395 25.5524 27.9557 19.97 24.7769 17.3636Z" fill="#BA3838" stroke="#BA3838"/>
<path d="M9.34562 36.0322C7.63502 36.0322 5.06912 37.1723 4 37.7423L22.3088 49L33 42.3024C32.6793 42.3024 30.4608 42.1123 29.3917 42.0173C25.2221 41.7893 21.1505 39.4523 19.6359 38.3123C17.2839 36.1462 11.7957 35.8897 9.34562 36.0322Z" fill="#F8DDBF" stroke="#F8DDBF"/>
<path d="M26.9563 14H17.2549C16.6119 14.0006 15.9954 14.2397 15.5407 14.6647C15.086 15.0897 14.8303 15.666 14.8296 16.267V35.1588C14.8303 35.7599 15.086 36.3361 15.5407 36.7611C15.9954 37.1862 16.6119 37.4252 17.2549 37.4258H26.9563C27.5994 37.4252 28.2159 37.1862 28.6706 36.7611C29.1253 36.3361 29.381 35.7599 29.3817 35.1588V16.267C29.381 15.666 29.1253 15.0897 28.6706 14.6647C28.2159 14.2397 27.5994 14.0006 26.9563 14ZM24.4173 14.7557L24.2152 15.5113H19.9961L19.794 14.7557H24.4173ZM28.5732 35.1588C28.5728 35.5595 28.4024 35.9437 28.0992 36.2271C27.7961 36.5104 27.385 36.6698 26.9563 36.6702H17.2549C16.8262 36.6698 16.4152 36.5104 16.1121 36.2271C15.8089 35.9437 15.6384 35.5595 15.638 35.1588V16.267C15.6384 15.8663 15.8089 15.4821 16.1121 15.1987C16.4152 14.9154 16.8262 14.756 17.2549 14.7557H18.9603L19.2882 15.9808C19.31 16.0625 19.3605 16.1351 19.4316 16.187C19.5026 16.2388 19.5901 16.267 19.6803 16.267H24.531C24.6211 16.267 24.7087 16.2388 24.7797 16.187C24.8508 16.1351 24.9012 16.0625 24.9231 15.9808L25.251 14.7557H26.9563C27.385 14.756 27.7961 14.9154 28.0992 15.1987C28.4024 15.4821 28.5728 15.8663 28.5732 16.267V35.1588Z" fill="black"/>
<path d="M24.1267 35.5366H20.0844C19.9772 35.5366 19.8744 35.5764 19.7986 35.6473C19.7228 35.7181 19.6802 35.8143 19.6802 35.9145C19.6802 36.0147 19.7228 36.1108 19.7986 36.1816C19.8744 36.2525 19.9772 36.2923 20.0844 36.2923H24.1267C24.2339 36.2923 24.3367 36.2525 24.4125 36.1816C24.4883 36.1108 24.5309 36.0147 24.5309 35.9145C24.5309 35.8143 24.4883 35.7181 24.4125 35.6473C24.3367 35.5764 24.2339 35.5366 24.1267 35.5366Z" fill="black"/>
<path d="M13.6169 20.801C13.5097 20.801 13.4068 20.8408 13.331 20.9117C13.2552 20.9825 13.2126 21.0787 13.2126 21.1789V30.2469C13.2126 30.3471 13.2552 30.4432 13.331 30.5141C13.4068 30.585 13.5097 30.6248 13.6169 30.6248C13.7241 30.6248 13.8269 30.585 13.9027 30.5141C13.9785 30.4432 14.0211 30.3471 14.0211 30.2469V21.1789C14.0211 21.0787 13.9785 20.9825 13.9027 20.9117C13.8269 20.8408 13.7241 20.801 13.6169 20.801Z" fill="black"/>
<path d="M12.4042 23.4459C12.297 23.4459 12.1942 23.4857 12.1184 23.5566C12.0426 23.6274 12 23.7236 12 23.8238V27.6021C12 27.7023 12.0426 27.7984 12.1184 27.8693C12.1942 27.9402 12.297 27.98 12.4042 27.98C12.5114 27.98 12.6142 27.9402 12.69 27.8693C12.7659 27.7984 12.8084 27.7023 12.8084 27.6021V23.8238C12.8084 23.7236 12.7659 23.6274 12.69 23.5566C12.6142 23.4857 12.5114 23.4459 12.4042 23.4459Z" fill="black"/>
<path d="M30.5944 20.801C30.4872 20.801 30.3844 20.8408 30.3086 20.9117C30.2328 20.9825 30.1902 21.0787 30.1902 21.1789V30.2469C30.1902 30.3471 30.2328 30.4432 30.3086 30.5141C30.3844 30.585 30.4872 30.6248 30.5944 30.6248C30.7016 30.6248 30.8044 30.585 30.8802 30.5141C30.956 30.4432 30.9986 30.3471 30.9986 30.2469V21.1789C30.9986 21.0787 30.956 20.9825 30.8802 20.9117C30.8044 20.8408 30.7016 20.801 30.5944 20.801Z" fill="black"/>
<path d="M31.8071 23.4459C31.6998 23.4459 31.597 23.4857 31.5212 23.5566C31.4454 23.6274 31.4028 23.7236 31.4028 23.8238V27.6021C31.4028 27.7023 31.4454 27.7984 31.5212 27.8693C31.597 27.9402 31.6998 27.98 31.8071 27.98C31.9143 27.98 32.0171 27.9402 32.0929 27.8693C32.1687 27.7984 32.2113 27.7023 32.2113 27.6021V23.8238C32.2113 23.7236 32.1687 23.6274 32.0929 23.5566C32.0171 23.4857 31.9143 23.4459 31.8071 23.4459Z" fill="black"/>
</svg>
