<svg width="90" height="90" viewBox="0 0 90 90" fill="none" xmlns="http://www.w3.org/2000/svg">
<g filter="url(#filter0_d)">
<circle cx="45" cy="45" r="35" fill="#F9F9FD"/>
</g>
<rect x="23" y="38.8113" width="43.5464" height="26.0423" rx="4" fill="#C7C7FF"/>
<path d="M24.3608 40.6716H65.1856" stroke="#F9F9FD" stroke-width="2"/>
<path d="M31.7114 53.6926C31.7114 53.1403 31.2637 52.6926 30.7114 52.6926C30.1591 52.6926 29.7114 53.1403 29.7114 53.6926H31.7114ZM31.7114 64.3886V53.6926H29.7114V64.3886H31.7114Z" fill="#3D44E7"/>
<rect x="23" y="38.8113" width="43.5464" height="26.0423" rx="4" stroke="#3D44E7" stroke-width="2"/>
<path d="M23 42.0667H67" stroke="#3D44E7" stroke-width="2"/>
<ellipse cx="48.9369" cy="53.9789" rx="12.701" ry="13.0212" fill="#F9F9FD"/>
<ellipse cx="48.9369" cy="53.9789" rx="12.701" ry="13.0212" stroke="#3D44E7" stroke-width="2"/>
<ellipse cx="48.9369" cy="53.9787" rx="7.25773" ry="7.44066" fill="#A2A2FF"/>
<ellipse cx="48.9369" cy="53.9787" rx="7.25773" ry="7.44066" stroke="#3D44E7" stroke-width="2"/>
<ellipse cx="28.8969" cy="47.6472" rx="2.26804" ry="2.32521" fill="#F9F9FD"/>
<ellipse cx="28.8969" cy="47.6472" rx="2.26804" ry="2.32521" stroke="#3D44E7" stroke-width="2"/>
<path d="M35.7011 35.0911H29.3506V37.8813H35.7011V35.0911Z" fill="#C7C7FF"/>
<path d="M35.7011 39.7415V37.0911C35.7011 35.9865 34.8057 35.0911 33.7011 35.0911H31.3506C30.246 35.0911 29.3506 35.9865 29.3506 37.0911V39.7415" stroke="#3D44E7" stroke-width="2" stroke-linejoin="round"/>
<path d="M56.9807 25.7994C57.2872 24.8934 58.5686 24.8934 58.8751 25.7994L59.7656 28.431L62.4412 29.5137C63.2744 29.8508 63.2744 31.0305 62.4412 31.3677L59.7656 32.4503L58.8751 35.082C58.5686 35.988 57.2872 35.988 56.9807 35.082L56.0902 32.4503L53.4146 31.3677C52.5814 31.0305 52.5814 29.8508 53.4146 29.5137L56.0902 28.431L56.9807 25.7994Z" fill="#F9F9FD"/>
<path d="M56.9807 25.7994C57.2872 24.8934 58.5686 24.8934 58.8751 25.7994L59.7656 28.431L62.4412 29.5137C63.2744 29.8508 63.2744 31.0305 62.4412 31.3677L59.7656 32.4503L58.8751 35.082C58.5686 35.988 57.2872 35.988 56.9807 35.082L56.0902 32.4503L53.4146 31.3677C52.5814 31.0305 52.5814 29.8508 53.4146 29.5137L56.0902 28.431L56.9807 25.7994Z" stroke="#3D44E7" stroke-width="2" stroke-linecap="round" stroke-linejoin="round"/>
<defs>
<filter id="filter0_d" x="0" y="0" width="90" height="90" filterUnits="userSpaceOnUse" color-interpolation-filters="sRGB">
<feFlood flood-opacity="0" result="BackgroundImageFix"/>
<feColorMatrix in="SourceAlpha" type="matrix" values="0 0 0 0 0 0 0 0 0 0 0 0 0 0 0 0 0 0 127 0"/>
<feOffset/>
<feGaussianBlur stdDeviation="5"/>
<feColorMatrix type="matrix" values="0 0 0 0 0.852535 0 0 0 0 0.852535 0 0 0 0 0.895833 0 0 0 1 0"/>
<feBlend mode="normal" in2="BackgroundImageFix" result="effect1_dropShadow"/>
<feBlend mode="normal" in="SourceGraphic" in2="effect1_dropShadow" result="shape"/>
</filter>
</defs>
</svg>
