<svg width="70" height="70" viewBox="0 0 70 70" fill="none" xmlns="http://www.w3.org/2000/svg">
<path d="M35.0215 68.5217C53.523 68.5217 68.5215 53.5233 68.5215 35.0217C68.5215 16.5202 53.523 1.52173 35.0215 1.52173C16.5199 1.52173 1.52148 16.5202 1.52148 35.0217C1.52148 53.5233 16.5199 68.5217 35.0215 68.5217Z" fill="#C7C7FF"/>
<path d="M47.56 43.1154C44.3887 46.6626 39.8113 48.6956 34.9995 48.6956C30.2015 48.6956 25.6211 46.661 22.4361 43.1139C21.8745 42.4884 20.9128 42.4352 20.2874 42.9982C19.6619 43.5597 19.6102 44.5215 20.1717 45.1469C23.9335 49.3363 29.3387 51.7391 34.9995 51.7391C40.6756 51.7391 46.0809 49.3347 49.8304 45.1454C50.3904 44.5184 50.3372 43.5582 49.7102 42.9967C49.0817 42.4352 48.12 42.4884 47.56 43.1154Z" fill="#3D44E7"/>
<path d="M35 0C15.7013 0 0 15.7013 0 35C0 54.2987 15.7013 70 35 70C54.2987 70 70 54.2987 70 35C70 15.7013 54.2987 0 35 0ZM35 66.9565C17.3783 66.9565 3.04348 52.6217 3.04348 35C3.04348 17.3783 17.3783 3.04348 35 3.04348C52.6217 3.04348 66.9565 17.3783 66.9565 35C66.9565 52.6217 52.6217 66.9565 35 66.9565Z" fill="#3D44E7"/>
<path d="M47.1741 24.3478C42.9787 24.3478 39.5654 27.761 39.5654 31.9565C39.5654 32.7965 40.2472 33.4782 41.0872 33.4782C41.9272 33.4782 42.6089 32.7965 42.6089 31.9565C42.6089 29.4395 44.6572 27.3913 47.1741 27.3913C49.6911 27.3913 51.7393 29.4395 51.7393 31.9565C51.7393 32.7965 52.4211 33.4782 53.2611 33.4782C54.1011 33.4782 54.7828 32.7965 54.7828 31.9565C54.7828 27.761 51.3696 24.3478 47.1741 24.3478Z" fill="#3D44E7"/>
<path d="M27.3917 31.9565C27.3917 32.7965 28.0734 33.4782 28.9134 33.4782C29.7534 33.4782 30.4352 32.7965 30.4352 31.9565C30.4352 27.761 27.0219 24.3478 22.8265 24.3478C18.631 24.3478 15.2178 27.761 15.2178 31.9565C15.2178 32.7965 15.8995 33.4782 16.7395 33.4782C17.5795 33.4782 18.2613 32.7965 18.2613 31.9565C18.2613 29.4395 20.3095 27.3913 22.8265 27.3913C25.3434 27.3913 27.3917 29.4395 27.3917 31.9565Z" fill="#3D44E7"/>
</svg>
