<svg width="23" height="24" viewBox="0 0 23 24" fill="none" xmlns="http://www.w3.org/2000/svg">
<path d="M11.5029 0.432617H11.4971C5.15631 0.432617 0 5.59037 0 11.9326C0 14.4482 0.81075 16.7799 2.18931 18.6731L0.756125 22.9453L5.17644 21.5322C6.99487 22.7369 9.16406 23.4326 11.5029 23.4326C17.8437 23.4326 23 18.2734 23 11.9326C23 5.5918 17.8437 0.432617 11.5029 0.432617Z" fill="#4CAF50"/>
<path d="M18.1938 16.672C17.9164 17.4554 16.8153 18.1052 15.937 18.2949C15.3361 18.4229 14.5512 18.5249 11.9091 17.4296C8.52951 16.0294 6.35313 12.5953 6.1835 12.3724C6.02106 12.1496 4.81787 10.554 4.81787 8.90376C4.81787 7.25351 5.65594 6.44995 5.99375 6.10495C6.27119 5.82176 6.72975 5.69238 7.16963 5.69238C7.31194 5.69238 7.43988 5.69957 7.55488 5.70532C7.89269 5.7197 8.06232 5.73982 8.28513 6.27313C8.56257 6.94157 9.2382 8.59182 9.3187 8.76145C9.40063 8.93107 9.48257 9.16107 9.36757 9.38388C9.25976 9.61388 9.16488 9.71594 8.99526 9.91144C8.82563 10.1069 8.66463 10.2564 8.49501 10.4663C8.33976 10.6489 8.16438 10.8444 8.35988 11.1822C8.55538 11.5128 9.23101 12.6154 10.2258 13.5009C11.5095 14.6437 12.5502 15.0088 12.9225 15.1641C13.2 15.2791 13.5306 15.2518 13.7333 15.0361C13.9906 14.7587 14.3083 14.2987 14.6317 13.8459C14.8617 13.521 15.1521 13.4808 15.4568 13.5958C15.7673 13.7036 17.4104 14.5158 17.7482 14.6839C18.086 14.8536 18.3088 14.9341 18.3908 15.0764C18.4713 15.2187 18.4713 15.8871 18.1938 16.672Z" fill="#FAFAFA"/>
</svg>
