<svg width="90" height="90" viewBox="0 0 90 90" fill="none" xmlns="http://www.w3.org/2000/svg">
<g filter="url(#filter0_d)">
<circle cx="45" cy="45" r="35" fill="#F9F9FD"/>
</g>
<path d="M64.7997 63.3334H25.2001C24.39 63.3334 23.7334 63.99 23.7334 64.8C23.7334 65.6101 24.39 66.2667 25.2001 66.2667H64.7997C65.6097 66.2667 66.2664 65.6101 66.2664 64.8C66.2664 63.99 65.6097 63.3334 64.7997 63.3334Z" fill="#C7C7FF"/>
<path d="M64.7996 63.3334H62.5996C63.4096 63.3334 64.0663 63.99 64.0663 64.8C64.0663 65.6101 63.4096 66.2667 62.5996 66.2667H64.7996C65.6096 66.2667 66.2662 65.6101 66.2662 64.8C66.2662 63.99 65.6096 63.3334 64.7996 63.3334Z" fill="#A2A2FF"/>
<path d="M64.7997 56H25.2001C24.39 56 23.7334 56.6567 23.7334 57.4667C23.7334 58.2767 24.39 58.9333 25.2001 58.9333H64.7997C65.6097 58.9333 66.2664 58.2767 66.2664 57.4667C66.2664 56.6567 65.6097 56 64.7997 56Z" fill="#C7C7FF"/>
<path d="M64.7996 56H62.5996C63.4096 56 64.0663 56.6567 64.0663 57.4667C64.0663 58.2767 63.4096 58.9333 62.5996 58.9333H64.7996C65.6096 58.9333 66.2662 58.2767 66.2662 57.4667C66.2662 56.6567 65.6096 56 64.7996 56Z" fill="#A2A2FF"/>
<path d="M64.7999 58.9333L61.8666 63.3334H25.2002L28.1335 58.9333H64.7999Z" fill="#A2A2FF"/>
<path d="M62.5998 58.9333L59.6665 63.3334H61.8665L64.7998 58.9333H62.5998Z" fill="#A2A2FF"/>
<path d="M52.3335 36.9332C52.3335 40.9833 49.0503 44.2666 45.0003 44.2666C40.9502 44.2666 37.667 40.9833 37.667 36.9332C37.667 30.3332 45.0003 23.7332 45.0003 23.7332C45.0003 23.7332 52.3335 30.3332 52.3335 36.9332Z" fill="#A2A2FF"/>
<path d="M50.1333 36.9332C50.1333 40.9834 47.835 44.2666 45 44.2666C42.1649 44.2666 39.8667 40.9834 39.8667 36.9332C39.8667 30.3332 45 23.7332 45 23.7332C45 23.7332 50.1333 30.3332 50.1333 36.9332Z" fill="#C7C7FF"/>
<path d="M34.0002 39.0284C34.0287 41.8922 31.7308 44.2372 28.867 44.2666C26.0032 44.2372 23.7052 41.8922 23.7337 39.0284C23.7337 34.3145 28.867 29.5999 28.867 29.5999C28.867 29.5999 34.0002 34.3145 34.0002 39.0284Z" fill="#A2A2FF"/>
<path d="M31.8002 39.0284C31.8002 41.9199 30.4868 44.2666 28.8669 44.2666C27.247 44.2666 25.9336 41.9199 25.9336 39.0284C25.9336 34.3145 28.8669 29.5999 28.8669 29.5999C28.8669 29.5999 31.8002 34.3145 31.8002 39.0284Z" fill="#C7C7FF"/>
<path d="M66.2666 39.0284C66.2666 41.8634 63.9683 44.1617 61.1333 44.1617C58.2983 44.1617 56 41.8634 56 39.0284C56 34.3145 61.1333 29.5999 61.1333 29.5999C61.1333 29.5999 66.2666 34.3145 66.2666 39.0284Z" fill="#A2A2FF"/>
<path d="M64.0668 39.0284C64.0668 41.9199 62.7534 44.2666 61.1335 44.2666C59.5136 44.2666 58.2002 41.9199 58.2002 39.0284C58.2002 34.3145 61.1335 29.5999 61.1335 29.5999C61.1335 29.5999 64.0668 34.3145 64.0668 39.0284Z" fill="#C7C7FF"/>
<path d="M48.6668 51.6H46.4668V56H43.5335V51.6H41.3335L45.0001 47.2L48.6668 51.6Z" fill="#F9F9FD"/>
<path d="M61.8665 51.6H59.6665V56H56.7332V51.6H54.5332L58.1998 47.2L61.8665 51.6Z" fill="#C7C7FF"/>
<path d="M35.4666 51.6H33.2666V56H30.3333V51.6H28.1333L31.7999 47.2L35.4666 51.6Z" fill="#C7C7FF"/>
<path d="M28.867 44.2666C29.2371 44.2658 29.6059 44.2242 29.9669 44.1427C27.5923 43.5904 25.9172 41.4664 25.9336 39.0284C25.9336 35.7188 28.4592 32.4159 29.9669 30.7373C29.3275 30.0252 28.867 29.5999 28.867 29.5999C28.867 29.5999 23.7337 34.3145 23.7337 39.0284C23.7052 41.8922 26.0032 44.2372 28.867 44.2666Z" fill="#F9F9FD"/>
<path d="M25.2001 63.3334C24.39 63.3334 23.7334 63.99 23.7334 64.8C23.7334 65.6101 24.39 66.2667 25.2001 66.2667H27.4C26.59 66.2667 25.9334 65.6101 25.9334 64.8C25.9334 63.99 26.59 63.3334 27.4 63.3334H25.2001Z" fill="#F9F9FD"/>
<path d="M25.2001 58.9333H27.4C26.59 58.9333 25.9334 58.2767 25.9334 57.4667C25.9334 56.6567 26.59 56 27.4 56H25.2001C24.39 56 23.7334 56.6567 23.7334 57.4667C23.7334 58.2767 24.39 58.9333 25.2001 58.9333Z" fill="#F9F9FD"/>
<path d="M25.002 33.1617L26.2413 33.9457C25.1992 35.4474 24.5857 37.2045 24.4667 39.0284H23C23.1156 36.9261 23.8083 34.8962 25.002 33.1617Z" fill="#F9F9FD"/>
<path d="M23 64.8001C23 66.0151 23.985 67.0001 25.2 67.0001H64.7997C66.0147 67.0001 66.9996 66.0151 66.9996 64.8001C66.9996 63.585 66.0147 62.6001 64.7997 62.6001H63.2362L65.2206 59.6242C66.3282 59.4032 67.0886 58.3794 66.98 57.2551C66.8714 56.1309 65.9291 55.2716 64.7997 55.2667H60.3997V52.3333H61.8663C62.1508 52.3332 62.4095 52.1686 62.5302 51.911C62.6508 51.6534 62.6116 51.3492 62.4295 51.1307L58.7629 46.7307C58.6192 46.5709 58.4145 46.4797 58.1997 46.4797C57.9849 46.4797 57.7802 46.5709 57.6365 46.7307L53.9699 51.1307C53.7878 51.3492 53.7486 51.6534 53.8692 51.911C53.9899 52.1686 54.2486 52.3332 54.5331 52.3333H55.9997V55.2667H47.1998V52.3333H48.6665C48.9509 52.3332 49.2097 52.1686 49.3303 51.911C49.4509 51.6534 49.4117 51.3492 49.2296 51.1307L45.563 46.7307C45.4193 46.5709 45.2146 46.4797 44.9998 46.4797C44.785 46.4797 44.5803 46.5709 44.4366 46.7307L40.77 51.1307C40.5879 51.3492 40.5487 51.6534 40.6693 51.911C40.79 52.1686 41.0487 52.3332 41.3332 52.3333H42.7998V55.2667H33.9999V52.3333H35.4666C35.751 52.3332 36.0098 52.1686 36.1304 51.911C36.251 51.6534 36.2118 51.3492 36.0298 51.1307L32.3631 46.7307C32.2195 46.5709 32.0147 46.4797 31.7999 46.4797C31.5851 46.4797 31.3804 46.5709 31.2367 46.7307L27.5701 51.1307C27.388 51.3492 27.3488 51.6534 27.4695 51.911C27.5901 52.1686 27.8488 52.3332 28.1333 52.3333H29.5999V55.2667H25.2C23.985 55.2667 23 56.2517 23 57.4667C23 58.6817 23.985 59.6667 25.2 59.6667H26.7634L24.7791 62.6426C23.7465 62.8439 23.0009 63.748 23 64.8001V64.8001ZM65.533 64.8001C65.533 65.2051 65.2047 65.5334 64.7997 65.5334H25.2C24.795 65.5334 24.4667 65.2051 24.4667 64.8001C24.4667 64.3951 24.795 64.0667 25.2 64.0667H64.7997C65.2047 64.0667 65.533 64.3951 65.533 64.8001ZM34.0967 59.6667L32.1409 62.6001H30.2343L32.1901 59.6667H34.0967ZM55.9029 62.6001L57.8587 59.6667H59.7654L57.8096 62.6001H55.9029ZM54.1429 62.6001H52.2363L54.1921 59.6667H56.0987L54.1429 62.6001ZM50.4763 62.6001H48.5697L50.5254 59.6667H52.4321L50.4763 62.6001ZM46.8097 62.6001H44.903L46.8588 59.6667H48.7655L46.8097 62.6001ZM43.143 62.6001H41.2364L43.1922 59.6667H45.0988L43.143 62.6001ZM39.4764 62.6001H37.5697L39.5255 59.6667H41.4322L39.4764 62.6001ZM35.8098 62.6001H33.9031L35.8589 59.6667H37.7655L35.8098 62.6001ZM59.5696 62.6001L61.5253 59.6667H63.432L61.4762 62.6001H59.5696ZM56.7331 50.8667H56.0987L58.1997 48.3455L60.3007 50.8667H59.6664C59.2614 50.8667 58.933 51.195 58.933 51.6V55.2667H57.4664V51.6C57.4664 51.195 57.1381 50.8667 56.7331 50.8667ZM43.5332 50.8667H42.8988L44.9998 48.3455L47.1008 50.8667H46.4665C46.0615 50.8667 45.7331 51.195 45.7331 51.6V55.2667H44.2665V51.6C44.2665 51.195 43.9382 50.8667 43.5332 50.8667ZM30.3333 50.8667H29.6989L31.7999 48.3455L33.9009 50.8667H33.2666C32.8616 50.8667 32.5333 51.195 32.5333 51.6V55.2667H31.0666V51.6C31.0666 51.195 30.7383 50.8667 30.3333 50.8667ZM24.4667 57.4667C24.4667 57.0617 24.795 56.7334 25.2 56.7334H64.7997C65.2047 56.7334 65.533 57.0617 65.533 57.4667C65.533 57.8717 65.2047 58.2 64.7997 58.2H25.2C24.795 58.2 24.4667 57.8717 24.4667 57.4667ZM30.4301 59.6667L28.4743 62.6001H26.5676L28.5234 59.6667H30.4301Z" fill="#3D44E7"/>
<path d="M45.0002 44.9999C49.4531 44.9946 53.0615 41.3861 53.0668 36.9332C53.0668 30.0853 45.8003 23.4662 45.4908 23.1883C45.2119 22.9372 44.7885 22.9372 44.5096 23.1883C44.2001 23.4662 36.9336 30.0853 36.9336 36.9332C36.9388 41.3861 40.5473 44.9946 45.0002 44.9999ZM45.0002 24.7488C46.6069 26.3387 51.6001 31.703 51.6001 36.9332C51.6001 40.5783 48.6452 43.5332 45.0002 43.5332C41.3551 43.5332 38.4002 40.5783 38.4002 36.9332C38.4002 31.7104 43.3949 26.3402 45.0002 24.7488Z" fill="#3D44E7"/>
<path d="M45 42.0666C45.405 42.0666 45.7333 41.7383 45.7333 41.3333C45.7333 40.9283 45.405 40.6 45 40.6C42.976 40.5975 41.3358 38.9573 41.3334 36.9333C41.3334 36.5283 41.005 36.2 40.6 36.2C40.195 36.2 39.8667 36.5283 39.8667 36.9333C39.8699 39.767 42.1663 42.0634 45 42.0666Z" fill="#3D44E7"/>
<path d="M28.8668 44.9999C32.1341 44.9669 34.7582 42.2957 34.7334 39.0284C34.7334 34.049 29.5825 29.261 29.3625 29.0601C29.0827 28.8052 28.654 28.8081 28.3777 29.0667L28.3711 29.0594C28.3564 29.0733 28.3432 29.088 28.3293 29.1019C27.064 30.3192 25.9472 31.6819 25.0022 33.1617C24.8916 33.3267 24.8547 33.5304 24.9004 33.7237C24.946 33.9171 25.07 34.0828 25.2427 34.181C25.5858 34.3766 26.0218 34.2738 26.2415 33.9456C27.0032 32.7562 27.8854 31.6484 28.8741 30.6397C30.1208 31.9304 33.2668 35.5296 33.2668 39.0284C33.2928 41.4862 31.3246 43.5014 28.8668 43.5332C26.409 43.5014 24.4407 41.4862 24.4668 39.0284C24.4668 38.6233 24.1385 38.295 23.7335 38.295C23.3285 38.295 23.0002 38.6233 23.0002 39.0284C22.9753 42.2957 25.5995 44.9669 28.8668 44.9999Z" fill="#3D44E7"/>
<path d="M29.6002 41.3333C29.6002 40.9282 29.2718 40.5999 28.8668 40.5999C28.0286 40.5693 27.373 39.8667 27.4002 39.0284C27.4002 38.6234 27.0718 38.295 26.6668 38.295C26.2618 38.295 25.9335 38.6234 25.9335 39.0284C25.9065 40.6766 27.2187 42.0357 28.8668 42.0666C29.0613 42.0666 29.2478 41.9893 29.3854 41.8518C29.5229 41.7143 29.6002 41.5277 29.6002 41.3333Z" fill="#3D44E7"/>
<path d="M61.1334 44.9999C64.4007 44.9669 67.0248 42.2957 67 39.0284C67 34.049 61.8491 29.2611 61.6291 29.0601C61.3487 28.8029 60.9181 28.8029 60.6377 29.0601C60.4177 29.2611 55.2668 34.0468 55.2668 39.0284C55.2419 42.2957 57.8661 44.9669 61.1334 44.9999ZM61.1334 30.6324C62.38 31.9194 65.5334 35.526 65.5334 39.0284C65.5334 41.4584 63.5634 43.4284 61.1334 43.4284C58.7034 43.4284 56.7334 41.4584 56.7334 39.0284C56.7334 35.5333 59.8867 31.9209 61.1334 30.6324Z" fill="#3D44E7"/>
<path d="M61.1329 42.0666C61.5379 42.0666 61.8663 41.7383 61.8663 41.3333C61.8663 40.9282 61.5379 40.5999 61.1329 40.5999C60.2947 40.5693 59.6391 39.8667 59.6663 39.0284C59.6663 38.6234 59.338 38.295 58.933 38.295C58.5279 38.295 58.1996 38.6234 58.1996 39.0284C58.1727 40.6766 59.4848 42.0357 61.1329 42.0666Z" fill="#3D44E7"/>
<defs>
<filter id="filter0_d" x="0" y="0" width="90" height="90" filterUnits="userSpaceOnUse" color-interpolation-filters="sRGB">
<feFlood flood-opacity="0" result="BackgroundImageFix"/>
<feColorMatrix in="SourceAlpha" type="matrix" values="0 0 0 0 0 0 0 0 0 0 0 0 0 0 0 0 0 0 127 0"/>
<feOffset/>
<feGaussianBlur stdDeviation="5"/>
<feColorMatrix type="matrix" values="0 0 0 0 0.852535 0 0 0 0 0.852535 0 0 0 0 0.895833 0 0 0 1 0"/>
<feBlend mode="normal" in2="BackgroundImageFix" result="effect1_dropShadow"/>
<feBlend mode="normal" in="SourceGraphic" in2="effect1_dropShadow" result="shape"/>
</filter>
</defs>
</svg>
