<svg width="20" height="18" viewBox="0 0 20 18" fill="none" xmlns="http://www.w3.org/2000/svg">
<path d="M5.31785 18C4.16099 18.0025 3.05108 17.5427 2.23495 16.7228L1.27683 15.7647C-0.425585 14.0623 -0.425623 11.3022 1.27679 9.59978L1.27683 9.59974L9.11993 1.75664C9.27691 1.59414 9.53586 1.58962 9.6984 1.74659C9.8609 1.90357 9.86542 2.16252 9.70845 2.32506C9.70515 2.32847 9.70181 2.33181 9.6984 2.33511L1.8553 10.1774C0.472701 11.5605 0.472701 13.8023 1.8553 15.1854L2.81422 16.1444C4.19731 17.527 6.43919 17.527 7.82229 16.1444L18.07 5.89665C19.0669 4.89922 19.0669 3.28264 18.07 2.28521L17.3508 1.56603C16.3396 0.60293 14.7505 0.60293 13.7394 1.56603L4.54954 10.7558C3.93794 11.3673 3.93786 12.3588 4.54939 12.9704C4.54943 12.9705 4.5495 12.9706 4.54954 12.9706L5.02898 13.45C5.65213 14.0331 6.62064 14.0331 7.24378 13.45L14.0289 6.66488C14.1859 6.50238 14.4449 6.49786 14.6074 6.65483C14.7699 6.81181 14.7744 7.07076 14.6175 7.2333C14.6142 7.23671 14.6108 7.24005 14.6074 7.24335L7.82229 14.0285C6.87391 14.9169 5.39893 14.9169 4.45055 14.0285L3.97111 13.5491C3.04004 12.618 3.04004 11.1084 3.97111 10.1774L13.1609 0.987565C14.4777 -0.329182 16.6125 -0.329182 17.9292 0.987526C17.9292 0.987526 17.9292 0.987526 17.9293 0.987565L18.6485 1.70675C19.9652 3.02349 19.9652 5.15833 18.6485 6.47508C18.6485 6.47508 18.6485 6.47508 18.6485 6.47511L8.40075 16.7228C7.58462 17.5427 6.47471 18.0025 5.31785 18Z" fill="#3D86FF"/>
</svg>
