<svg width="20" height="19" viewBox="0 0 20 19" fill="none" xmlns="http://www.w3.org/2000/svg">
<path d="M10.5791 9.50077L18.8351 1.26798C19.1257 0.978124 19.1257 0.508183 18.8351 0.218367C18.5444 -0.0714498 18.0731 -0.0714869 17.7825 0.218367L9.52652 8.45116L1.27057 0.218367C0.9799 -0.0714869 0.508636 -0.0714869 0.218003 0.218367C-0.0726304 0.508221 -0.0726676 0.978161 0.218003 1.26798L8.47395 9.50074L0.218003 17.7335C-0.0726676 18.0234 -0.0726676 18.4933 0.218003 18.7831C0.363319 18.9281 0.553812 19.0005 0.744305 19.0005C0.934798 19.0005 1.12525 18.9281 1.27061 18.7831L9.52652 10.5504L17.7825 18.7831C17.9278 18.9281 18.1183 19.0005 18.3088 19.0005C18.4993 19.0005 18.6897 18.9281 18.8351 18.7831C19.1257 18.4933 19.1257 18.0233 18.8351 17.7335L10.5791 9.50077Z" fill="black"/>
</svg>
