<svg width="26" height="22" viewBox="0 0 26 22" fill="none" xmlns="http://www.w3.org/2000/svg">
<path d="M4.03516 8.12543C7.02465 11.8692 9.84775 16.4721 11.1014 21.5339H13.8915C12.5238 15.3487 9.0545 9.86517 5.5111 5.59961L4.03516 8.12543Z" fill="#FFDE81"/>
<path style="mix-blend-mode:multiply" d="M11.937 15.6943C11.4699 17.6105 11.1901 19.5665 11.1016 21.5354L13.7833 21.0687C13.3348 19.2256 12.7168 17.4267 11.937 15.6943Z" fill="url(#paint0_linear)"/>
<path style="mix-blend-mode:multiply" d="M8.73233 15.3121C9.22355 14.3472 9.75808 13.4093 10.3279 12.5006C9.82419 11.6111 9.2908 10.7474 8.73233 9.91406C8.17957 10.7474 7.64504 11.6099 7.13672 12.5006C7.70544 13.4082 8.23997 14.3461 8.73233 15.3121Z" fill="url(#paint1_linear)"/>
<path d="M2.5017 21.5028C2.6677 21.523 2.83477 21.5336 3.00203 21.5343H5.30542C4.57029 18.2179 3.23454 15.1061 1.60701 12.2744L0 15.0207C1.08688 17.0779 1.92647 19.2533 2.5017 21.5028Z" fill="#FFDE81"/>
<path style="mix-blend-mode:multiply" d="M3.35381 15.7061C2.88949 17.6087 2.61013 19.5506 2.51953 21.5056C2.67962 21.4971 2.83908 21.4795 2.99708 21.4527L5.19333 21.0703C4.74621 19.2309 4.13051 17.4354 3.35381 15.7061Z" fill="url(#paint2_linear)"/>
<path d="M16.2031 0C11.5302 4.34541 4.61207 12.1107 2.51953 21.5044C2.67907 21.5242 2.83969 21.5344 3.00049 21.5347H5.3073C7.30865 13.4444 13.3196 6.52261 17.6186 2.41786L16.2031 0Z" fill="#FFDE81"/>
<path style="mix-blend-mode:multiply" d="M11.7794 8.88459C12.3618 8.12661 12.9545 7.40125 13.546 6.71076C12.9488 5.97078 12.347 5.26679 11.7498 4.59766C11.1606 5.27241 10.5691 5.9854 9.98438 6.73437C10.5861 7.4125 11.1856 8.13111 11.7794 8.88459Z" fill="#FFDE81"/>
<path d="M22.4718 21.5044C20.3793 12.1107 13.4589 4.34541 8.78826 0L7.375 2.41561C11.674 6.51811 17.6815 13.4366 19.684 21.5336H21.992C22.1524 21.5336 22.3126 21.5238 22.4718 21.5044Z" fill="#FFDE81"/>
<path style="mix-blend-mode:multiply" d="M22.3652 21.045C21.9185 19.2105 21.3036 17.4199 20.528 15.6953C20.0605 17.6107 19.7804 19.566 19.6914 21.5342L21.9595 21.1394C22.0962 21.1147 22.2317 21.0832 22.3652 21.045Z" fill="#FFDE81"/>
<path style="mix-blend-mode:multiply" d="M17.3121 15.2858C17.8227 14.3467 18.3709 13.4369 18.9453 12.5586C18.4472 11.6747 17.9195 10.8189 17.3725 9.99121C16.8106 10.8032 16.2658 11.6455 15.7461 12.5159C16.3 13.41 16.8266 14.3344 17.3121 15.2858Z" fill="#FFDE81"/>
<path d="M21.9941 21.5343C22.1614 21.5336 22.3285 21.523 22.4945 21.5028C23.0712 19.2541 23.9128 17.0797 25.0019 15.024L23.3937 12.2744C21.7662 15.1061 20.4304 18.219 19.6953 21.5343H21.9941Z" fill="#FFDE81"/>
<path d="M13.8962 21.5339C15.1499 16.4732 17.9695 11.8692 20.9625 8.12543L19.4808 5.59961C15.9374 9.86517 12.4715 15.3464 11.1016 21.5339H13.8962Z" fill="#FFDE81"/>
<defs>
<linearGradient id="paint0_linear" x1="326.29" y1="982.515" x2="389.392" y2="982.515" gradientUnits="userSpaceOnUse">
<stop stop-color="#DCE35B"/>
<stop offset="1" stop-color="#45B649"/>
</linearGradient>
<linearGradient id="paint1_linear" x1="271.307" y1="615.302" x2="360.374" y2="615.302" gradientUnits="userSpaceOnUse">
<stop stop-color="#DCE35B"/>
<stop offset="1" stop-color="#45B649"/>
</linearGradient>
<linearGradient id="paint2_linear" x1="115.461" y1="975.175" x2="178.215" y2="975.175" gradientUnits="userSpaceOnUse">
<stop stop-color="#DCE35B"/>
<stop offset="1" stop-color="#45B649"/>
</linearGradient>
</defs>
</svg>
