<svg width="12" height="12" viewBox="0 0 12 12" fill="none" xmlns="http://www.w3.org/2000/svg">
<path d="M10.8511 12C10.8211 12 10.7903 11.9985 10.7603 11.9963C5.04007 11.5538 0.416323 6.9315 0.00307292 1.24575C-0.0201771 0.927 0.0893229 0.61125 0.303823 0.37875C0.516823 0.14775 0.807823 0.0194998 1.12207 0.0172498L3.47332 0C3.99532 0 4.44682 0.35025 4.57282 0.852L5.06407 2.80275C5.17507 3.2445 5.01007 3.705 4.64407 3.97725L3.69982 4.68075C4.51432 6.1755 5.76682 7.434 7.27057 8.27025L8.00107 7.3035C8.27482 6.94125 8.73607 6.77775 9.17857 6.888L11.1428 7.3755C11.6476 7.5 12.0001 7.94925 12.0001 8.4675V10.8743C12.0001 11.1885 11.8726 11.4788 11.6416 11.6925C11.4278 11.8905 11.1443 12 10.8511 12Z" fill="#E3E3E3"/>
</svg>
