<svg width="26" height="26" viewBox="0 0 26 26" fill="none" xmlns="http://www.w3.org/2000/svg">
<path d="M13.3906 25.5C20.2942 25.5 25.8906 19.9036 25.8906 13C25.8906 6.09644 20.2942 0.5 13.3906 0.5C6.48707 0.5 0.890625 6.09644 0.890625 13C0.890625 19.9036 6.48707 25.5 13.3906 25.5Z" fill="#039BE5"/>
<path d="M6.60935 12.7301L18.6614 8.08324C19.2208 7.88116 19.7093 8.2197 19.5281 9.06553L19.5291 9.06449L17.4771 18.7322C17.325 19.4176 16.9177 19.5843 16.3479 19.2614L13.2229 16.9582L11.7156 18.4103C11.5489 18.577 11.4083 18.7176 11.0854 18.7176L11.3073 15.5374L17.0989 10.3051C17.351 10.0832 17.0427 9.95824 16.7104 10.1791L9.5531 14.6853L6.46768 13.7228C5.79789 13.5103 5.78331 13.053 6.60935 12.7301Z" fill="white"/>
</svg>
