<svg width="25" height="25" viewBox="0 0 25 25" fill="none" xmlns="http://www.w3.org/2000/svg">
<path d="M0.534267 24.9992C0.393274 24.9992 0.256112 24.9437 0.15439 24.8412C0.0202935 24.7062 -0.0314294 24.5101 0.0189526 24.3268L1.65129 18.3921C0.635031 16.5625 0.099219 14.4927 0.0999852 12.3916C0.102859 5.55878 5.68779 0 12.5501 0C15.8786 0.0013351 19.0061 1.29219 21.3568 3.63433C23.7071 5.97667 25.001 9.09031 25 12.4015C24.9969 19.2346 19.412 24.7937 12.5501 24.7937C12.5501 24.7937 12.5449 24.7937 12.5447 24.7937C10.5404 24.793 8.55324 24.3066 6.78393 23.3854L0.669704 24.9818C0.624878 24.9934 0.579285 24.9992 0.534267 24.9992Z" fill="#E5E5E5"/>
<path d="M0.535156 24.4685L2.22554 18.3226C1.18284 16.5239 0.634388 14.4835 0.635154 12.3931C0.637836 5.85357 5.98293 0.533203 12.551 0.533203C15.7383 0.534538 18.73 1.7697 20.9797 4.01152C23.2293 6.25334 24.4678 9.23328 24.4666 12.4026C24.4637 18.9419 19.1179 24.2631 12.551 24.2631C12.5506 24.2631 12.5512 24.2631 12.551 24.2631H12.5458C10.5516 24.2623 8.59226 23.7643 6.85187 22.8193L0.535156 24.4685ZM7.1444 20.6722L7.50626 20.8856C9.02654 21.784 10.7696 22.2591 12.5471 22.26H12.551C18.0095 22.26 22.4523 17.8374 22.4546 12.4019C22.4555 9.7677 21.4265 7.29071 19.5566 5.42749C17.6865 3.56426 15.2002 2.53757 12.5546 2.53642C7.09171 2.53642 2.64909 6.95846 2.64699 12.3938C2.64622 14.2565 3.16958 16.0703 4.16113 17.64L4.39676 18.0131L3.39601 21.6507L7.1444 20.6722Z" fill="white"/>
<path d="M0.949219 24.0521L2.58117 18.1187C1.5743 16.3823 1.045 14.4123 1.04558 12.3946C1.04807 6.08144 6.2083 0.945312 12.5486 0.945312C15.6259 0.946648 18.5142 2.13908 20.6856 4.30328C22.8575 6.46747 24.0529 9.34423 24.0518 12.4035C24.0491 18.7168 18.8887 23.8535 12.5492 23.8535C12.5486 23.8535 12.5493 23.8535 12.5492 23.8535H12.544C10.6189 23.8528 8.72721 23.3717 7.04717 22.4601L0.949219 24.0521Z" fill="#64B161"/>
<path d="M0.527344 24.4665L2.21773 18.3207C1.17503 16.5219 0.626575 14.4815 0.627342 12.3911C0.630023 5.85162 5.97511 0.53125 12.5432 0.53125C15.7305 0.532585 18.7221 1.76774 20.9719 4.00956C23.2215 6.25139 24.4599 9.23133 24.4588 12.4007C24.4559 18.94 19.1101 24.2611 12.5432 24.2611C12.5428 24.2611 12.5434 24.2611 12.5432 24.2611H12.538C10.5438 24.2603 8.58444 23.7624 6.84406 22.8173L0.527344 24.4665ZM7.13658 20.6703L7.49845 20.8837C9.01872 21.782 10.7618 22.2571 12.5393 22.2581H12.5432C18.0017 22.2581 22.4445 17.8355 22.4468 12.3999C22.4477 9.76575 21.4186 7.28876 19.5488 5.42553C17.6787 3.56231 15.1923 2.53562 12.5468 2.53447C7.0839 2.53447 2.64128 6.95651 2.63917 12.3919C2.63841 14.2545 3.16177 16.0684 4.15332 17.6381L4.38894 18.0111L3.3882 21.6487L7.13658 20.6703Z" fill="white"/>
<path fill-rule="evenodd" clip-rule="evenodd" d="M9.56503 7.43323C9.34205 6.93962 9.10719 6.92971 8.89493 6.92112C8.72137 6.91368 8.52272 6.91407 8.32445 6.91407C8.12598 6.91407 7.80339 6.98845 7.53059 7.28503C7.25761 7.58162 6.48828 8.29875 6.48828 9.75725C6.48828 11.2159 7.55531 12.6252 7.70415 12.8232C7.853 13.021 9.76388 16.1097 12.7901 17.2979C15.3051 18.2855 15.8168 18.089 16.3628 18.0396C16.9087 17.9902 18.1242 17.3225 18.3723 16.6303C18.6206 15.9382 18.6206 15.345 18.5461 15.2209C18.4715 15.0975 18.2731 15.0233 17.9754 14.8751C17.6777 14.7269 16.2139 14.0095 15.9409 13.9107C15.668 13.8118 15.4695 13.7626 15.271 14.0593C15.0724 14.3557 14.5023 15.0233 14.3285 15.2209C14.1548 15.419 13.981 15.4438 13.6833 15.2954C13.3856 15.1469 12.4267 14.8341 11.2891 13.8242C10.4041 13.0385 9.80641 12.0681 9.63265 11.7713C9.4591 11.475 9.62978 11.3285 9.76349 11.1665C10.0043 10.8749 10.4083 10.3506 10.5075 10.153C10.6068 9.95504 10.5572 9.78205 10.4828 9.63366C10.4083 9.48547 9.82959 8.01953 9.56503 7.43323Z" fill="white"/>
</svg>
