<?xml version="1.0" encoding="utf-8"?>
<!-- Generator: Adobe Illustrator 25.0.0, SVG Export Plug-In . SVG Version: 6.00 Build 0)  -->
<svg version="1.1" id="Layer_1" xmlns="http://www.w3.org/2000/svg" xmlns:xlink="http://www.w3.org/1999/xlink" x="0px" y="0px"
	 viewBox="0 0 239.05 111.7" style="enable-background:new 0 0 239.05 111.7;" xml:space="preserve">
<style type="text/css">
	.st0{fill:#1679BE;}
	.st1{fill:#6CB535;}
	.st2{fill:#DAE0E3;}
</style>
<g>
	<g>
		<path class="st0" d="M24.15,41.77c0.45-13.43,11.25-24.24,24.68-24.68v24.68H24.15z"/>
		<path class="st1" d="M75.26,43.51c-0.45,13.43-11.25,24.24-24.68,24.68V43.51H75.26z"/>
		<path class="st2" d="M50.58,17.08c13.43,0.45,24.24,11.26,24.68,24.69H50.58V17.08z"/>
		<path class="st2" d="M24.15,94.62c13.43-0.45,24.23-11.25,24.68-24.68H24.15V94.62z"/>
	</g>
	<rect x="24.15" y="43.51" class="st2" width="24.68" height="24.68"/>
	<g>
		<path class="st0" d="M206.63,28.82v4.89h1.4c1.9,0,2.85-0.83,2.85-2.47c0-1.61-0.95-2.42-2.85-2.42H206.63z M206.63,36.38v5.4
			h-3.57V26.11h5.58c3.99,0,5.98,1.66,5.98,4.99c0,1.57-0.57,2.85-1.72,3.82c-1.14,0.97-2.67,1.46-4.58,1.46H206.63z M199.67,28.98
			h-4.51v12.8h-3.57v-12.8h-4.49v-2.87h12.58V28.98z M184.54,41.22c-1.15,0.55-2.66,0.83-4.52,0.83c-2.42,0-4.33-0.71-5.72-2.12
			c-1.39-1.41-2.09-3.3-2.09-5.65c0-2.51,0.78-4.54,2.34-6.1c1.56-1.56,3.59-2.34,6.08-2.34c1.54,0,2.85,0.19,3.91,0.58v3.4
			c-1.06-0.63-2.26-0.94-3.62-0.94c-1.48,0-2.68,0.46-3.6,1.39c-0.91,0.92-1.37,2.18-1.37,3.76c0,1.51,0.43,2.72,1.29,3.62
			c0.86,0.9,2.02,1.35,3.48,1.35c1.39,0,2.66-0.33,3.81-1.01V41.22z M169.4,41.78h-9.49V26.11h9.12v2.87h-5.56v3.49h5.17v2.86h-5.17
			v3.58h5.92V41.78z M156.12,41.78h-9.49V26.11h9.12v2.87h-5.56v3.49h5.17v2.86h-5.17v3.58h5.92V41.78z M135.05,28.82v4.89h1.4
			c1.9,0,2.85-0.83,2.85-2.47c0-1.61-0.95-2.42-2.85-2.42H135.05z M135.05,36.38v5.4h-3.57V26.11h5.59c3.99,0,5.98,1.66,5.98,4.99
			c0,1.57-0.57,2.85-1.72,3.82c-1.15,0.97-2.67,1.46-4.58,1.46H135.05z M127.47,41.22c-1.15,0.55-2.66,0.83-4.52,0.83
			c-2.43,0-4.33-0.71-5.72-2.12c-1.39-1.41-2.09-3.3-2.09-5.65c0-2.51,0.78-4.54,2.34-6.1c1.56-1.56,3.59-2.34,6.09-2.34
			c1.54,0,2.85,0.19,3.9,0.58v3.4c-1.06-0.63-2.26-0.94-3.62-0.94c-1.49,0-2.69,0.46-3.6,1.39c-0.91,0.92-1.37,2.18-1.37,3.76
			c0,1.51,0.43,2.72,1.29,3.62c0.86,0.9,2.02,1.35,3.48,1.35c1.39,0,2.66-0.33,3.82-1.01V41.22z M104.57,28.88
			c-1.25,0-2.25,0.46-2.98,1.4c-0.74,0.93-1.1,2.16-1.1,3.69c0,1.55,0.37,2.78,1.1,3.68c0.73,0.9,1.7,1.35,2.89,1.35
			c1.23,0,2.2-0.44,2.93-1.32c0.72-0.88,1.08-2.1,1.08-3.66c0-1.63-0.35-2.89-1.05-3.79C106.74,29.33,105.78,28.88,104.57,28.88
			 M104.42,42.05c-2.27,0-4.11-0.73-5.54-2.19c-1.43-1.46-2.14-3.36-2.14-5.71c0-2.48,0.72-4.48,2.17-6.01
			c1.45-1.53,3.37-2.3,5.76-2.3c2.26,0,4.09,0.73,5.48,2.2c1.39,1.47,2.09,3.4,2.09,5.79c0,2.46-0.72,4.45-2.17,5.96
			C108.63,41.3,106.74,42.05,104.42,42.05 M86.24,28.82v4.89h1.4c1.9,0,2.85-0.83,2.85-2.47c0-1.61-0.95-2.42-2.85-2.42H86.24z
			 M86.24,36.38v5.4h-3.57V26.11h5.58c3.99,0,5.98,1.66,5.98,4.99c0,1.57-0.57,2.85-1.72,3.82c-1.15,0.97-2.67,1.46-4.58,1.46H86.24
			z"/>
	</g>
	<g>
		<path class="st0" d="M87.13,54.62v1.14h-0.95v-1.14h-0.16c-0.97,0-1.77-0.33-2.4-0.99c-0.63-0.66-0.95-1.47-0.95-2.44
			c0-0.92,0.32-1.7,0.95-2.33c0.63-0.63,1.44-0.95,2.42-0.95h0.15v-1.09h0.95v1.09h0.15c0.99,0,1.8,0.31,2.43,0.93
			s0.94,1.4,0.94,2.34c0,0.95-0.32,1.76-0.95,2.43c-0.63,0.67-1.43,1-2.4,1H87.13z M86.19,53.73v-4.95h-0.15
			c-0.69,0-1.24,0.23-1.66,0.68c-0.42,0.45-0.63,1.04-0.63,1.75c0,0.77,0.21,1.38,0.62,1.84c0.42,0.46,0.97,0.68,1.66,0.68H86.19z
			 M87.13,48.78v4.95h0.16c0.69,0,1.24-0.23,1.66-0.69c0.42-0.46,0.62-1.07,0.62-1.83c0-0.73-0.21-1.31-0.62-1.76
			c-0.42-0.45-0.97-0.67-1.67-0.67H87.13z"/>
		<path class="st0" d="M97.12,52.91h-4.38c0.02,0.69,0.2,1.22,0.56,1.6c0.36,0.38,0.84,0.56,1.47,0.56c0.7,0,1.34-0.23,1.93-0.69
			v0.93c-0.55,0.4-1.27,0.59-2.16,0.59c-0.88,0-1.57-0.28-2.07-0.85c-0.5-0.56-0.75-1.36-0.75-2.38c0-0.97,0.27-1.75,0.82-2.36
			c0.55-0.61,1.23-0.91,2.04-0.91s1.44,0.26,1.88,0.79c0.44,0.53,0.67,1.25,0.67,2.19V52.91z M96.1,52.07
			c0-0.57-0.14-1.02-0.42-1.34c-0.27-0.32-0.65-0.48-1.14-0.48c-0.47,0-0.87,0.17-1.19,0.5c-0.33,0.34-0.53,0.77-0.61,1.32H96.1z"/>
		<path class="st0" d="M104.03,58.02h-0.84v-2.26h-4.62v2.26h-0.85v-3.1h0.55c1.06-1.53,1.6-3.32,1.61-5.36h3.22v5.36h0.92V58.02z
			 M102.12,54.92V50.4h-1.38c-0.11,1.67-0.58,3.18-1.41,4.52H102.12z"/>
		<path class="st0" d="M110.4,52.91h-4.38c0.02,0.69,0.2,1.22,0.56,1.6c0.36,0.38,0.84,0.56,1.47,0.56c0.7,0,1.34-0.23,1.93-0.69
			v0.93c-0.55,0.4-1.27,0.59-2.16,0.59c-0.88,0-1.57-0.28-2.07-0.85c-0.5-0.56-0.75-1.36-0.75-2.38c0-0.97,0.27-1.75,0.82-2.36
			c0.55-0.61,1.23-0.91,2.04-0.91c0.81,0,1.44,0.26,1.88,0.79c0.44,0.53,0.67,1.25,0.67,2.19V52.91z M109.38,52.07
			c0-0.57-0.14-1.02-0.42-1.34c-0.27-0.32-0.65-0.48-1.14-0.48c-0.47,0-0.87,0.17-1.19,0.5c-0.33,0.34-0.53,0.77-0.61,1.32H109.38z"
			/>
		<path class="st0" d="M112.92,54.87h-0.02v3.75h-0.99v-9.06h0.99v1.09h0.02c0.49-0.82,1.2-1.24,2.15-1.24
			c0.8,0,1.42,0.28,1.87,0.83s0.67,1.3,0.67,2.23c0,1.04-0.25,1.87-0.76,2.49c-0.51,0.62-1.2,0.94-2.07,0.94
			C113.97,55.91,113.35,55.56,112.92,54.87z M112.89,52.36v0.87c0,0.51,0.17,0.95,0.5,1.31c0.33,0.36,0.76,0.54,1.27,0.54
			c0.6,0,1.07-0.23,1.41-0.69c0.34-0.46,0.51-1.1,0.51-1.92c0-0.69-0.16-1.23-0.48-1.62c-0.32-0.39-0.75-0.59-1.3-0.59
			c-0.58,0-1.04,0.2-1.39,0.6C113.07,51.25,112.89,51.76,112.89,52.36z"/>
		<path class="st0" d="M123.47,55.76h-0.99v-0.97h-0.02c-0.43,0.74-1.07,1.12-1.91,1.12c-0.62,0-1.1-0.16-1.45-0.49
			c-0.35-0.33-0.52-0.76-0.52-1.3c0-1.16,0.68-1.83,2.05-2.02l1.86-0.26c0-1.05-0.43-1.58-1.28-1.58c-0.75,0-1.42,0.25-2.02,0.76
			v-1.02c0.61-0.39,1.31-0.58,2.11-0.58c1.46,0,2.19,0.77,2.19,2.32V55.76z M122.48,52.62l-1.5,0.21c-0.46,0.06-0.81,0.18-1.04,0.34
			c-0.24,0.16-0.35,0.45-0.35,0.87c0,0.3,0.11,0.55,0.32,0.74c0.22,0.19,0.5,0.29,0.86,0.29c0.49,0,0.9-0.17,1.22-0.52
			s0.48-0.78,0.48-1.31V52.62z"/>
		<path class="st0" d="M129.87,55.76h-0.99V50.4h-1.44c-0.17,2.01-0.45,3.42-0.85,4.23c-0.4,0.81-0.94,1.22-1.62,1.22
			c-0.21,0-0.38-0.03-0.53-0.08v-0.85c0.14,0.07,0.29,0.11,0.46,0.11c0.89,0,1.46-1.82,1.72-5.46h3.26V55.76z"/>
		<path class="st0" d="M131.89,55.76v-6.21h0.99v2.38h1.67c0.63,0,1.14,0.17,1.51,0.5c0.37,0.33,0.56,0.79,0.56,1.39
			c0,0.6-0.19,1.07-0.56,1.42c-0.38,0.35-0.85,0.52-1.42,0.52H131.89z M132.88,52.79v2.12h1.49c0.82,0,1.24-0.36,1.24-1.09
			c0-0.69-0.42-1.03-1.25-1.03H132.88z"/>
		<path class="st0" d="M143.29,55.76h-0.99v-2.82h-3.16v2.82h-0.99v-6.21h0.99v2.55h3.16v-2.55h0.99V55.76z"/>
		<path class="st0" d="M149.75,55.76h-0.99v-0.97h-0.02c-0.43,0.74-1.07,1.12-1.91,1.12c-0.62,0-1.1-0.16-1.45-0.49
			c-0.35-0.33-0.52-0.76-0.52-1.3c0-1.16,0.68-1.83,2.05-2.02l1.86-0.26c0-1.05-0.43-1.58-1.28-1.58c-0.75,0-1.42,0.25-2.02,0.76
			v-1.02c0.61-0.39,1.31-0.58,2.11-0.58c1.46,0,2.19,0.77,2.19,2.32V55.76z M148.75,52.62l-1.5,0.21c-0.46,0.06-0.81,0.18-1.04,0.34
			c-0.24,0.16-0.35,0.45-0.35,0.87c0,0.3,0.11,0.55,0.32,0.74c0.22,0.19,0.5,0.29,0.86,0.29c0.49,0,0.9-0.17,1.22-0.52
			s0.48-0.78,0.48-1.31V52.62z"/>
		<path class="st0" d="M155.86,55.76h-0.99v-2.57h-0.83c-0.4,0-0.76,0.32-1.09,0.97l-0.81,1.6h-1.15l1.04-1.92
			c0.24-0.44,0.53-0.74,0.88-0.88c-0.48-0.06-0.85-0.24-1.11-0.53c-0.25-0.29-0.38-0.65-0.38-1.09c0-0.55,0.2-0.98,0.6-1.31
			c0.4-0.32,0.96-0.48,1.68-0.48h2.17V55.76z M154.87,52.36v-1.96h-1.18c-0.84,0-1.25,0.32-1.25,0.95c0,0.67,0.41,1.01,1.22,1.01
			H154.87z"/>
		<path class="st0" d="M88.26,68.18h-1.39l-2.74-2.98H84.1v2.98h-0.99v-6.21h0.99v2.84h0.02l2.61-2.84h1.3l-2.88,2.99L88.26,68.18z"
			/>
		<path class="st0" d="M93.72,68.18h-0.99v-0.97H92.7c-0.43,0.74-1.07,1.12-1.91,1.12c-0.62,0-1.1-0.16-1.45-0.49
			c-0.35-0.33-0.52-0.76-0.52-1.3c0-1.16,0.68-1.83,2.05-2.02l1.86-0.26c0-1.05-0.43-1.58-1.28-1.58c-0.75,0-1.42,0.25-2.02,0.76
			v-1.02c0.61-0.39,1.31-0.58,2.11-0.58c1.46,0,2.19,0.77,2.19,2.32V68.18z M92.73,65.04l-1.5,0.21c-0.46,0.06-0.81,0.18-1.04,0.34
			c-0.24,0.16-0.35,0.45-0.35,0.87c0,0.3,0.11,0.55,0.32,0.74c0.22,0.19,0.5,0.29,0.86,0.29c0.49,0,0.9-0.17,1.22-0.52
			c0.32-0.35,0.48-0.78,0.48-1.31V65.04z"/>
		<path class="st0" d="M101.01,70.44h-0.84v-2.26h-4.62v2.26H94.7v-3.1h0.55c1.06-1.53,1.6-3.32,1.61-5.36h3.22v5.36h0.92V70.44z
			 M99.09,67.33v-4.52h-1.38c-0.11,1.67-0.58,3.18-1.41,4.52H99.09z"/>
		<path class="st0" d="M106.83,68.18h-0.99v-0.97h-0.02c-0.43,0.74-1.07,1.12-1.91,1.12c-0.62,0-1.1-0.16-1.45-0.49
			c-0.35-0.33-0.52-0.76-0.52-1.3c0-1.16,0.68-1.83,2.05-2.02l1.86-0.26c0-1.05-0.43-1.58-1.28-1.58c-0.75,0-1.42,0.25-2.02,0.76
			v-1.02c0.61-0.39,1.31-0.58,2.11-0.58c1.46,0,2.19,0.77,2.19,2.32V68.18z M105.83,65.04l-1.5,0.21c-0.46,0.06-0.81,0.18-1.04,0.34
			c-0.24,0.16-0.35,0.45-0.35,0.87c0,0.3,0.11,0.55,0.32,0.74c0.22,0.19,0.5,0.29,0.86,0.29c0.49,0,0.9-0.17,1.22-0.52
			c0.32-0.35,0.48-0.78,0.48-1.31V65.04z"/>
		<path class="st0" d="M112.93,67.89c-0.48,0.29-1.04,0.43-1.7,0.43c-0.88,0-1.6-0.29-2.14-0.86c-0.54-0.58-0.81-1.32-0.81-2.24
			c0-1.02,0.29-1.84,0.88-2.46c0.59-0.62,1.37-0.93,2.35-0.93c0.55,0,1.03,0.1,1.44,0.3v1.02c-0.46-0.32-0.95-0.48-1.48-0.48
			c-0.64,0-1.16,0.23-1.56,0.68c-0.41,0.45-0.61,1.05-0.61,1.79c0,0.73,0.19,1.3,0.57,1.72c0.38,0.42,0.89,0.63,1.54,0.63
			c0.54,0,1.05-0.18,1.53-0.54V67.89z"/>
		<path class="st0" d="M118.33,62.82h-1.86v5.36h-0.99v-5.36h-1.87v-0.85h4.72V62.82z"/>
		<path class="st0" d="M120.54,67.28h-0.02v3.75h-0.99v-9.06h0.99v1.09h0.02c0.49-0.82,1.2-1.24,2.15-1.24
			c0.8,0,1.42,0.28,1.87,0.83s0.67,1.3,0.67,2.23c0,1.04-0.25,1.87-0.76,2.49c-0.51,0.62-1.2,0.94-2.07,0.94
			C121.6,68.32,120.98,67.97,120.54,67.28z M120.52,64.78v0.87c0,0.51,0.17,0.95,0.5,1.31c0.33,0.36,0.76,0.54,1.27,0.54
			c0.6,0,1.07-0.23,1.41-0.69c0.34-0.46,0.51-1.1,0.51-1.92c0-0.69-0.16-1.23-0.48-1.62c-0.32-0.39-0.75-0.59-1.3-0.59
			c-0.58,0-1.04,0.2-1.39,0.6C120.69,63.67,120.52,64.17,120.52,64.78z"/>
		<path class="st0" d="M129.41,68.32c-0.92,0-1.65-0.29-2.2-0.87c-0.55-0.58-0.82-1.35-0.82-2.31c0-1.04,0.28-1.86,0.85-2.44
			c0.57-0.59,1.34-0.88,2.31-0.88c0.92,0,1.65,0.28,2.17,0.85c0.52,0.57,0.78,1.36,0.78,2.37c0,0.99-0.28,1.78-0.84,2.38
			C131.11,68.02,130.35,68.32,129.41,68.32z M129.49,62.66c-0.64,0-1.14,0.22-1.52,0.65c-0.37,0.43-0.56,1.03-0.56,1.8
			c0,0.74,0.19,1.32,0.56,1.74c0.38,0.42,0.88,0.64,1.51,0.64c0.64,0,1.14-0.21,1.48-0.62c0.35-0.42,0.52-1.01,0.52-1.78
			c0-0.78-0.17-1.37-0.52-1.79C130.62,62.87,130.13,62.66,129.49,62.66z"/>
		<path class="st0" d="M134.09,68.18v-6.21h2.7c0.61,0,1.09,0.14,1.44,0.41c0.35,0.27,0.53,0.64,0.53,1.11c0,0.8-0.4,1.29-1.19,1.47
			c0.95,0.12,1.42,0.6,1.42,1.44c0,0.5-0.2,0.93-0.59,1.27c-0.39,0.34-0.87,0.52-1.45,0.52H134.09z M135.09,62.82v1.75h1.49
			c0.8,0,1.2-0.31,1.2-0.93c0-0.54-0.36-0.81-1.08-0.81H135.09z M135.09,65.41v1.92h1.72c0.8,0,1.21-0.33,1.21-0.98
			c0-0.63-0.45-0.94-1.35-0.94H135.09z"/>
		<path class="st0" d="M145.11,68.18h-0.99v-0.97h-0.02c-0.43,0.74-1.07,1.12-1.91,1.12c-0.62,0-1.1-0.16-1.45-0.49
			c-0.35-0.33-0.52-0.76-0.52-1.3c0-1.16,0.68-1.83,2.05-2.02l1.86-0.26c0-1.05-0.43-1.58-1.28-1.58c-0.75,0-1.42,0.25-2.02,0.76
			v-1.02c0.61-0.39,1.31-0.58,2.11-0.58c1.46,0,2.19,0.77,2.19,2.32V68.18z M144.12,65.04l-1.5,0.21c-0.46,0.06-0.81,0.18-1.04,0.34
			c-0.24,0.16-0.35,0.45-0.35,0.87c0,0.3,0.11,0.55,0.32,0.74c0.22,0.19,0.5,0.29,0.86,0.29c0.49,0,0.9-0.17,1.22-0.52
			c0.32-0.35,0.48-0.78,0.48-1.31V65.04z"/>
		<path class="st0" d="M151.23,68.18h-0.99v-2.57h-0.83c-0.4,0-0.76,0.32-1.09,0.97l-0.81,1.6h-1.15l1.04-1.92
			c0.24-0.44,0.53-0.74,0.88-0.88c-0.48-0.06-0.85-0.24-1.11-0.53s-0.38-0.65-0.38-1.09c0-0.55,0.2-0.98,0.6-1.31
			c0.4-0.32,0.96-0.48,1.68-0.48h2.17V68.18z M150.23,64.78v-1.96h-1.18c-0.84,0-1.25,0.32-1.25,0.95c0,0.67,0.41,1.01,1.22,1.01
			H150.23z"/>
		<path class="st0" d="M88.26,80.59h-0.99v-5.36H84.1v5.36h-0.99v-6.21h5.15V80.59z"/>
		<path class="st0" d="M94.72,80.59h-0.99v-0.97H93.7c-0.43,0.74-1.07,1.12-1.91,1.12c-0.62,0-1.1-0.16-1.45-0.49
			c-0.35-0.33-0.52-0.76-0.52-1.3c0-1.16,0.68-1.83,2.05-2.02l1.86-0.26c0-1.05-0.43-1.58-1.28-1.58c-0.75,0-1.42,0.25-2.02,0.76
			v-1.02c0.61-0.39,1.31-0.58,2.11-0.58c1.46,0,2.19,0.77,2.19,2.32V80.59z M93.72,77.45l-1.5,0.21c-0.46,0.06-0.81,0.18-1.04,0.34
			c-0.24,0.16-0.35,0.45-0.35,0.87c0,0.3,0.11,0.55,0.32,0.74c0.22,0.19,0.5,0.29,0.86,0.29c0.49,0,0.9-0.17,1.22-0.52
			c0.32-0.35,0.48-0.78,0.48-1.31V77.45z"/>
		<path class="st0" d="M101.12,80.59h-0.99v-5.36h-1.44c-0.17,2.01-0.45,3.42-0.85,4.23c-0.4,0.81-0.94,1.22-1.62,1.22
			c-0.21,0-0.38-0.03-0.53-0.08v-0.85c0.14,0.07,0.29,0.11,0.46,0.11c0.89,0,1.46-1.82,1.72-5.46h3.26V80.59z"/>
		<path class="st0" d="M107.57,80.59h-0.99v-0.97h-0.02c-0.43,0.74-1.07,1.12-1.91,1.12c-0.62,0-1.1-0.16-1.45-0.49
			c-0.35-0.33-0.52-0.76-0.52-1.3c0-1.16,0.68-1.83,2.05-2.02l1.86-0.26c0-1.05-0.43-1.58-1.28-1.58c-0.75,0-1.42,0.25-2.02,0.76
			v-1.02c0.61-0.39,1.31-0.58,2.11-0.58c1.46,0,2.19,0.77,2.19,2.32V80.59z M106.58,77.45l-1.5,0.21c-0.46,0.06-0.81,0.18-1.04,0.34
			c-0.24,0.16-0.35,0.45-0.35,0.87c0,0.3,0.11,0.55,0.32,0.74c0.22,0.19,0.5,0.29,0.86,0.29c0.49,0,0.9-0.17,1.22-0.52
			c0.32-0.35,0.48-0.78,0.48-1.31V77.45z"/>
		<path class="st0" d="M113.34,75.23h-1.86v5.36h-0.99v-5.36h-1.87v-0.85h4.72V75.23z"/>
		<path class="st0" d="M118.98,80.59h-0.99v-0.97h-0.02c-0.43,0.74-1.07,1.12-1.91,1.12c-0.62,0-1.1-0.16-1.45-0.49
			c-0.35-0.33-0.52-0.76-0.52-1.3c0-1.16,0.68-1.83,2.05-2.02l1.86-0.26c0-1.05-0.43-1.58-1.28-1.58c-0.75,0-1.42,0.25-2.02,0.76
			v-1.02c0.61-0.39,1.31-0.58,2.11-0.58c1.46,0,2.19,0.77,2.19,2.32V80.59z M117.98,77.45l-1.5,0.21c-0.46,0.06-0.81,0.18-1.04,0.34
			c-0.24,0.16-0.35,0.45-0.35,0.87c0,0.3,0.11,0.55,0.32,0.74c0.22,0.19,0.5,0.29,0.86,0.29c0.49,0,0.9-0.17,1.22-0.52
			c0.32-0.35,0.48-0.78,0.48-1.31V77.45z"/>
	</g>
</g>
</svg>
