<svg width="60" height="60" viewBox="0 0 60 60" fill="none" xmlns="http://www.w3.org/2000/svg">
<g clip-path="url(#clip0_170_493)">
<rect width="60" height="60" rx="30" fill="url(#paint0_linear_170_493)"/>
<g clip-path="url(#clip1_170_493)">
<path d="M30.0001 32.8124C33.1019 32.8124 35.6251 30.2892 35.6251 27.1874C35.6251 24.0856 33.1019 21.5624 30.0001 21.5624C26.8982 21.5624 24.3751 24.0856 24.3751 27.1874C24.3751 30.2892 26.8982 32.8124 30.0001 32.8124ZM26.5247 27.4621C26.8909 27.0959 27.4842 27.0959 27.8504 27.4621L29.0626 28.6742L32.1497 25.587C32.5159 25.2208 33.1092 25.2208 33.4754 25.587C33.8416 25.9532 33.8416 26.5465 33.4754 26.9127L29.7254 30.6627C29.5423 30.8458 29.3024 30.9374 29.0626 30.9374C28.8228 30.9374 28.5829 30.8458 28.3998 30.6627L26.5248 28.7877C26.1585 28.4215 26.1585 27.8283 26.5247 27.4621Z" fill="url(#paint1_linear_170_493)"/>
<path d="M17.1497 26.5246C16.7836 26.8908 16.7836 27.4841 17.1497 27.8503L18.9597 29.6603C19.0758 29.7768 19.1593 29.9217 19.2019 30.0806C19.2445 30.2395 19.2446 30.4067 19.2024 30.5657L18.5404 33.0385C18.4067 33.5384 18.7034 34.0529 19.2032 34.1866L21.6761 34.8494C21.8349 34.8921 21.9796 34.9758 22.0958 35.0921C22.212 35.2085 22.2955 35.3533 22.338 35.5122L23.0008 37.9841C23.1354 38.485 23.6527 38.7825 24.1489 38.647L26.6208 37.985C26.9476 37.899 27.291 37.9905 27.5272 38.2276L29.3372 40.0376C29.5203 40.2208 29.7602 40.3123 30 40.3123C30.2398 40.3123 30.4797 40.2208 30.6628 40.0376L32.4728 38.2276C32.7072 37.9923 33.0542 37.8999 33.3782 37.985L35.8511 38.647C36.3555 38.7834 36.8654 38.4849 36.9991 37.9841L37.6619 35.5113C37.7046 35.3525 37.7883 35.2078 37.9047 35.0916C38.021 34.9754 38.1659 34.8919 38.3247 34.8494L40.7967 34.1866C41.2966 34.0529 41.5932 33.5384 41.4595 33.0385L40.7976 30.5666C40.7115 30.2434 40.804 29.8964 41.0402 29.6602L42.8502 27.8502C43.2164 27.484 43.2164 26.8907 42.8502 26.5245L41.0402 24.7145C40.9241 24.598 40.8406 24.453 40.798 24.2942C40.7555 24.1353 40.7553 23.968 40.7976 23.8091L41.4595 21.3363C41.5932 20.8364 41.2966 20.3219 40.7967 20.1882L38.3239 19.5254C38.1651 19.4827 38.0203 19.399 37.9041 19.2827C37.7879 19.1663 37.7044 19.0214 37.6619 18.8626L36.9991 16.3906C36.8646 15.8898 36.3546 15.5969 35.8511 15.7278L33.3791 16.3898C33.0496 16.4721 32.7071 16.3833 32.4727 16.1471L30.6627 14.2746C30.2966 13.9085 29.7032 13.9085 29.3371 14.2746L27.5271 16.1471C27.2909 16.3833 26.9448 16.4731 26.6216 16.3898L24.1488 15.7278C23.6535 15.5988 23.1353 15.8899 23.0007 16.3906L22.3379 18.8635C22.2953 19.0223 22.2115 19.167 22.0952 19.2832C21.9789 19.3994 21.834 19.4829 21.6751 19.5254L19.2032 20.1882C18.7034 20.3219 18.4067 20.8364 18.5404 21.3363L19.2024 23.8082C19.2884 24.1314 19.1959 24.4784 18.9597 24.7146L17.1497 26.5246ZM30.0001 19.6874C34.1355 19.6874 37.5001 23.052 37.5001 27.1874C37.5001 31.3228 34.1355 34.6874 30.0001 34.6874C25.8646 34.6874 22.5001 31.3228 22.5001 27.1874C22.5001 23.052 25.8646 19.6874 30.0001 19.6874Z" fill="url(#paint2_linear_170_493)"/>
<path d="M39.3329 36.5203L38.8102 38.4695C38.4824 39.6972 37.3673 40.555 36.0984 40.555C35.8502 40.555 35.6022 40.5221 35.3614 40.4571L33.4159 39.9361L32.5951 40.7569L35.3156 45.5311C35.3957 45.6694 35.5097 45.785 35.6468 45.867C35.7839 45.949 35.9396 45.9947 36.0993 45.9999H36.1277C36.2828 45.9999 36.4355 45.9614 36.5721 45.8879C36.7087 45.8144 36.8249 45.7082 36.9104 45.5788L38.9612 42.409L42.6783 42.1856C42.838 42.1762 42.9926 42.1262 43.1273 42.0401C43.2621 41.954 43.3726 41.8349 43.4482 41.694C43.5238 41.5532 43.5622 41.3955 43.5598 41.2358C43.5574 41.0761 43.5143 40.9196 43.4345 40.7812L40.7547 36.1395L39.3329 36.5203ZM16.5519 41.6939C16.6275 41.8348 16.738 41.954 16.8728 42.04C17.0076 42.1261 17.1622 42.1762 17.3218 42.1855L21.0389 42.4089L23.0897 45.5787C23.1752 45.7081 23.2914 45.8144 23.428 45.8879C23.5646 45.9614 23.7173 45.9998 23.8724 45.9998H23.9008C24.0605 45.9947 24.2162 45.9489 24.3533 45.8669C24.4905 45.7849 24.6044 45.6693 24.6845 45.5311L27.405 40.7568L26.5842 39.9361L24.6342 40.458C24.3966 40.5223 24.1516 40.555 23.9054 40.555C22.6365 40.555 21.5196 39.6981 21.19 38.4713L20.6672 36.5203L19.2457 36.139L16.5656 40.7811C16.4858 40.9195 16.4427 41.076 16.4403 41.2357C16.4379 41.3955 16.4763 41.5532 16.5519 41.6939Z" fill="url(#paint3_linear_170_493)"/>
</g>
</g>
<defs>
<linearGradient id="paint0_linear_170_493" x1="30" y1="0" x2="30" y2="60" gradientUnits="userSpaceOnUse">
<stop stop-color="#DFEAFF"/>
<stop offset="1" stop-color="#F8F8F8"/>
</linearGradient>
<linearGradient id="paint1_linear_170_493" x1="30.0001" y1="14" x2="30.0001" y2="45.9999" gradientUnits="userSpaceOnUse">
<stop stop-color="#449DEE"/>
<stop offset="1" stop-color="#3875EC"/>
</linearGradient>
<linearGradient id="paint2_linear_170_493" x1="30.0001" y1="14" x2="30.0001" y2="45.9999" gradientUnits="userSpaceOnUse">
<stop stop-color="#449DEE"/>
<stop offset="1" stop-color="#3875EC"/>
</linearGradient>
<linearGradient id="paint3_linear_170_493" x1="30.0001" y1="14" x2="30.0001" y2="45.9999" gradientUnits="userSpaceOnUse">
<stop stop-color="#449DEE"/>
<stop offset="1" stop-color="#3875EC"/>
</linearGradient>
<clipPath id="clip0_170_493">
<rect width="60" height="60" fill="white"/>
</clipPath>
<clipPath id="clip1_170_493">
<rect width="32" height="32" fill="white" transform="translate(14 14)"/>
</clipPath>
</defs>
</svg>
