<svg width="60" height="60" viewBox="0 0 60 60" fill="none" xmlns="http://www.w3.org/2000/svg">
<g clip-path="url(#clip0_98_340)">
<rect width="60" height="60" rx="30" fill="url(#paint0_linear_98_340)"/>
<path d="M31.6368 21.057C30.3857 22.2611 28.7823 22.7997 27.3041 22.1501C26.7285 22.7053 26.0299 23.1167 25.2652 23.3508C24.6326 23.4729 24.0113 23.6472 23.4075 23.8719C22.872 24.1374 22.4015 24.5176 22.0295 24.9855C21.6576 25.4534 21.3932 25.9975 21.2552 26.5791C21.0767 27.3091 20.7422 27.9918 20.2749 28.5803C19.8076 29.1688 19.2185 29.6493 18.548 29.9887C17.2125 30.5941 15.9115 30.4457 14.8892 31.5462C14.6627 31.754 14.307 31.4205 14.5268 31.1837C15.0187 30.6408 15.6319 30.2216 16.3165 29.9603C16.9558 29.7989 17.5765 29.5711 18.1685 29.2807C18.7026 28.9653 19.1604 28.5356 19.509 28.0226C19.8575 27.5095 20.0883 26.9257 20.1848 26.3129C20.5456 23.9364 22.5602 22.35 24.7724 21.8839C25.2806 21.6845 25.7346 21.3683 26.0977 20.9607C24.5476 17.7296 29.5322 13.428 32.2429 16.0049C33.4719 17.2283 33.2 19.4938 31.6368 21.057ZM45.8244 31.3196C45.5214 33.7726 42.4863 36.0942 40.1437 34.9897C39.5682 35.545 38.8696 35.9564 38.1048 36.1904C37.4723 36.3126 36.8509 36.4868 36.2471 36.7115C35.722 36.9809 35.2575 37.3548 34.8821 37.8103C34.4962 38.2766 34.2264 38.8279 34.0949 39.4188C33.9163 40.1487 33.5819 40.8314 33.1146 41.4199C32.6473 42.0085 32.0581 42.4889 31.3876 42.8283C30.0538 43.4321 28.7529 43.2888 27.7289 44.3802C27.6806 44.4232 27.6177 44.4462 27.553 44.4446C27.4883 44.443 27.4267 44.4168 27.3806 44.3715C27.3345 44.3261 27.3074 44.2649 27.3047 44.2002C27.3021 44.1356 27.3241 44.0723 27.3664 44.0234C27.8568 43.4786 28.4705 43.0591 29.1561 42.8C31.1005 42.3673 32.718 41.2113 33.0244 39.1526C33.3926 36.7613 35.3879 35.201 37.6121 34.7235C38.1202 34.5242 38.5743 34.2079 38.9374 33.8003C38.3314 32.5317 38.7391 30.7476 40.0361 29.4506C42.3231 27.0237 46.2832 27.9673 45.8244 31.3196ZM27.6666 31.4499C27.1341 32.1053 26.7653 32.8779 26.5905 33.7041C26.3638 34.6698 25.9305 35.575 25.3204 36.3572C24.7103 37.1394 23.9378 37.7801 23.0563 38.235C21.2915 39.0348 19.4712 38.9085 18.1175 40.3929C18.0934 40.4157 18.065 40.4335 18.034 40.4453C18.003 40.4571 17.9699 40.4626 17.9368 40.4616C17.9036 40.4605 17.871 40.4529 17.8408 40.4392C17.8105 40.4254 17.7833 40.4059 17.7607 40.3816C17.7157 40.3342 17.6906 40.2714 17.6906 40.206C17.6906 40.1407 17.7157 40.0778 17.7607 40.0304C18.4162 39.3134 19.2338 38.7638 20.1452 38.4276C22.8411 37.842 25.0499 36.2788 25.52 33.4379C25.6867 32.4432 26.0822 31.5009 26.6754 30.6853C27.2702 29.8586 28.03 29.1643 28.9069 28.6464C29.7749 28.2315 30.6817 27.9033 31.6142 27.6665C32.374 27.372 33.0561 26.907 33.6078 26.3073C32.662 24.6591 33.166 22.2011 34.9331 20.434C39.9602 15.7116 45.3815 21.1148 40.6535 26.1543C39.096 27.7368 36.7104 28.5002 34.7972 27.508C34.0427 28.2576 33.1205 28.8167 32.1069 29.1391C31.2401 29.3077 30.3907 29.5561 29.5696 29.8811C28.8364 30.271 28.1892 30.8046 27.6666 31.4499Z" fill="url(#paint1_linear_98_340)"/>
</g>
<defs>
<linearGradient id="paint0_linear_98_340" x1="30" y1="0" x2="30" y2="60" gradientUnits="userSpaceOnUse">
<stop stop-color="#DFEAFF"/>
<stop offset="1" stop-color="#F8F8F8"/>
</linearGradient>
<linearGradient id="paint1_linear_98_340" x1="30.1594" y1="15.2177" x2="30.1594" y2="44.4447" gradientUnits="userSpaceOnUse">
<stop stop-color="#449DEE"/>
<stop offset="1" stop-color="#3875EC"/>
</linearGradient>
<clipPath id="clip0_98_340">
<rect width="60" height="60" fill="white"/>
</clipPath>
</defs>
</svg>
