<svg width="60" height="60" viewBox="0 0 60 60" fill="none" xmlns="http://www.w3.org/2000/svg">
<g clip-path="url(#clip0_98_316)">
<rect width="60" height="60" rx="30" fill="url(#paint0_linear_98_316)"/>
<g clip-path="url(#clip1_98_316)">
<path d="M33.8523 37.2764H40.7656C40.9375 37.2764 41.1064 37.2305 41.2546 37.1435C41.4029 37.0565 41.5253 36.9314 41.6091 36.7813L45.1295 30.4784C45.21 30.3344 45.2522 30.1722 45.2522 30.0072C45.2522 29.8423 45.21 29.6801 45.1295 29.5361L41.6091 23.2332C41.5252 23.0831 41.4029 22.9581 41.2546 22.871C41.1063 22.784 40.9375 22.7381 40.7656 22.7381H33.8523C33.6803 22.7381 33.5115 22.784 33.3633 22.871C33.215 22.958 33.0926 23.083 33.0088 23.2332L29.4884 29.5361C29.4079 29.6801 29.3657 29.8423 29.3657 30.0072C29.3657 30.1722 29.4079 30.3344 29.4884 30.4784L33.0088 36.7813C33.0927 36.9314 33.215 37.0564 33.3633 37.1435C33.5115 37.2305 33.6804 37.2764 33.8523 37.2764ZM36.1108 26.3619C37.2078 26.6793 37.4998 28.1621 36.6094 28.8773C35.7917 29.574 34.4613 29.0973 34.2694 28.0375C34.0397 26.9863 35.091 26.0287 36.1108 26.3619ZM26.9913 28.0432L30.5117 21.7403C30.5922 21.5963 30.6344 21.4341 30.6344 21.2691C30.6344 21.1042 30.5922 20.942 30.5117 20.798L26.9913 14.4951C26.9075 14.3449 26.7851 14.2199 26.6368 14.1329C26.4886 14.0459 26.3198 14 26.1478 14H19.2346C19.0627 14 18.8939 14.0459 18.7456 14.1329C18.5973 14.2199 18.475 14.345 18.3911 14.4951L14.8706 20.798C14.7902 20.942 14.7479 21.1042 14.7479 21.2691C14.7479 21.4341 14.7902 21.5963 14.8706 21.7403L18.3911 28.0432C18.475 28.1933 18.5973 28.3183 18.7456 28.4053C18.8939 28.4924 19.0627 28.5382 19.2346 28.5383H26.1478C26.3198 28.5382 26.4886 28.4923 26.6368 28.4053C26.7851 28.3183 26.9074 28.1933 26.9913 28.0432ZM21.4901 17.6541C22.5872 17.9747 22.8787 19.4535 21.9878 20.1704C21.1688 20.8671 19.8407 20.3889 19.6478 19.3296C19.419 18.278 20.4695 17.3222 21.4901 17.6541ZM26.9913 45.5049L30.5117 39.202C30.5922 39.058 30.6344 38.8958 30.6344 38.7309C30.6344 38.5659 30.5922 38.4037 30.5117 38.2597L26.9913 31.9568C26.9075 31.8067 26.7851 31.6817 26.6368 31.5947C26.4886 31.5076 26.3198 31.4617 26.1478 31.4617H19.2346C19.0627 31.4617 18.8939 31.5076 18.7456 31.5947C18.5973 31.6817 18.475 31.8067 18.3911 31.9568L14.8706 38.2597C14.7902 38.4037 14.7479 38.5659 14.7479 38.7309C14.7479 38.8958 14.7902 39.058 14.8706 39.202L18.3911 45.5049C18.475 45.655 18.5973 45.78 18.7456 45.8671C18.8939 45.9541 19.0627 46 19.2346 46H26.1478C26.3198 46 26.4886 45.9541 26.6368 45.8671C26.7851 45.7801 26.9075 45.6551 26.9913 45.5049ZM21.4901 35.0679C22.587 35.3874 22.8785 36.868 21.9878 37.5842C21.1688 38.2799 19.8407 37.8029 19.6478 36.7435C19.419 35.6922 20.4697 34.735 21.4901 35.0679Z" fill="url(#paint1_linear_98_316)"/>
</g>
</g>
<defs>
<linearGradient id="paint0_linear_98_316" x1="30" y1="0" x2="30" y2="60" gradientUnits="userSpaceOnUse">
<stop stop-color="#DFEAFF"/>
<stop offset="1" stop-color="#F8F8F8"/>
</linearGradient>
<linearGradient id="paint1_linear_98_316" x1="30.0001" y1="14" x2="30.0001" y2="46" gradientUnits="userSpaceOnUse">
<stop stop-color="#449DEE"/>
<stop offset="1" stop-color="#3875EC"/>
</linearGradient>
<clipPath id="clip0_98_316">
<rect width="60" height="60" fill="white"/>
</clipPath>
<clipPath id="clip1_98_316">
<rect width="32" height="32" fill="white" transform="translate(14 14)"/>
</clipPath>
</defs>
</svg>
