<svg width="60" height="60" viewBox="0 0 60 60" fill="none" xmlns="http://www.w3.org/2000/svg">
<g clip-path="url(#clip0_98_309)">
<rect width="60" height="60" rx="30" fill="url(#paint0_linear_98_309)"/>
<g clip-path="url(#clip1_98_309)">
<path d="M26.9911 20.5254C26.9911 16.9321 24.0677 14.0086 20.4743 14.0086C11.8407 14.3362 11.8431 26.7159 20.4743 27.0422C24.0677 27.0422 26.9911 24.1188 26.9911 20.5254ZM17.7079 20.5254C17.7079 19 18.9489 17.759 20.4743 17.759C24.1392 17.8981 24.1382 23.1533 20.4742 23.2918C18.9489 23.2918 17.7079 22.0508 17.7079 20.5254Z" fill="url(#paint1_linear_98_309)"/>
<path d="M21.3631 20.5254C21.3631 20.0353 20.9643 19.6365 20.4743 19.6365C19.2967 19.6812 19.297 21.3698 20.4743 21.4143C20.9644 21.4143 21.3631 21.0156 21.3631 20.5254ZM38.3527 14.0086C34.1361 14.0086 30.7056 17.4391 30.7056 21.6559C31.09 31.787 45.6171 31.7842 46 21.6557C46 17.4392 42.5695 14.0086 38.3527 14.0086ZM38.3527 25.5494C36.2058 25.5494 34.4592 23.8028 34.4592 21.6559C34.6549 16.4976 42.0514 16.4991 42.2463 21.6559C42.2463 23.8028 40.4997 25.5494 38.3527 25.5494Z" fill="url(#paint2_linear_98_309)"/>
<path d="M38.3527 19.6398C37.2411 19.6398 36.3367 20.5442 36.3367 21.6559C36.4381 24.3268 40.2679 24.326 40.3688 21.6559C40.3688 20.5442 39.4645 19.6398 38.3527 19.6398ZM27.1963 27.7156C22.1412 27.7156 18.0285 31.8282 18.0285 36.8834C18.4894 49.0289 35.905 49.0256 36.3641 36.8832C36.3641 31.8283 32.2514 27.7156 27.1963 27.7156ZM27.1963 42.2447C24.24 42.2447 21.8349 39.8397 21.8349 36.8834C22.1045 29.7807 32.2892 29.7825 32.5576 36.8835C32.5576 39.8396 30.1526 42.2447 27.1963 42.2447Z" fill="url(#paint3_linear_98_309)"/>
<path d="M27.1963 33.3995C25.2753 33.3995 23.7124 34.9624 23.7124 36.8834C23.8876 41.4988 30.5057 41.4976 30.6801 36.8833C30.6801 34.9624 29.1173 33.3995 27.1963 33.3995Z" fill="url(#paint4_linear_98_309)"/>
</g>
</g>
<defs>
<linearGradient id="paint0_linear_98_309" x1="30" y1="0" x2="30" y2="60" gradientUnits="userSpaceOnUse">
<stop stop-color="#DFEAFF"/>
<stop offset="1" stop-color="#F8F8F8"/>
</linearGradient>
<linearGradient id="paint1_linear_98_309" x1="30" y1="14.0086" x2="30" y2="45.9913" gradientUnits="userSpaceOnUse">
<stop stop-color="#449DEE"/>
<stop offset="1" stop-color="#3875EC"/>
</linearGradient>
<linearGradient id="paint2_linear_98_309" x1="30" y1="14.0086" x2="30" y2="45.9913" gradientUnits="userSpaceOnUse">
<stop stop-color="#449DEE"/>
<stop offset="1" stop-color="#3875EC"/>
</linearGradient>
<linearGradient id="paint3_linear_98_309" x1="30" y1="14.0086" x2="30" y2="45.9913" gradientUnits="userSpaceOnUse">
<stop stop-color="#449DEE"/>
<stop offset="1" stop-color="#3875EC"/>
</linearGradient>
<linearGradient id="paint4_linear_98_309" x1="30" y1="14.0086" x2="30" y2="45.9913" gradientUnits="userSpaceOnUse">
<stop stop-color="#449DEE"/>
<stop offset="1" stop-color="#3875EC"/>
</linearGradient>
<clipPath id="clip0_98_309">
<rect width="60" height="60" fill="white"/>
</clipPath>
<clipPath id="clip1_98_309">
<rect width="32" height="32" fill="white" transform="translate(14 14)"/>
</clipPath>
</defs>
</svg>
