<svg width="60" height="60" viewBox="0 0 60 60" fill="none" xmlns="http://www.w3.org/2000/svg">
<g clip-path="url(#clip0_98_324)">
<rect width="60" height="60" rx="30" fill="url(#paint0_linear_98_324)"/>
<g clip-path="url(#clip1_98_324)">
<path d="M30 19.9378C24.4517 19.9378 19.9377 24.4517 19.9377 30C19.9377 35.5483 24.4517 40.0623 30 40.0623C35.5483 40.0623 40.0623 35.5483 40.0623 30C40.0623 24.4517 35.5483 19.9378 30 19.9378ZM22.5636 29.5C22.5636 28.9867 22.9784 28.5626 23.5014 28.5626C24.0192 28.5626 24.4389 28.9823 24.4389 29.5C24.4389 30.0178 24.0192 30.4375 23.5014 30.4375C22.9836 30.4375 22.5636 30.0178 22.5636 29.5ZM25.0013 35.4374C24.4836 35.4374 24.0635 35.0177 24.0635 34.4999C24.0635 33.9822 24.4829 33.5624 25.0007 33.5624C25.5242 33.5624 25.9388 33.9871 25.9388 34.4999C25.9388 35.0177 25.5192 35.4374 25.0013 35.4374ZM30.5012 37.9373C29.9834 37.9373 29.5634 37.5176 29.5634 36.9999C29.5634 36.4821 29.9828 36.0624 30.5005 36.0624C31.0241 36.0624 31.4386 36.487 31.4386 36.9999C31.4386 37.5176 31.019 37.9373 30.5012 37.9373ZM31.5 33.9374C28.5018 33.9374 26.0626 31.4982 26.0626 28.5001C26.0626 25.5019 28.5018 23.0627 31.5 23.0627C34.4981 23.0627 36.9373 25.5019 36.9373 28.5001C36.9373 31.4982 34.4981 33.9374 31.5 33.9374Z" fill="url(#paint1_linear_98_324)"/>
<path d="M45.0682 26.9877C43.9418 25.3317 43.1616 23.4764 42.7493 21.4735C42.3141 19.3605 40.6565 17.6892 38.5267 17.2509C36.5238 16.8385 34.6684 16.0582 33.012 14.9316C31.1858 13.6896 28.8144 13.6895 26.9882 14.9316C25.3317 16.0582 23.4763 16.8385 21.4736 17.2508C19.3604 17.6859 17.6895 19.3436 17.2509 21.4735C16.8385 23.4764 16.0584 25.3316 14.9319 26.9876C13.6897 28.8136 13.6894 31.1861 14.9319 33.0124C16.0583 34.6684 16.8385 36.5236 17.2509 38.5266C17.686 40.6399 19.3436 42.3106 21.4734 42.7492C23.4762 43.1616 25.3316 43.9419 26.9881 45.0685C28.814 46.3103 31.1856 46.3106 33.012 45.0685C34.6684 43.9419 36.5238 43.1615 38.5267 42.7492C40.6398 42.314 42.3106 40.6564 42.7493 38.5265C43.1616 36.5236 43.9417 34.6684 45.0682 33.0124C46.3104 31.1864 46.3107 28.8141 45.0682 26.9877ZM30 41.9372C23.4178 41.9372 18.0628 36.5822 18.0628 30C18.0628 23.4179 23.4178 18.0628 30 18.0628C36.5821 18.0628 41.9372 23.4179 41.9372 30C41.9372 36.5822 36.5821 41.9372 30 41.9372Z" fill="url(#paint2_linear_98_324)"/>
<path d="M31.5 32.0625C33.4674 32.0625 35.0624 30.4675 35.0624 28.5001C35.0624 26.5326 33.4674 24.9376 31.5 24.9376C29.5325 24.9376 27.9375 26.5326 27.9375 28.5001C27.9375 30.4675 29.5325 32.0625 31.5 32.0625Z" fill="url(#paint3_linear_98_324)"/>
</g>
</g>
<defs>
<linearGradient id="paint0_linear_98_324" x1="30" y1="0" x2="30" y2="60" gradientUnits="userSpaceOnUse">
<stop stop-color="#DFEAFF"/>
<stop offset="1" stop-color="#F8F8F8"/>
</linearGradient>
<linearGradient id="paint1_linear_98_324" x1="30.0001" y1="14.0001" x2="30.0001" y2="46" gradientUnits="userSpaceOnUse">
<stop stop-color="#449DEE"/>
<stop offset="1" stop-color="#3875EC"/>
</linearGradient>
<linearGradient id="paint2_linear_98_324" x1="30.0001" y1="14.0001" x2="30.0001" y2="46" gradientUnits="userSpaceOnUse">
<stop stop-color="#449DEE"/>
<stop offset="1" stop-color="#3875EC"/>
</linearGradient>
<linearGradient id="paint3_linear_98_324" x1="30.0001" y1="14.0001" x2="30.0001" y2="46" gradientUnits="userSpaceOnUse">
<stop stop-color="#449DEE"/>
<stop offset="1" stop-color="#3875EC"/>
</linearGradient>
<clipPath id="clip0_98_324">
<rect width="60" height="60" fill="white"/>
</clipPath>
<clipPath id="clip1_98_324">
<rect width="32" height="32" fill="white" transform="translate(14 14)"/>
</clipPath>
</defs>
</svg>
