<svg width="60" height="60" viewBox="0 0 60 60" fill="none" xmlns="http://www.w3.org/2000/svg">
<g clip-path="url(#clip0_98_332)">
<rect width="60" height="60" rx="30" fill="url(#paint0_linear_98_332)"/>
<path d="M24.4667 24.3333C24.4667 27.0666 26.1333 29.6 28.6 30.7333C28.9333 30.8666 29.0667 31.2666 28.9333 31.6C28.8 31.8666 28.6 32 28.3333 32C28.2667 32 28.1333 32 28.0667 31.9333C25.0667 30.6 23.1333 27.6 23.1333 24.3333C23.1333 20.2666 20.7333 16.5333 17 14.8666C16.5333 14.6 15.9333 14.8666 15.6667 15.3333C15.4 15.8 15.6667 16.4 16.1333 16.6666H16.2C19.2 18 21.1333 21 21.1333 24.2666C21.1333 27.3333 22.5333 30.2666 24.8667 32.2C23 31.8 20.4667 31.3333 20.4667 31.3333C18.6667 31.0666 16.8667 32.2 16.5333 34C16.3333 34.8666 16.5333 35.8 17.0667 36.5333L20.4 41.2666L19.7333 41.9333C18.9333 42.7333 19 44 19.8 44.7333C20.6 45.4666 21.8 45.4666 22.6 44.7333L23.6 43.7333C24.0667 43.2666 24.2667 42.6 24.1333 42L23.7333 38.8666C25.4667 40.4666 27.8 41.3333 30.1333 41.3333C35.8 41.3333 40.4667 36.7333 40.4667 31.0666C40.4667 30.0666 40.3333 29.1333 40.0667 28.2C43.6667 26.8 45.4 22.6666 44 19.0666C42.6 15.4666 38.4667 13.7333 34.8667 15.1333C31.2667 16.5333 29.5333 20.6666 30.9333 24.2666C31.4 25.5333 32.2667 26.6 33.3333 27.3333H30.7333C29.0667 27.3333 27.7333 26 27.7333 24.3333C27.7333 23.4 27 22.6666 26.0667 22.6666C25.1333 22.6666 24.4667 23.4 24.4667 24.3333Z" fill="url(#paint1_linear_98_332)"/>
</g>
<defs>
<linearGradient id="paint0_linear_98_332" x1="30" y1="0" x2="30" y2="60" gradientUnits="userSpaceOnUse">
<stop stop-color="#DFEAFF"/>
<stop offset="1" stop-color="#F8F8F8"/>
</linearGradient>
<linearGradient id="paint1_linear_98_332" x1="30.0225" y1="14.649" x2="30.0225" y2="45.2833" gradientUnits="userSpaceOnUse">
<stop stop-color="#449DEE"/>
<stop offset="1" stop-color="#3875EC"/>
</linearGradient>
<clipPath id="clip0_98_332">
<rect width="60" height="60" fill="white"/>
</clipPath>
</defs>
</svg>
