<?xml version="1.0" encoding="UTF-8" standalone="no"?>
<svg
   width="25"
   height="25"
   viewBox="0 0 25 25"
   fill="none"
   version="1.1"
   id="svg4"
   sodipodi:docname="add-cart.svg"
   inkscape:version="1.1.1 (3bf5ae0d25, 2021-09-20)"
   xmlns:inkscape="http://www.inkscape.org/namespaces/inkscape"
   xmlns:sodipodi="http://sodipodi.sourceforge.net/DTD/sodipodi-0.dtd"
   xmlns="http://www.w3.org/2000/svg"
   xmlns:svg="http://www.w3.org/2000/svg">
  <defs
     id="defs8" />
  <sodipodi:namedview
     id="namedview6"
     pagecolor="#ffffff"
     bordercolor="#666666"
     borderopacity="1.0"
     inkscape:pageshadow="2"
     inkscape:pageopacity="0.0"
     inkscape:pagecheckerboard="0"
     showgrid="false"
     inkscape:zoom="22.683986"
     inkscape:cx="8.3539112"
     inkscape:cy="13.996659"
     inkscape:window-width="1920"
     inkscape:window-height="991"
     inkscape:window-x="-9"
     inkscape:window-y="-9"
     inkscape:window-maximized="1"
     inkscape:current-layer="svg4" />
  <g
     id="g1677">
    <path
       id="path1774"
       style="fill:#7fa8d0;fill-opacity:1"
       d="M 3.265625,0.5234375 C 3.233014,0.5211635 3.201602,0.52299113 3.167969,0.5273435 H 0 v 1.058594 h 2.8300781 l 1.2910157,4.8320313 2.6210937,9.6640622 0.068359,0.1875 0.9082031,3.306641 c -0.8572,0.4568 -1.3831581,1.357025 -1.3613281,2.328125 v 0.535156 h 0.058594 c 0.23365,1.1845 1.2731388,2.037709 2.4804688,2.037109 1.4294397,0.0064 2.5946217,-1.142765 2.6074217,-2.572265 -0.0146,-0.5464 -0.197037,-1.075172 -0.523437,-1.513672 h 7.136719 c -0.322201,0.4399 -0.500419,0.968472 -0.511719,1.513672 0.0128,1.4295 1.177922,2.578665 2.607422,2.572265 1.2074,5.01e-4 2.246768,-0.852609 2.480468,-2.037109 h 0.05859 v -0.535156 c 0.0129,-1.4082 -1.119144,-2.559466 -2.527344,-2.572266 l -0.02344,-0.002 H 8.8964844 8.7207031 L 8.2792969,17.677734 c 0.19889,0.066 0.4076675,0.09805 0.6171875,0.09375 H 20.201172 c 1.0217,-0.005 1.911915,-0.699753 2.166016,-1.689453 l 2.61914,-9.6523435 c 0.0362,-0.15942 -0.0011,-0.325685 -0.103516,-0.453125 -0.1065,-0.11434 -0.252503,-0.1861688 -0.408203,-0.1992187 H 5.0527344 L 3.7265625,0.9453125 C 3.6898825,0.71073463 3.4939017,0.5393567 3.265625,0.5234375 Z M 8.9433594,20.355469 c 0.84215,0.013 1.5126996,0.706728 1.4999996,1.548828 0.0068,0.8295 -0.6588009,1.506872 -1.4882809,1.513672 -0.01965,10e-5 -0.038944,6e-4 -0.058594,0 v -0.01172 c -0.8423,-0.0129 -1.5149432,-0.706528 -1.5019532,-1.548828 0.01299,-0.8422 0.7065782,-1.514953 1.5488282,-1.501953 z m 11.1874996,0 c 0.8422,-0.0193 1.541347,0.648034 1.560547,1.490234 4e-4,0.0192 3e-4,0.03939 0,0.05859 2e-4,0.8225 -0.656215,1.494672 -1.478515,1.513672 l -0.01172,-0.01172 c -0.8422,0.0193 -1.539494,-0.648034 -1.558594,-1.490234 -0.0193,-0.8422 0.646081,-1.541447 1.488281,-1.560547 z M 14.802681,7.7169576 v 3.1250004 h 3.125 v 0.75 h -3.125 v 3.125 h -0.75 v -3.125 h -3.125 v -0.75 h 3.125 V 7.7169576 Z"
       sodipodi:nodetypes="scccccccccccccccccccccccccccccccccssccccsssscccccssccccccccccccc" />
    <path
       fill-rule="evenodd"
       clip-rule="evenodd"
       d="m 22.3669,16.0824 c -0.2541,0.9897 -1.1439,1.6833 -2.1656,1.6883 v 10e-5 H 8.89556 C 8.68604,17.7751 8.47733,17.7436 8.27844,17.6776 l 0.44247,1.6533 H 8.89556 20.2013 l 0.0234,2e-4 c 1.4082,0.0128 2.5394,1.1648 2.5265,2.573 v 0.5356 H 22.693 c -0.2337,1.1845 -1.2727,2.0381 -2.4801,2.0376 -1.4295,0.0064 -2.5953,-1.1437 -2.6081,-2.5732 0.0113,-0.5452 0.1901,-1.0737 0.5123,-1.5136 h -7.1374 c 0.3264,0.4385 0.5094,0.9672 0.524,1.5136 -0.0128,1.4295 -1.1787,2.5796 -2.60814,2.5732 -1.20733,6e-4 -2.24639,-0.8531 -2.48004,-2.0376 H 6.35729 V 21.9041 C 6.33546,20.933 6.86236,20.0323 7.71956,19.5755 L 6.81138,16.2687 6.74152,16.0824 4.12176,6.41841 2.82934,1.58643 H 0 V 0.526896 H 3.16702 C 3.43609,0.492075 3.68398,0.677969 3.7259,0.946058 L 5.05325,5.77804 H 24.4744 c 0.1557,0.01305 0.301,0.08362 0.4075,0.19796 0.1024,0.12744 0.141,0.29467 0.1048,0.45409 z m -0.6755,5.7641 c -0.0192,-0.8422 -0.7174,-1.5094 -1.5596,-1.4901 -0.8422,0.0191 -1.5094,0.7174 -1.4901,1.5596 0.0191,0.8422 0.7174,1.5094 1.5596,1.4901 l 0.0116,0.0117 c 0.8223,-0.019 1.4789,-0.6912 1.4787,-1.5137 3e-4,-0.0192 2e-4,-0.0384 -2e-4,-0.0576 z m -11.2473,0.0576 c 0.0127,-0.8421 -0.65951,-1.5352 -1.50166,-1.5482 -0.84225,-0.013 -1.5355,0.6595 -1.54849,1.5017 -0.01299,0.8423 0.65931,1.5357 1.50161,1.5486 v 0.0116 c 0.01965,6e-4 0.03935,8e-4 0.059,7e-4 0.82948,-0.0068 1.49634,-0.6849 1.48954,-1.5144 z M 14.875,8 v 3.125 H 18 v 0.75 H 14.875 V 15 h -0.75 V 11.875 H 11 v -0.75 h 3.125 V 8 Z"
       fill="#272A2D"
       id="path1742"
       style="display:none;fill:#7fa8d0;fill-opacity:1" />
  </g>
</svg>
