<svg width="20" height="20" viewBox="0 0 20 20" fill="none" xmlns="http://www.w3.org/2000/svg">
<path d="M16.161 14.2165C16.9784 14.2126 17.6902 13.6577 17.8935 12.8659L19.9893 5.14405C20.0183 5.01651 19.9874 4.88272 19.9055 4.78077C19.8203 4.6893 19.7041 4.63284 19.5795 4.62241H4.0426L2.98072 0.756819C2.94719 0.542347 2.74887 0.393632 2.53361 0.421489H0V1.26911H2.26347L3.29741 5.1347L5.39321 12.8659L5.4491 13.0149L6.17565 15.6603C5.48988 16.0258 5.06836 16.7464 5.08583 17.5233V17.9518H5.13242C5.31934 18.8994 6.15059 19.5823 7.11645 19.5818C8.26002 19.587 9.1927 18.6668 9.20296 17.5232C9.19126 17.0861 9.04486 16.6632 8.7838 16.3123H14.4937C14.236 16.6643 14.0929 17.0871 14.0838 17.5232C14.0941 18.6668 15.0267 19.587 16.1703 19.5818C17.1362 19.5822 17.9675 18.8993 18.1544 17.9518H18.201V17.5233C18.2113 16.3967 17.3063 15.4751 16.1798 15.4648C16.1735 15.4648 16.1673 15.4647 16.161 15.4647H7.11645H6.97673L6.62276 14.1421C6.78186 14.1948 6.94883 14.22 7.11645 14.2166H16.161V14.2165ZM16.1054 16.2851C16.7792 16.2697 17.3378 16.8034 17.3531 17.4772C17.3535 17.4926 17.3535 17.5079 17.3533 17.5233C17.3535 18.1813 16.8282 18.719 16.1703 18.7342L16.161 18.7249C15.4873 18.7403 14.9287 18.2065 14.9133 17.5328C14.8979 16.859 15.4317 16.3004 16.1054 16.2851ZM7.15396 16.2847C7.82767 16.2951 8.36547 16.8496 8.35529 17.5233C8.36075 18.1869 7.82723 18.7293 7.16365 18.7348C7.14793 18.7349 7.13217 18.7347 7.11645 18.7342V18.7249C6.4426 18.7146 5.90477 18.1599 5.91516 17.4861C5.92555 16.8123 6.48015 16.2743 7.15396 16.2847Z" fill="white"/>
</svg>
