<svg width="610" height="610" viewBox="0 0 610 610" fill="none" xmlns="http://www.w3.org/2000/svg">
<path d="M113.768 67.6726V305C113.768 410.76 199.681 496.499 305.687 496.499C401.991 496.499 481.718 425.702 495.485 333.444C496.874 324.158 497.606 314.67 497.606 305C497.606 295.335 496.874 285.841 495.485 276.561H305.687V333.444H437.519C424.424 394.118 370.412 439.616 305.687 439.616C231.164 439.616 170.767 379.347 170.767 305C170.767 230.658 231.164 170.379 305.687 170.379C347.749 170.379 385.285 189.596 410.026 219.682H477.497C446.051 156.748 380.942 113.511 305.687 113.511C253.079 113.511 205.43 134.631 170.767 168.844V31.2908C150.375 41.3231 131.275 53.5463 113.768 67.6726Z" fill="#EDF5F9"/>
<path d="M227.765 10.0324V69.107C252.292 61.047 278.465 56.6279 305.691 56.6279C433.521 56.6279 538.79 152.793 552.942 276.561H610C595.618 121.465 464.898 0 305.691 0C278.759 0 252.656 3.50236 227.765 10.0324Z" fill="#EDF5F9"/>
<path d="M0 305C0 473.444 136.854 610 305.688 610C464.895 610 595.615 488.535 609.997 333.444H552.939C538.787 457.201 433.518 553.378 305.688 553.378C168.204 553.378 56.7642 442.174 56.7642 305V128.022C21.0388 177.927 0 239.001 0 305Z" fill="#EDF5F9"/>
</svg>
