<svg width="23" height="18" viewBox="0 0 23 18" fill="none" xmlns="http://www.w3.org/2000/svg">
<path d="M21.51 7.60999H0.908882C0.4069 7.60999 0 8.01388 0 8.51157C0 9.00926 0.406856 9.41316 0.908882 9.41316H21.51C22.012 9.41316 22.4189 9.00957 22.4189 8.51157C22.4189 8.01358 22.012 7.60999 21.51 7.60999Z" fill="white"/>
<path d="M22.2198 7.89606L13.4516 0.291219C13.0524 -0.0607008 12.3802 -0.13182 12.0068 0.291219C11.6773 0.664578 11.6076 1.21443 12.0068 1.56635C12.406 1.91827 20.0526 8.53373 20.0526 8.53373L12.7044 16.2042C12.3052 16.5561 12.3052 17.1271 12.7044 17.479C12.904 17.6551 13.1652 17.7432 13.4268 17.7432C13.6884 17.7432 13.9496 17.6551 14.1492 17.479L22.2198 9.17119C22.619 8.81897 22.619 8.24793 22.2198 7.89606Z" fill="white"/>
</svg>
