<svg width="36" height="35" viewBox="0 0 36 35" fill="none" xmlns="http://www.w3.org/2000/svg">
<path fill-rule="evenodd" clip-rule="evenodd" d="M24.6506 11.753C24.0879 11.2755 23.2784 11.2864 22.814 11.4251C23.1183 11.0636 23.8268 10.7671 24.0356 10.7312C24.1947 10.7889 24.6506 11.2424 24.6506 11.7529L24.6506 11.753ZM26.4476 9.77564C26.0775 7.85957 21.4761 9.12911 19.1589 8.31525C19.1145 8.87381 19.8723 9.76882 20.5971 10.1001C19.3581 11.1407 18.2457 13.2373 18.0213 15.7989C17.7975 13.2373 16.6851 11.1407 15.4461 10.1001C16.1709 9.76882 16.9293 8.87381 16.8843 8.31525C14.5671 9.12911 9.96566 7.85957 9.59488 9.77564C9.5169 10.1811 9.71849 10.7992 9.93633 10.9768C9.97524 10.8483 10.1787 10.4279 10.8201 10.3337C14.0619 9.85963 16.7685 14.6949 14.3254 16.6499C14.2882 16.6796 14.309 16.7345 14.3595 16.7345H21.6842C21.734 16.7345 21.7551 16.6796 21.7185 16.6499C19.2746 14.6949 21.9812 9.85963 25.223 10.3337C25.865 10.4279 26.0678 10.8483 26.1068 10.9767C26.3246 10.7992 26.5262 10.1812 26.4476 9.77559V9.77564ZM27.2361 5.37789C27.1779 5.19687 29.0787 5.19234 29.0787 6.34368C29.0787 7.11535 27.9417 7.48082 27.9417 8.28158C27.9417 8.65454 28.3563 8.92811 28.4835 8.92811C28.1907 7.64247 29.4016 8.31525 29.7285 8.55571C29.0787 6.82682 30.5416 6.83773 30.3975 6.045C30.2973 5.49097 29.0259 5.65834 28.5657 5.37789C27.7492 4.88045 26.7832 2.94484 26.1465 4.88045C27.3333 5.94682 26.6428 7.51624 25.1362 7.51624C25.1362 7.51624 25.1277 7.74638 25.1415 7.76466C26.9385 7.67953 27.5649 6.40142 27.2361 5.37789H27.2361ZM6.2709 8.55571C6.59797 8.31525 7.80869 7.64247 7.51658 8.92811C7.64312 8.92811 8.05771 8.65454 8.05771 8.28158C8.05771 7.48082 6.92069 7.11535 6.92069 6.34368C6.92069 5.19229 8.82153 5.19687 8.76328 5.37789C8.43508 6.40136 9.06159 7.67958 10.8585 7.76466C10.8717 7.74638 10.8633 7.51624 10.8633 7.51624C9.35731 7.51624 8.66668 5.94671 9.85293 4.88045C9.21627 2.94484 8.25029 4.88045 7.43374 5.37789C6.97359 5.6584 5.70213 5.49097 5.60193 6.045C5.45847 6.83773 6.92064 6.82687 6.27084 8.55571H6.2709ZM11.3733 11.7529C11.9366 11.2754 12.7461 11.2863 13.21 11.4251C12.9069 11.0635 12.1972 10.7671 11.9889 10.7311C11.8299 10.7888 11.3734 11.2423 11.3734 11.7529L11.3733 11.7529ZM18.8763 1.03433L17.9997 0L17.1231 1.03433L17.9997 2.12291L18.8764 1.03433H18.8763ZM23.8803 4.16194L23.2569 3.42683L22.6341 4.16194L23.2569 4.8804L23.8803 4.16188V4.16194ZM28.9365 25.4094L28.1463 24.6L27.3561 25.4094L28.1463 26.1193L28.9365 25.4093V25.4094ZM13.3659 4.16183L12.7424 3.42672L12.1196 4.16183L12.7424 4.88034L13.3658 4.16183H13.3659ZM11.5803 7.76455H13.9053C15.86 7.76455 16.7397 6.60345 17.0054 5.59651H18.9945C19.2603 6.6035 20.1392 7.76461 22.0947 7.76461H24.4197C24.4197 7.76461 24.8264 7.23061 24.9284 6.9662C25.2956 6.01465 24.8264 5.57086 24.1418 5.57086L23.2568 6.34706L22.3718 5.57086C21.6872 5.57086 21.218 6.01465 21.5853 6.9662C21.6321 7.0879 21.7443 7.26657 21.8504 7.42363C21.0254 7.31394 19.9724 6.76744 19.7414 5.59651C19.7414 5.59651 20.351 4.65932 20.504 4.28009C21.0537 2.9163 20.3516 2.35878 19.325 2.35878L17.9996 3.86664L16.6743 2.35878C15.6477 2.35878 14.9457 2.91624 15.4959 4.28009C15.6484 4.65938 16.2585 5.59657 16.2585 5.59657C16.0269 6.7675 14.9739 7.31399 14.1489 7.42369C14.2557 7.26662 14.3673 7.0879 14.4141 6.96625C14.7807 6.01471 14.3128 5.57092 13.6275 5.57092L12.7425 6.34712L11.8576 5.57092C11.1724 5.57092 10.7044 6.01471 11.071 6.96625C11.173 7.23066 11.5804 7.76466 11.5804 7.76466L11.5803 7.76455ZM35.618 14.7393C35.1691 14.9592 32.5364 16.1529 29.1638 15.7114C29.1987 15.5557 29.2284 15.3989 29.2526 15.2413C31.4972 14.9815 33.3218 14.6131 34.4846 13.9871C35.81 13.2732 36.3896 11.569 35.7206 10.301C35.7033 10.269 35.6553 10.2634 35.6313 10.2901C35.2647 10.6985 32.9594 13.1253 29.3277 13.8797C29.3184 13.6977 29.3012 13.5161 29.2761 13.3355C31.04 12.3673 32.7621 11.2519 33.5823 10.2319C34.8219 8.68974 34.7079 6.7228 33.5283 5.71985C33.5161 5.70968 33.4999 5.70511 33.4839 5.7073C33.4679 5.7095 33.4537 5.71824 33.4449 5.73131C33.0717 6.32698 29.5786 11.791 25.7433 14.1498C25.6965 14.1788 25.6494 14.2072 25.6018 14.235C25.4919 14.2995 25.48 14.4377 25.5736 14.5199C26.0157 14.9077 26.2906 15.4475 26.2906 16.0466C26.2906 17.0883 25.4608 17.9547 24.3639 18.1426C23.8065 18.2471 23.0019 18.2169 22.2291 17.9696C22.1943 17.9587 22.1583 17.981 22.1583 18.0147V21.3142C22.1583 21.3673 22.2418 21.3804 22.2615 21.3295C22.7312 20.1251 24.1376 19.8691 24.7527 19.8691C24.9741 21.1565 25.3695 22.2229 25.8831 22.7968C26.7194 23.7295 28.085 23.7164 28.6773 23.0715C28.687 23.0609 28.6912 23.0465 28.6886 23.0324C28.6861 23.0184 28.677 23.0063 28.664 22.9995C28.3161 22.806 26.3252 21.6232 25.9268 19.6847C26.0841 19.6322 26.2376 19.5727 26.3847 19.5024C27.0273 20.5317 27.9626 21.4484 28.7156 21.7985C29.9805 22.3857 31.1384 22.1 31.652 21.2405C31.6706 21.2102 31.6478 21.1725 31.61 21.1691C30.8276 21.1085 28.4264 20.4426 27.404 18.82C27.5211 18.716 27.6357 18.6075 27.7425 18.4921C28.8122 19.2803 30.3249 19.9771 31.4079 20.1193C32.675 20.2861 34.1108 19.8948 34.1457 18.4687C34.1463 18.4401 34.1199 18.4167 34.0887 18.4185C33.6381 18.4447 30.6555 18.5704 28.5303 17.3898C28.6041 17.254 28.6729 17.1157 28.7366 16.9751C28.7366 16.9751 31.9479 17.7097 33.4695 17.4663C34.9815 17.2248 35.8671 16.1339 35.6961 14.7769C35.6913 14.7431 35.6505 14.7232 35.6181 14.7392L35.618 14.7393ZM7.26265 16.9753C7.32657 17.1158 7.3956 17.2541 7.46961 17.39C5.34506 18.5699 2.36365 18.4454 1.91128 18.4187C1.87948 18.4169 1.85309 18.4414 1.85365 18.4694C1.88918 19.895 3.32434 20.2862 4.59145 20.1194C5.67394 19.9772 7.18714 19.2804 8.25689 18.4923C8.36431 18.6077 8.47834 18.7161 8.59523 18.8201C7.5723 20.4426 5.17172 21.1086 4.38929 21.1692C4.3515 21.1726 4.32929 21.2103 4.34733 21.2405C4.86094 22.1001 6.01894 22.3857 7.28436 21.7985C8.03679 21.4484 8.97215 20.5317 9.61479 19.5026C9.76231 19.5728 9.91592 19.6322 10.0725 19.6848C9.67411 21.6232 7.68333 22.806 7.33528 22.9996C7.32243 23.0064 7.31348 23.0185 7.31092 23.0325C7.30835 23.0465 7.31246 23.0609 7.32209 23.0716C7.91431 23.7164 9.28056 23.7295 10.1168 22.7969C10.6306 22.2229 11.0253 21.1566 11.2467 19.8692C11.8623 19.8692 13.268 20.1252 13.7378 21.3296C13.7583 21.3805 13.8416 21.3673 13.8416 21.3142V18.0147C13.8416 17.981 13.8051 17.9588 13.7703 17.9696C12.9975 18.2169 12.1929 18.2472 11.6361 18.1426C10.5387 17.9548 9.70891 17.0884 9.70891 16.0466C9.70891 15.4474 9.98427 14.9071 10.4259 14.5193C10.52 14.4376 10.5075 14.2994 10.3982 14.2349C10.3503 14.2071 10.3027 14.1787 10.2555 14.1498C6.42265 11.7922 2.93123 6.33211 2.55505 5.73235C2.53756 5.70435 2.49561 5.69867 2.46978 5.72034C1.29199 6.72384 1.17741 8.69023 2.417 10.2318C3.23721 11.2517 4.95912 12.3672 6.72259 13.3354C6.69771 13.516 6.68071 13.6976 6.67161 13.8796C3.04283 13.1257 0.739414 10.7028 0.369205 10.2917C0.344618 10.2637 0.295332 10.2694 0.278584 10.3014C-0.389089 11.5699 0.190444 13.273 1.51468 13.987C2.67747 14.6129 4.50207 14.9813 6.74667 15.2412C6.77092 15.3988 6.80052 15.5555 6.83543 15.7112C3.46644 16.1522 0.834828 14.9614 0.382457 14.7397C0.348848 14.7232 0.30802 14.7437 0.303847 14.778C0.133546 16.135 1.01844 17.2248 2.53046 17.4663C4.05145 17.7097 7.26265 16.9751 7.26265 16.9751V16.9753ZM28.1462 27.1616L26.9762 26.2706C26.5094 26.5396 26.1662 26.9669 26.033 27.4678C25.3293 27.5632 23.4104 27.1508 23.5969 26.8773C25.7 24.0147 24.0913 22.3104 22.1582 22.4052V24.3277C22.1582 24.9451 21.6014 25.4454 20.9156 25.4454H19.5807C18.623 25.4454 17.9996 26.377 17.9996 26.377C17.9996 26.377 17.3763 25.4454 16.4187 25.4454H15.0837C14.3974 25.4454 13.8418 24.9451 13.8418 24.3277V22.4053C11.9086 22.3105 10.2987 24.0148 12.4024 26.8773C12.5872 27.148 10.6149 27.5816 9.68979 27.4719C9.44618 27.2274 9.09452 27.0732 8.70091 27.0732C8.53359 27.0732 8.3676 27.1021 8.2107 27.1583C8.2107 27.1583 4.57538 23.8274 4.50878 23.7949L4.53878 23.7275C4.74574 23.3528 4.42899 22.9444 4.22863 22.973C4.46136 22.7029 4.47224 21.52 3.18099 21.2464C3.21877 21.4841 3.23795 21.969 3.23795 21.969C3.23795 21.969 2.2414 21.4475 1.74098 21.8975C1.30124 22.4013 1.91145 23.3151 1.91145 23.3151C1.91145 23.3151 1.40145 23.3271 1.15006 23.3065C1.5197 24.5162 2.7593 24.4305 3.02749 24.1918C3.01001 24.3843 3.45832 24.6584 3.83806 24.4385L4.00487 24.3603C4.0343 24.3985 7.57489 27.6358 7.57489 27.6358C7.41226 27.8694 7.33489 28.1561 7.38823 28.4617C7.47226 28.9392 7.88335 29.3349 8.40835 29.4377C8.77907 29.5097 9.12768 29.44 9.40727 29.2818L10.3445 30.1237C10.428 30.1968 10.5407 30.2424 10.6667 30.2339C10.8959 30.219 11.0675 30.0391 11.0501 29.833C11.0429 29.7399 10.9937 29.66 10.9259 29.5994C10.9109 29.5834 9.9713 28.7392 9.9713 28.7392C10.7464 28.2131 12.1906 27.8426 13.3894 27.8426C13.6 27.8426 13.699 27.6701 13.6264 27.5009C13.0834 26.237 14.251 25.3216 15.4588 26.0669C15.9857 26.3918 16.5209 27.0321 16.9241 28.1001C14.9422 28.5645 12.4541 29.8437 11.9507 31.2403C11.7569 31.7795 12.3971 32.5145 13.1747 32.6625C13.1884 32.6654 13.2028 32.6629 13.2147 32.6555C13.2265 32.648 13.2348 32.6364 13.2377 32.623C13.6439 30.5383 15.9605 28.9847 17.1659 28.7209C17.2265 28.8779 17.2066 28.8271 17.2673 28.9836C15.9545 29.5845 14.6813 30.8518 14.3177 32.3584C14.1509 33.0484 14.9459 33.6704 15.6023 33.8406C15.6352 33.8492 15.6677 33.8269 15.6695 33.7961C15.7943 31.8907 16.6637 30.2727 17.4424 29.5365C17.4637 29.6804 17.4798 29.825 17.4905 29.97C17.4905 29.97 16.6931 32.1203 16.6931 33.6893C16.6931 34.4191 17.8139 34.9286 17.9795 35C18.1864 34.9286 19.3067 34.4191 19.3067 33.6893C19.3067 32.1203 18.5093 29.97 18.5093 29.97C18.5202 29.825 18.5364 29.6804 18.5579 29.5365C19.3361 30.2727 20.206 31.8901 20.3303 33.7954C20.3321 33.8263 20.3651 33.8492 20.3974 33.8406C21.0544 33.6704 21.8489 33.0485 21.6826 32.3585C21.3184 30.8519 20.0458 29.5846 18.733 28.9837C18.793 28.8272 18.7732 28.878 18.8338 28.7209C20.0399 28.9848 22.3558 30.5382 22.762 32.6229C22.765 32.6363 22.7733 32.6479 22.7851 32.6553C22.7969 32.6627 22.8113 32.6653 22.8251 32.6624C23.602 32.5145 24.2434 31.7794 24.0484 31.2403C23.5463 29.8438 21.0574 28.5646 19.0757 28.1002C19.4794 27.0322 20.0146 26.3919 20.5414 26.0669C21.7486 25.3216 22.9162 26.2372 22.3732 27.5011C22.3006 27.6701 22.399 27.8426 22.6102 27.8426C23.9662 27.8426 25.6365 28.3167 26.2977 28.9523C26.7201 29.5657 27.5007 29.9581 28.3815 29.8741C29.3823 29.7793 30.1984 29.0517 30.3111 28.1522C30.4095 27.364 29.9884 26.6563 29.317 26.2708L28.1463 27.1618L28.1462 27.1616ZM19.5224 21.4199C19.9394 21.2703 20.5928 21.3914 20.5706 21.9739C20.5653 22.1058 20.7567 22.1058 20.7705 21.971C20.8953 21.0989 20.2862 20.8476 19.6491 20.9498C19.5699 20.65 19.5051 20.3878 19.4313 20.128C19.3725 19.9178 19.3509 19.5231 19.6023 19.5231C19.7379 19.5231 19.6834 19.8904 19.6708 20.0486C19.6593 20.1873 19.7109 20.2713 19.8274 20.2753C19.9 20.2781 19.9906 20.1885 20.0446 20.1291C20.4094 19.7298 20.494 19.1119 20.0668 18.8138C19.7093 18.5636 18.814 18.7498 18.5679 19.1062C18.5308 18.9719 18.3532 18.7504 18.2679 18.6538C18.1852 18.5596 18.1636 18.4951 18.2782 18.4123C18.3322 18.3723 18.4954 18.2153 18.4954 18.053C18.4954 17.9571 18.4186 17.78 18.1744 17.78C17.9818 17.78 17.7676 17.9091 17.7676 18.1969C17.7676 18.2609 17.7838 18.3295 17.8264 18.4032C17.7046 18.3837 17.374 18.3918 17.2042 18.4323L19.552 24.6674C20.224 24.3464 20.7166 23.8381 20.7166 23.2927C20.7166 22.8278 20.0091 22.982 19.6654 23.3447C19.5549 22.7553 19.4565 22.211 19.3492 21.6684C19.3199 21.5187 19.3984 21.4651 19.5226 21.4199L19.5224 21.4199ZM16.2027 17.1844L16.6959 18.5106C16.2735 18.6077 15.5943 18.9058 15.5943 19.3004C15.5943 19.826 16.5549 20.168 17.1105 20.1269C17.0829 20.2468 17.1147 20.3536 17.2011 20.4513C16.9995 20.4513 16.6192 20.5421 16.4943 20.6723C16.1997 20.4067 15.7389 20.3102 15.5199 20.4718C15.2997 20.6346 15.2932 20.9105 15.5229 21.2223C15.6831 21.4382 15.7431 21.6513 15.5631 21.9014C16.2327 21.9014 15.9861 21.059 16.2483 21.059C16.2141 21.2223 16.2351 21.4114 16.3113 21.621C16.3617 21.7603 16.3617 21.8591 16.2753 21.9933C16.0594 22.3275 15.7234 23.0951 15.7689 23.789C15.5494 23.7878 15.4378 23.7358 15.5152 23.4458C15.5439 23.3377 15.475 23.2606 15.3838 23.3937C15.283 23.5405 15.2344 23.7913 15.2344 23.8985C15.2344 24.5166 15.9951 24.6411 16.2855 24.5103C17.1256 25.297 18.7756 25.0872 19.3281 24.8233L16.423 17.1089C16.3635 16.9633 16.1506 17.0329 16.2028 17.1843L16.2027 17.1844ZM16.1018 23.5389C16.0418 23.2212 16.4984 22.6536 17.0793 22.1059C16.9556 22.4628 17.0324 23.0779 17.2748 23.2898C16.8536 23.2898 16.3532 23.3664 16.1019 23.5389H16.1018Z" fill="white"/>
</svg>
