<svg width="90" height="90" viewBox="0 0 90 90" fill="none" xmlns="http://www.w3.org/2000/svg">
<path d="M38.0892 40.5673C39.6469 38.1426 40.5364 35.2499 40.485 32.1485C40.3472 23.8492 33.4404 17.2539 25.1397 17.2539H1.96552C0.880088 17.2539 0 18.134 0 19.2194V70.1823C0 71.2677 0.880088 72.1478 1.96552 72.1478H27.852C37.46 72.1478 45.4188 64.4471 45.4581 54.8391C45.4823 48.9508 42.5622 43.7304 38.0892 40.5673ZM10.1667 27.4206H25.3376C28.0851 27.4206 30.3205 29.6558 30.3205 32.4035C30.3205 35.1509 28.0853 37.3864 25.3376 37.3864H10.1667V27.4206ZM28.0778 61.9811H10.1667V47.553H25.3376H28.0776C32.0554 47.553 35.2917 50.7893 35.2917 54.7671C35.2917 58.7448 32.0556 61.9811 28.0778 61.9811Z" fill="#0067FF"/>
<path d="M90 51.2251C90 39.3584 80.6471 29.7043 69.1506 29.7043C57.6541 29.7043 48.3012 39.3586 48.3012 51.2251C48.3012 63.0917 57.6543 72.7461 69.1506 72.7461C76.1265 72.7461 82.6085 69.17 86.4901 63.1798C86.974 62.433 87.4135 61.6527 87.8036 60.8484C88.0867 60.2645 87.6572 59.5851 87.0082 59.5835L76.7592 59.558C76.5325 59.5574 76.3175 59.65 76.155 59.8081C74.2197 61.6898 71.847 62.5793 69.1506 62.5793C64.0572 62.5793 59.7875 58.7698 58.7246 53.6912H87.9597C89.0866 53.6912 90 52.7778 90 51.6509V51.2251ZM69.1506 39.8709C72.881 39.8709 76.1689 41.9152 78.0803 45.0036H60.2211C62.1323 41.9152 65.4204 39.8709 69.1506 39.8709Z" fill="#0067FF"/>
<path d="M77.814 27.1781H59.3216C58.4588 27.1781 57.7593 26.4786 57.7593 25.6158V20.9767C57.7593 20.1138 58.4588 19.4144 59.3216 19.4144H77.814C78.6769 19.4144 79.3763 20.1138 79.3763 20.9767V25.6158C79.3763 26.4788 78.6769 27.1781 77.814 27.1781Z" fill="#0067FF"/>
</svg>
