<svg id="Logo" xmlns="http://www.w3.org/2000/svg" viewBox="0 0 204.38 230.7"><defs><style>.cls-1{fill:#ffbc3a;}</style></defs><path class="cls-1" d="M168.16,97.23c-7.42-6.55-20.29-5.29-28.55-1.07a20.25,20.25,0,0,0-6.06,4.28c-7,7.41-5.85,18.87-5.36,24.62,1.26,14.57.23,29.26.72,43.88.8,24.29,1.43,43.47-1.43,67.44-1.14,9.59-2.69,18.61,2.85,24.27,5.18,5.27,15,6.12,21.77,2.49,7.82-4.21,10.1-13.79,11.78-23.55,7.38-43.08-3.82-50.74,3.21-79.92,3.29-13.66,9.09-25.91,7.49-45.32C173.89,106.06,172.21,100.81,168.16,97.23Z" transform="translate(-47.81 -34.65)"/><path class="cls-1" d="M175.36,56.91c-40.18,5.92-51.93-6.82-84.57,6.07C67.82,72.06,58.4,84.39,54,92.6c-5.71,10.74-7.8,24-5,25.33,2.51,1.23,7-8,17.48-15.7,4.21-3.1,12.67-8.39,36-11.78,14.76-2.14,21.52-1.5,53.88-1.42,36.14.08,41.64-.68,48.88-3.21a76,76,0,0,0,33.9-23.55c3.3-4.09,16.35-20.24,12.13-26.05C245.89,28.69,220,50.35,175.36,56.91Z" transform="translate(-47.81 -34.65)"/></svg>