<svg width="106" height="26" viewBox="0 0 106 26" fill="none" xmlns="http://www.w3.org/2000/svg">
<rect x="9" width="6" height="26" rx="3" fill="black"/>
<rect x="19" y="5" width="5" height="16" rx="2.5" fill="black"/>
<rect y="5" width="5" height="16" rx="2.5" fill="black"/>
<path d="M36.736 13.526C36.736 16.746 39.381 19.299 42.601 19.299C44.234 19.299 45.729 18.632 46.718 17.459C46.764 17.39 46.925 17.344 46.925 17.62C46.925 17.781 46.925 18.31 46.925 18.31C46.925 18.701 47.247 19.023 47.638 19.023H47.684C48.075 19.023 48.397 18.701 48.397 18.31V8.696C48.397 8.305 48.075 7.983 47.684 7.983H47.638C47.247 7.983 46.925 8.305 46.925 8.696C46.925 8.972 46.925 9.34 46.925 9.363C46.925 9.662 46.695 9.593 46.626 9.478C45.729 8.351 44.142 7.707 42.555 7.707C39.335 7.707 36.736 10.306 36.736 13.526ZM38.208 13.526C38.208 11.134 40.14 9.087 42.555 9.087C44.947 9.087 46.902 11.134 46.902 13.526C46.902 15.918 44.993 17.919 42.601 17.919C40.186 17.919 38.208 15.918 38.208 13.526ZM58.6519 17.827C58.6519 17.827 54.9719 12.974 54.8109 12.767C54.6729 12.583 54.7189 12.445 54.8339 12.33C54.9719 12.215 57.9619 9.524 57.9619 9.524C58.2609 9.248 58.2839 8.811 58.0309 8.512L57.9849 8.466C57.7089 8.19 57.2719 8.167 56.9729 8.42C56.9729 8.42 52.6719 12.399 52.4879 12.56C52.3039 12.744 52.1889 12.675 52.1889 12.422C52.1889 12.146 52.1889 8.696 52.1889 8.696C52.1889 8.305 51.8669 7.983 51.4759 7.983H51.4069C51.0159 7.983 50.6939 8.305 50.6939 8.696V18.287C50.6939 18.678 51.0159 19 51.4069 19H51.4759C51.8669 19 52.1889 18.678 52.1889 18.287C52.1889 18.287 52.1889 15.159 52.1889 14.906C52.1889 14.63 52.2579 14.515 52.3959 14.4C52.6949 14.124 53.3389 13.503 53.4309 13.411C53.5689 13.296 53.7299 13.296 53.8449 13.434C53.9599 13.595 57.4559 18.701 57.4559 18.701C57.6859 19.023 58.1459 19.092 58.4679 18.862L58.5139 18.816C58.8129 18.586 58.8819 18.126 58.6519 17.827ZM69.9908 17.482C69.8758 17.482 69.6688 17.505 69.4158 17.505C69.3468 17.505 69.2088 17.436 69.2088 17.206C69.2088 16.999 69.2088 8.696 69.2088 8.696C69.2088 8.305 68.8868 7.983 68.4958 7.983H68.4268C68.0358 7.983 67.7138 8.305 67.7138 8.696C67.7138 8.696 67.7138 17.045 67.7138 17.298C67.7138 17.551 67.6218 17.666 67.4608 17.689C66.9088 17.758 65.6208 17.919 64.6548 17.919C63.0678 17.919 61.7798 16.861 61.7798 14.584V8.696C61.7798 8.305 61.4578 7.983 61.0668 7.983H60.9978C60.6068 7.983 60.2848 8.305 60.2848 8.696V14.676C60.2848 18.241 62.5848 19.299 64.6548 19.299C66.0118 19.299 68.3118 19.023 69.0248 18.931C69.1628 18.908 69.2548 18.931 69.2548 19.161C69.2548 19.414 69.2088 19.736 69.2088 20.127C69.2088 20.495 69.5308 20.84 69.9218 20.84H69.9908C70.3818 20.84 70.7038 20.518 70.7038 20.127V18.195C70.7038 17.804 70.3818 17.482 69.9908 17.482ZM83.0028 12.33C82.8418 11.18 82.3588 10.191 81.5538 9.386C80.4038 8.236 79.0468 7.707 77.4368 7.707C75.8268 7.707 74.4698 8.236 73.3198 9.386C72.1928 10.513 71.6178 11.87 71.6178 13.48C71.6178 15.09 72.1928 16.447 73.3198 17.597C74.4698 18.724 75.8268 19.299 77.4368 19.299C79.1158 19.299 80.7028 18.586 81.8298 17.275C82.1518 16.884 82.1518 16.378 81.7378 16.102C81.2088 15.78 80.8868 16.01 80.3578 16.654C79.8288 17.298 78.6098 17.919 77.4368 17.919C76.2408 17.919 75.2288 17.344 74.4008 16.516C73.6418 15.78 73.2278 14.837 73.1358 13.687C73.1128 13.342 73.1818 13.25 73.5038 13.25H82.3128C82.9568 13.25 83.0488 12.675 83.0028 12.33ZM80.9788 11.778H73.8948C73.5268 11.778 73.4118 11.755 73.5728 11.456C73.7568 11.157 74.0098 10.812 74.3778 10.444C75.2288 9.593 76.2408 9.087 77.4368 9.087C78.6098 9.087 79.6218 9.593 80.4728 10.444C80.7948 10.743 81.0248 11.042 81.1858 11.341C81.3238 11.571 81.4618 11.778 80.9788 11.778ZM93.6896 7.983H93.6206C93.2296 7.983 92.9076 8.305 92.9076 8.696V12.33C92.9076 12.445 92.8156 12.537 92.7006 12.537H86.5366C86.4216 12.537 86.3296 12.445 86.3296 12.33V8.696C86.3296 8.305 86.0076 7.983 85.6166 7.983H85.5476C85.1566 7.983 84.8346 8.305 84.8346 8.696V18.287C84.8346 18.678 85.1566 19 85.5476 19H85.6166C86.0076 19 86.3296 18.678 86.3296 18.287V14.239C86.3296 14.124 86.4216 14.032 86.5366 14.032H92.7006C92.8156 14.032 92.9076 14.124 92.9076 14.239V18.287C92.9076 18.678 93.2296 19 93.6206 19H93.6896C94.0806 19 94.4026 18.678 94.4026 18.287V8.696C94.4026 8.305 94.0806 7.983 93.6896 7.983ZM103.709 7.983H96.8779C96.4869 7.983 96.1649 8.305 96.1649 8.696V8.742C96.1649 9.133 96.4869 9.455 96.8779 9.455H99.3159C99.4539 9.455 99.5459 9.57 99.5459 9.685V18.287C99.5459 18.678 99.8679 19 100.259 19H100.328C100.719 19 101.041 18.678 101.041 18.287V9.685C101.041 9.57 101.133 9.455 101.248 9.455H103.709C104.1 9.455 104.422 9.133 104.422 8.742V8.696C104.422 8.305 104.1 7.983 103.709 7.983Z" fill="black"/>
</svg>
