<svg width="90" height="90" viewBox="0 0 90 90" fill="none" xmlns="http://www.w3.org/2000/svg">
<g clip-path="url(#clip0)">
<path d="M44.037 70.4595H49.4149C49.4149 70.4595 51.0406 70.2795 51.8676 69.3851C52.6326 68.5638 52.6045 67.0224 52.6045 67.0224C52.6045 67.0224 52.4976 59.805 55.8504 58.7418C59.1525 57.6955 63.3941 65.7173 67.8888 68.8057C71.2865 71.1402 73.8686 70.6283 73.8686 70.6283L85.8901 70.4595C85.8901 70.4595 92.1793 70.0714 89.1978 65.1266C88.956 64.7216 87.4596 61.4701 80.2591 54.7871C72.721 47.7891 73.7336 48.9255 82.813 36.8252C88.3428 29.4559 90.5536 24.9556 89.8616 23.0317C89.2035 21.1978 85.1363 21.6816 85.1363 21.6816L71.6128 21.7603C71.6128 21.7603 70.6115 21.6253 69.8633 22.0697C69.1376 22.5085 68.6707 23.5211 68.6707 23.5211C68.6707 23.5211 66.5274 29.2252 63.6697 34.0744C57.6449 44.307 55.2316 44.847 54.2471 44.2114C51.9576 42.7319 52.5314 38.2597 52.5314 35.0869C52.5314 25.1693 54.0334 21.0346 49.6005 19.9658C48.1267 19.6114 47.0466 19.3751 43.2832 19.3358C38.4566 19.2851 34.3669 19.3526 32.0549 20.4833C30.5135 21.2372 29.3265 22.9192 30.0522 23.0148C30.9466 23.1329 32.9718 23.5605 34.0463 25.0231C35.4357 26.9076 35.3851 31.1491 35.3851 31.1491C35.3851 31.1491 36.1839 42.8219 33.5231 44.2732C31.6948 45.2689 29.1915 43.2382 23.8192 33.9506C21.0684 29.1971 18.987 23.9374 18.987 23.9374C18.987 23.9374 18.5876 22.9585 17.8732 22.4354C17.0069 21.7997 15.7918 21.5972 15.7918 21.5972L2.93207 21.6759C2.93207 21.6759 1.00255 21.7322 0.293747 22.5704C-0.3363 23.3186 0.243118 24.8599 0.243118 24.8599C0.243118 24.8599 10.3126 48.4135 21.7097 60.2888C32.1674 71.174 44.037 70.4595 44.037 70.4595Z" fill="#1E88E5"/>
</g>
<defs>
<clipPath id="clip0">
<rect width="90" height="90" fill="white"/>
</clipPath>
</defs>
</svg>
