<svg width="180" height="22" viewBox="0 0 180 22" fill="none" xmlns="http://www.w3.org/2000/svg">
<path d="M0 21.7566V0.152144H9.71311C10.7236 0.152144 11.6516 0.355002 12.4971 0.760718C13.3633 1.16644 14.1057 1.71415 14.7243 2.40387C15.3636 3.09359 15.8483 3.86445 16.1782 4.71646C16.5288 5.56847 16.7041 6.44076 16.7041 7.33333C16.7041 8.2462 16.5391 9.12863 16.2091 9.98064C15.8998 10.8124 15.4461 11.5426 14.8481 12.1715C14.25 12.8004 13.5489 13.2872 12.7446 13.6321L17.7558 21.7566H13.0539L8.53764 14.5145H4.26882V21.7566H0ZM4.26882 10.8326H9.62031C10.1565 10.8326 10.6308 10.6805 11.0433 10.3762C11.4557 10.0516 11.7857 9.62563 12.0331 9.0982C12.2806 8.57077 12.4043 7.98248 12.4043 7.33333C12.4043 6.64361 12.26 6.04518 11.9713 5.53803C11.6825 5.0106 11.3113 4.59474 10.8577 4.29046C10.4246 3.98617 9.95027 3.83402 9.43471 3.83402H4.26882V10.8326Z" fill="white"/>
<path d="M35.8222 18.0747V21.7566H20.572V0.152144H35.5438V3.83402H24.8408V9.03734H34.0899V12.4454H24.8408V18.0747H35.8222Z" fill="white"/>
<path d="M52.2351 5.81189C52.0907 5.66989 51.8226 5.47718 51.4308 5.23375C51.0596 4.99032 50.5956 4.75703 50.0388 4.53389C49.5026 4.31074 48.9149 4.11803 48.2756 3.95574C47.6363 3.77317 46.9867 3.68188 46.3268 3.68188C45.1719 3.68188 44.2955 3.89488 43.6974 4.32089C43.12 4.74689 42.8313 5.34532 42.8313 6.11618C42.8313 6.70447 43.0169 7.17105 43.3881 7.51591C43.7593 7.86076 44.3161 8.15491 45.0585 8.39834C45.8009 8.64177 46.7289 8.90549 47.8425 9.18949C49.2861 9.53435 50.5337 9.96035 51.5854 10.4675C52.6578 10.9544 53.4724 11.6035 54.0292 12.4149C54.6066 13.2061 54.8953 14.261 54.8953 15.5795C54.8953 16.7358 54.6788 17.7298 54.2457 18.5615C53.8127 19.373 53.2146 20.0323 52.4516 20.5394C51.6886 21.0466 50.8224 21.4219 49.8532 21.6653C48.8839 21.8884 47.8528 22 46.7598 22C45.6668 22 44.5739 21.8884 43.4809 21.6653C42.3879 21.4421 41.3362 21.1277 40.3257 20.722C39.3152 20.296 38.3872 19.7888 37.5416 19.2006L39.4286 15.5795C39.6142 15.7621 39.9441 16.0055 40.4185 16.3098C40.8928 16.5938 41.4702 16.888 42.1507 17.1923C42.8313 17.4763 43.5737 17.7197 44.3779 17.9225C45.1822 18.1254 45.9968 18.2268 46.8217 18.2268C47.9765 18.2268 48.853 18.0341 49.451 17.6487C50.0491 17.2633 50.3481 16.7155 50.3481 16.0055C50.3481 15.3564 50.111 14.8492 49.6366 14.4841C49.1623 14.1189 48.5024 13.8045 47.6569 13.5408C46.8114 13.2568 45.8112 12.9525 44.6563 12.6279C43.2747 12.2425 42.1198 11.8165 41.1918 11.3499C40.2638 10.8631 39.5729 10.2545 39.1193 9.5242C38.6656 8.79391 38.4387 7.88105 38.4387 6.78562C38.4387 5.30475 38.7893 4.06731 39.4905 3.07331C40.2122 2.05901 41.1815 1.29829 42.3982 0.791149C43.6149 0.263716 44.9657 0 46.4505 0C47.4816 0 48.4509 0.111572 49.3582 0.334716C50.2862 0.557861 51.1524 0.852006 51.9566 1.21715C52.7609 1.5823 53.4827 1.97787 54.122 2.40387L52.2351 5.81189Z" fill="white"/>
<path d="M74.5468 3.83402H67.5249V21.7566H63.287V3.83402H56.2651V0.152144H74.5468V3.83402Z" fill="white"/>
<path d="M90.2276 0.213002H94.1871L96.6927 7.36376L99.2293 0.213002H103.158L99.384 10.0415L102.168 16.9184L108.386 0.152144H113.026L104.241 21.7566H100.559L96.6927 12.6888L92.857 21.7566H89.1759L80.4217 0.152144H84.9999L91.2485 16.9184L93.9706 10.0415L90.2276 0.213002Z" fill="white"/>
<path d="M123.803 21.9087C122.194 21.9087 120.73 21.6044 119.41 20.9958C118.111 20.3873 116.987 19.5657 116.038 18.5311C115.11 17.4763 114.388 16.2997 113.873 15.0014C113.357 13.6828 113.1 12.3338 113.1 10.9544C113.1 9.51406 113.368 8.14477 113.904 6.84647C114.461 5.52789 115.213 4.36146 116.162 3.34717C117.131 2.31259 118.265 1.50115 119.565 0.912862C120.884 0.304287 122.328 0 123.895 0C125.483 0 126.927 0.314431 128.226 0.943292C129.546 1.57215 130.67 2.41402 131.598 3.46888C132.526 4.52374 133.248 5.70032 133.763 6.99862C134.279 8.29691 134.536 9.63578 134.536 11.0152C134.536 12.4352 134.268 13.8045 133.732 15.1231C133.196 16.4214 132.443 17.5878 131.474 18.6224C130.525 19.6367 129.391 20.438 128.071 21.0263C126.772 21.6146 125.349 21.9087 123.803 21.9087ZM117.43 10.9544C117.43 11.8875 117.575 12.7902 117.863 13.6625C118.152 14.5348 118.564 15.3158 119.101 16.0055C119.657 16.675 120.328 17.2125 121.111 17.6183C121.916 18.0037 122.823 18.1964 123.833 18.1964C124.865 18.1964 125.782 17.9935 126.587 17.5878C127.391 17.1618 128.061 16.604 128.597 15.9142C129.133 15.2042 129.536 14.4232 129.804 13.5712C130.092 12.6989 130.237 11.8266 130.237 10.9544C130.237 10.0212 130.082 9.12863 129.773 8.27662C129.484 7.40433 129.061 6.63347 128.504 5.96404C127.968 5.27432 127.298 4.73674 126.494 4.35131C125.71 3.9456 124.823 3.74274 123.833 3.74274C122.782 3.74274 121.854 3.95574 121.049 4.38174C120.266 4.78746 119.606 5.33518 119.07 6.0249C118.534 6.71462 118.121 7.48548 117.832 8.33748C117.564 9.18949 117.43 10.0618 117.43 10.9544Z" fill="white"/>
<path d="M147.184 21.9087C145.575 21.9087 144.111 21.6044 142.791 20.9958C141.492 20.3873 140.368 19.5657 139.42 18.5311C138.492 17.4763 137.77 16.2997 137.254 15.0014C136.739 13.6828 136.481 12.3338 136.481 10.9544C136.481 9.51406 136.749 8.14477 137.285 6.84647C137.842 5.52789 138.595 4.36146 139.543 3.34717C140.513 2.31259 141.647 1.50115 142.946 0.912862C144.266 0.304287 145.709 0 147.277 0C148.865 0 150.308 0.314431 151.607 0.943292C152.927 1.57215 154.051 2.41402 154.979 3.46888C155.907 4.52374 156.629 5.70032 157.145 6.99862C157.66 8.29691 157.918 9.63578 157.918 11.0152C157.918 12.4352 157.65 13.8045 157.114 15.1231C156.577 16.4214 155.825 17.5878 154.855 18.6224C153.907 19.6367 152.773 20.438 151.453 21.0263C150.154 21.6146 148.731 21.9087 147.184 21.9087ZM140.812 10.9544C140.812 11.8875 140.956 12.7902 141.245 13.6625C141.533 14.5348 141.946 15.3158 142.482 16.0055C143.039 16.675 143.709 17.2125 144.493 17.6183C145.297 18.0037 146.204 18.1964 147.215 18.1964C148.246 18.1964 149.164 17.9935 149.968 17.5878C150.772 17.1618 151.442 16.604 151.979 15.9142C152.515 15.2042 152.917 14.4232 153.185 13.5712C153.474 12.6989 153.618 11.8266 153.618 10.9544C153.618 10.0212 153.463 9.12863 153.154 8.27662C152.865 7.40433 152.443 6.63347 151.886 5.96404C151.35 5.27432 150.679 4.73674 149.875 4.35131C149.091 3.9456 148.205 3.74274 147.215 3.74274C146.163 3.74274 145.235 3.95574 144.431 4.38174C143.647 4.78746 142.987 5.33518 142.451 6.0249C141.915 6.71462 141.502 7.48548 141.214 8.33748C140.946 9.18949 140.812 10.0618 140.812 10.9544Z" fill="white"/>
<path d="M161.192 21.7566V0.152144H169.173C171.565 0.152144 173.566 0.639004 175.174 1.61272C176.783 2.56616 177.989 3.86445 178.794 5.50761C179.598 7.13047 180 8.93592 180 10.9239C180 13.1148 179.557 15.0217 178.67 16.6445C177.783 18.2674 176.525 19.5251 174.896 20.4177C173.287 21.3103 171.38 21.7566 169.173 21.7566H161.192ZM175.7 10.9239C175.7 9.52421 175.442 8.29691 174.927 7.24205C174.411 6.1669 173.669 5.33518 172.7 4.74689C171.73 4.13831 170.555 3.83402 169.173 3.83402H165.461V18.0747H169.173C170.576 18.0747 171.761 17.7704 172.731 17.1618C173.7 16.533 174.432 15.681 174.927 14.6058C175.442 13.5104 175.7 12.2831 175.7 10.9239Z" fill="white"/>
</svg>
