<svg width="75" height="75" viewBox="0 0 75 75" fill="none" xmlns="http://www.w3.org/2000/svg">
<rect width="75" height="75" fill="white"/>
<path d="M16.0791 58.9278C17.6247 60.4735 20.1217 60.4748 21.6687 58.9278L29.7481 50.8419L30.9082 52.002C31.383 52.529 32.2791 52.5293 32.7539 52.002C33.2813 51.5011 33.2813 50.6572 32.7539 50.1563L24.8438 42.2461C24.3428 41.7187 23.499 41.7187 22.9981 42.2461C22.4707 42.747 22.4707 43.5909 22.9981 44.0918L24.1581 45.2519L16.0791 53.3378C14.5231 54.867 14.5231 57.3983 16.0791 58.9278Z" fill="#F1C116"/>
<path d="M42.7735 25.6348C39.0192 25.6348 35.3629 29.8988 33.7946 32.2187C35.0243 34.0173 38.6897 38.8184 42.7735 38.8184C46.5277 38.8184 50.1841 34.5543 51.7521 32.2341C50.5226 30.4358 46.8573 25.6348 42.7735 25.6348ZM42.7735 36.1816C40.5927 36.1816 38.8184 34.4074 38.8184 32.2266C38.8184 30.0458 40.5927 28.2715 42.7735 28.2715C44.9543 28.2715 46.7286 30.0458 46.7286 32.2266C46.7286 34.4074 44.9543 36.1816 42.7735 36.1816Z" fill="#F1C116"/>
<path d="M42.7734 15.0879C33.3235 15.0879 25.6348 22.7766 25.6348 32.2266C25.6348 41.6765 33.3235 49.3652 42.7734 49.3652C52.2234 49.3652 59.9121 41.6765 59.9121 32.2266C59.9121 22.7766 52.2234 15.0879 42.7734 15.0879ZM54.4519 32.9026C54.2435 33.2514 49.2712 41.4551 42.7734 41.4551C36.2757 41.4551 31.3034 33.2514 31.095 32.9026C30.8464 32.4865 30.8464 31.9663 31.095 31.5506C31.3034 31.2018 36.2757 22.9981 42.7734 22.9981C49.2712 22.9981 54.2435 31.2018 54.4519 31.5506C54.7005 31.9663 54.7005 32.4865 54.4519 32.9026Z" fill="#F1C116"/>
</svg>
