<svg width="75" height="75" viewBox="0 0 75 75" fill="none" xmlns="http://www.w3.org/2000/svg">
<rect width="75" height="75" fill="white"/>
<path d="M40.4292 40.562C39.9144 40.0473 39.0796 40.0473 38.5648 40.562L35.503 43.6238L31.3763 39.4971L34.438 36.4353C34.9529 35.9205 34.9529 35.0858 34.438 34.5709C33.9232 34.0561 33.0885 34.0561 32.5736 34.5709L29.5118 37.6327L28.447 36.5679C28.4463 36.5672 27.4485 35.5695 27.4485 35.5695C26.9337 35.0547 26.099 35.0547 25.5841 35.5695C25.0693 36.0844 25.0693 36.9191 25.5841 37.434L25.6503 37.5002L21.5901 41.5605C18.6402 44.5104 18.3548 49.1299 20.7319 52.404L15.3861 57.7495C14.8713 58.2644 14.8713 59.0991 15.3861 59.614C15.6437 59.8714 15.981 60.0001 16.3184 60.0001C16.6558 60.0001 16.9932 59.8714 17.2506 59.614L22.5953 54.2694C24.0167 55.3047 25.7227 55.8642 27.515 55.8642C27.5151 55.8642 27.515 55.8642 27.5151 55.8642C29.7529 55.8642 31.8571 54.9925 33.4395 53.4102L37.5002 49.3497L37.5664 49.416C37.8239 49.6734 38.1612 49.802 38.4987 49.802C38.836 49.802 39.1735 49.6733 39.4308 49.416C39.9456 48.9011 39.9456 48.0664 39.4307 47.5515L37.3674 45.4881L40.4291 42.4264C40.944 41.9116 40.944 41.0769 40.4292 40.562Z" fill="#F1C116"/>
<path d="M59.614 15.3861C59.0992 14.8713 58.2644 14.8713 57.7495 15.3861L52.4048 20.7306C50.9833 19.6953 49.2773 19.1359 47.4849 19.1359C45.2469 19.1359 43.1428 20.0076 41.5604 21.59L37.5001 25.6505L37.4337 25.5841C36.919 25.0693 36.0842 25.0693 35.5693 25.5842C35.0545 26.099 35.0545 26.9337 35.5693 27.4486L47.5514 39.4307C47.809 39.6881 48.1463 39.8168 48.4837 39.8168C48.821 39.8168 49.1585 39.6881 49.4158 39.4307C49.9306 38.9158 49.9306 38.0811 49.4158 37.5662L49.3495 37.4999L53.4098 33.4398C56.3597 30.4901 56.645 25.8705 54.2681 22.5963L59.6138 17.2507C60.1288 16.7358 60.1288 15.9011 59.614 15.3861Z" fill="#F1C116"/>
</svg>
