<svg width="75" height="75" viewBox="0 0 75 75" fill="none" xmlns="http://www.w3.org/2000/svg">
<rect width="75" height="75" fill="white"/>
<path d="M26.1484 42.4563V33.8598C26.1484 33.2394 26.2373 32.6345 26.4038 32.057H20.6071C19.6671 32.057 18.8147 32.4395 18.1974 33.0568C17.5801 33.6741 17.1973 34.5269 17.1973 35.4665V42.3069C17.1973 43.1395 17.5011 43.9061 18.0044 44.5025C18.266 44.8128 18.5826 45.0758 18.9389 45.277V55.2193C18.9389 55.9461 19.5281 56.5352 20.2546 56.5352H28.3371V47.3441C26.9552 46.0965 26.1484 44.3191 26.1484 42.4563Z" fill="#F1C116"/>
<path d="M24.303 30.5007C27.1453 30.5007 29.4576 28.1884 29.4576 25.3461C29.4576 22.5037 27.1453 20.1914 24.303 20.1914C21.4606 20.1914 19.1483 22.5037 19.1483 25.3461C19.1483 28.1884 21.4606 30.5007 24.303 30.5007Z" fill="#F1C116"/>
<path d="M42.0212 29.9122H32.7271C31.6394 29.9122 30.6524 30.3555 29.9376 31.0699C29.2228 31.7847 28.7799 32.7718 28.7799 33.8598V42.4562C28.7799 43.4203 29.1315 44.3081 29.7134 44.9978C30.0584 45.4067 30.4855 45.7449 30.9686 45.9866V58.6841C30.9686 59.4109 31.5577 60 32.2845 60H42.4641C43.1909 60 43.78 59.4109 43.78 58.6841V45.9866C44.2631 45.7449 44.6902 45.4067 45.0349 44.9978C45.6171 44.3081 45.9687 43.4206 45.9687 42.4562V33.8598C45.9687 32.7718 45.5258 31.7847 44.811 31.0703C44.0962 30.3555 43.1092 29.9122 42.0212 29.9122Z" fill="#F1C116"/>
<path d="M37.3723 27.2807C40.7581 27.2807 43.5126 24.5262 43.5126 21.1403C43.5126 17.7545 40.7581 15 37.3723 15C33.9864 15 31.2319 17.7545 31.2319 21.1403C31.2319 24.5262 33.9864 27.2807 37.3723 27.2807V27.2807Z" fill="#F1C116"/>
<path d="M56.7278 33.0568C56.1105 32.4395 55.258 32.057 54.318 32.057H48.3449C48.511 32.6345 48.6003 33.2394 48.6003 33.8598V42.4563C48.6003 44.3188 47.7935 46.0965 46.4116 47.3441V56.5256C46.4635 56.5318 46.5167 56.5352 46.5706 56.5352H54.6702C55.3971 56.5352 55.9862 55.9461 55.9862 55.2193V45.277C56.3422 45.0761 56.6588 44.8128 56.9207 44.5025C57.424 43.9061 57.7279 43.1395 57.7279 42.3069V35.4665C57.7279 34.5269 57.3451 33.6741 56.7278 33.0568V33.0568Z" fill="#F1C116"/>
<path d="M50.6188 30.5007C53.4611 30.5007 55.7734 28.1884 55.7734 25.3461C55.7734 22.5037 53.4611 20.1914 50.6188 20.1914C47.7767 20.1914 45.4641 22.5037 45.4641 25.3461C45.4641 28.1884 47.7767 30.5007 50.6188 30.5007Z" fill="#F1C116"/>
</svg>
